<?xml version="1.0" encoding="utf-8"?>
<!-- Generator: Adobe Illustrator 27.5.0, SVG Export Plug-In . SVG Version: 6.00 Build 0)  -->
<svg version="1.1" xmlns="http://www.w3.org/2000/svg" xmlns:xlink="http://www.w3.org/1999/xlink" x="0px" y="0px"
	 viewBox="0 0 500 500" style="enable-background:new 0 0 500 500;" xml:space="preserve">
<g id="Background_Simple">
	<g>
		<path style="fill:#C6FF00;" d="M444.96,208.672c-7.999-30.654-21.306-59.242-35.228-78.847
			c-33.464-47.122-111.269-67.859-165.014-48.12c-45.801,16.822-61.84,67.678-101.849,92.034
			c-36.808,22.407-70.21,40.673-83.081,83.381c-27.194,90.229,80.341,162.162,160.701,139.276
			c25.361-7.223,46.8-22.419,73.855-22.513c54.881-0.191,74.213,7.338,118.611-22.308
			C456.699,322.363,458.967,262.349,444.96,208.672z"/>
		<path style="opacity:0.8;fill:#FFFFFF;" d="M444.96,208.672c-7.999-30.654-21.306-59.242-35.228-78.847
			c-33.464-47.122-111.269-67.859-165.014-48.12c-45.801,16.822-61.84,67.678-101.849,92.034
			c-36.808,22.407-70.21,40.673-83.081,83.381c-27.194,90.229,80.341,162.162,160.701,139.276
			c25.361-7.223,46.8-22.419,73.855-22.513c54.881-0.191,74.213,7.338,118.611-22.308
			C456.699,322.363,458.967,262.349,444.96,208.672z"/>
	</g>
</g>
<g id="Clouds">
	<path style="fill:#FFFFFF;" d="M442.186,258.093c-3.014-1.644-4.384-0.274-5.48-1.644c-1.096-1.37,3.014-4.933-5.206-8.495
		c0,0-0.548-7.673-11.783-7.947c-11.235-0.274-8.221,7.673-11.235,9.591c-3.014,1.918-3.836-1.096-6.851,0.822
		c-3.014,1.918-1.644,5.755-4.11,6.303c-2.466,0.548-5.755-2.466-8.769-0.548c-3.014,1.918-3.014,3.562-4.385,3.562
		c-1.37,0-4.11-1.096-5.754,0c-1.644,1.096-3.562,2.466-3.562,2.466h69.329C444.378,262.203,445.2,259.737,442.186,258.093z"/>
	<path style="fill:#FFFFFF;" d="M406.821,140.068c-4.176-2.278-6.074-0.38-7.593-2.278c-1.519-1.898,4.176-6.834-7.214-11.769
		c0,0-0.759-10.63-16.325-11.01c-15.566-0.38-11.389,10.631-15.566,13.288c-4.176,2.658-5.315-1.519-9.491,1.139
		c-4.176,2.657-2.278,7.973-5.695,8.732c-3.417,0.759-7.973-3.417-12.149-0.759c-4.176,2.657-4.176,4.936-6.075,4.936
		c-1.898,0-5.695-1.519-7.973,0c-2.278,1.519-4.936,3.417-4.936,3.417h96.052C409.858,145.762,410.997,142.346,406.821,140.068z"/>
	<path style="fill:#FFFFFF;" d="M338.304,137.726c-5.893-3.214-8.572-0.536-10.715-3.214c-2.143-2.679,5.893-9.644-10.179-16.608
		c0,0-1.071-15-23.037-15.536c-21.965-0.536-16.072,15.001-21.965,18.751c-5.893,3.75-7.5-2.143-13.393,1.607
		c-5.893,3.75-3.215,11.25-8.036,12.322c-4.822,1.071-11.251-4.822-17.144-1.072c-5.893,3.75-5.893,6.964-8.572,6.964
		c-2.679,0-8.036-2.143-11.25,0c-3.215,2.143-6.965,4.822-6.965,4.822H342.59C342.59,145.762,344.197,140.941,338.304,137.726z"/>
</g>
<g id="Plants_1_">
	<g>
		<path style="fill:#263238;" d="M55.051,228.047c1.656,0.723,5.707,0.632,5.71,0.632c0.042-0.001-0.871-2.652-0.947-2.813
			c-0.889-1.859-3.7-4.929-5.987-4.62c-1.647,0.223-2.564,1.872-2.192,3.423C52.015,226.253,53.641,227.43,55.051,228.047z"/>
		<path style="fill:#263238;" d="M108.116,214.258c-2.295-0.247-5.021,2.897-5.86,4.78c-0.072,0.163-0.913,2.837-0.871,2.837
			c0,0,0.039-0.001,0.049-0.001c-0.434,0.493-0.894,1.027-1.385,1.62c-0.897,1.103-1.902,2.357-2.902,3.795
			c-1.004,1.435-2.054,3.023-3.009,4.794c-0.96,1.775-1.879,3.691-2.571,5.787c-0.008,0.024-0.013,0.049-0.021,0.073
			c0.012-0.676-0.018-2.567-0.037-2.712c-0.265-2.044-1.978-5.837-4.247-6.257c-1.635-0.302-3.02,0.979-3.15,2.569
			c-0.133,1.624,1.045,3.249,2.192,4.274c1.295,1.156,4.888,2.276,5.175,2.364c-0.64,2.003-1.135,4.11-1.518,6.27
			c-0.22,1.235-0.404,2.485-0.572,3.741c-0.009-0.585-0.021-1.108-0.03-1.181c-0.265-2.044-1.978-5.837-4.247-6.256
			c-1.635-0.302-3.02,0.979-3.15,2.568c-0.133,1.624,1.044,3.249,2.192,4.274c1.165,1.04,4.209,2.057,5.019,2.315
			c-0.059,0.483-0.124,0.964-0.182,1.446c-0.277,2.316-0.543,4.629-0.873,6.889c-0.116,0.797-0.26,1.577-0.401,2.358
			c-0.008-0.519-0.019-0.957-0.028-1.023c-0.265-2.044-1.978-5.837-4.247-6.257c-1.635-0.302-3.02,0.979-3.15,2.569
			c-0.133,1.624,1.045,3.249,2.192,4.274c1.111,0.993,3.913,1.956,4.874,2.268c-0.169,0.796-0.336,1.593-0.535,2.356
			c-0.148,0.518-0.254,1.027-0.431,1.539c-0.165,0.511-0.328,1.016-0.49,1.517c-0.347,0.953-0.699,1.938-1.06,2.86
			c-0.247,0.643-0.493,1.25-0.74,1.863c0.125-0.791,0.336-2.346,0.34-2.478c0.032-1.369-0.455-3.594-1.422-5.159
			c0.006-0.202-0.006-0.404-0.038-0.604c-0.253-1.575-1.733-2.745-3.34-2.317c-2.23,0.594-3.645,4.508-3.75,6.566
			c-0.006,0.121,0.073,1.446,0.137,2.281c-0.112-0.485-0.216-0.957-0.337-1.455c-0.234-0.986-0.496-1.964-0.775-3.017
			c-0.152-0.504-0.306-1.012-0.462-1.526c-0.143-0.513-0.36-1.036-0.539-1.56c-0.441-1.206-0.947-2.407-1.483-3.605
			c0.863-0.207,3.918-0.986,5.145-1.927c1.221-0.937,2.516-2.47,2.505-4.099c-0.011-1.595-1.297-2.976-2.95-2.796
			c-2.294,0.249-4.286,3.904-4.702,5.923c-0.026,0.126-0.162,1.608-0.221,2.423c-0.328-0.718-0.652-1.436-1.007-2.151
			c-1.025-2.065-2.128-4.124-3.218-6.182c-0.334-0.631-0.66-1.262-0.988-1.894c0.308-0.07,3.959-0.918,5.333-1.972
			c1.221-0.937,2.516-2.47,2.505-4.099c-0.011-1.595-1.297-2.976-2.95-2.796c-2.295,0.249-4.285,3.904-4.702,5.922
			c-0.031,0.152-0.224,2.285-0.246,2.829c-0.722-1.391-1.43-2.784-2.071-4.186c-0.888-1.933-1.652-3.878-2.253-5.818
			c0.143-0.033,3.958-0.899,5.365-1.979c1.221-0.937,2.516-2.47,2.505-4.099c-0.011-1.595-1.297-2.976-2.95-2.796
			c-2.295,0.249-4.285,3.904-4.702,5.922c-0.033,0.159-0.239,2.453-0.246,2.872c-0.036-0.116-0.085-0.231-0.119-0.347
			c-0.615-2.079-0.95-4.169-1.168-6.142c-0.129-1.146-0.188-2.249-0.221-3.323c0.727-0.088,4.045-0.53,5.419-1.362
			c1.317-0.797,2.772-2.179,2.94-3.799c0.164-1.587-0.962-3.1-2.625-3.103c-2.308-0.004-4.688,3.41-5.324,5.37
			c-0.035,0.107-0.266,1.229-0.423,2.049c-0.007-0.485-0.024-0.985-0.022-1.45c0.003-1.745,0.114-3.343,0.223-4.757
			c0.069-0.804,0.147-1.529,0.227-2.207c0.668-0.459,3.337-2.344,4.158-3.69c0.801-1.314,1.456-3.211,0.858-4.727
			c-0.586-1.484-2.283-2.308-3.76-1.545c-2.05,1.06-2.59,5.187-2.25,7.22c0.03,0.176,0.804,2.87,0.839,2.847
			c0,0,0.033-0.022,0.04-0.028c-0.09,0.651-0.179,1.35-0.261,2.115c-0.14,1.415-0.286,3.015-0.327,4.767
			c-0.046,1.751-0.046,3.654,0.135,5.659c0.178,2.01,0.468,4.115,1.048,6.245c0.007,0.024,0.017,0.048,0.023,0.072
			c-0.363-0.57-1.431-2.131-1.527-2.242c-1.348-1.559-4.87-3.777-6.994-2.875c-1.53,0.65-1.979,2.482-1.21,3.88
			c0.785,1.428,2.664,2.133,4.187,2.356c1.718,0.25,5.333-0.798,5.621-0.883c0.57,2.024,1.321,4.054,2.193,6.067
			c0.497,1.151,1.034,2.296,1.587,3.436c-0.33-0.483-0.629-0.913-0.676-0.968c-1.349-1.559-4.87-3.777-6.994-2.875
			c-1.53,0.65-1.979,2.482-1.21,3.88c0.785,1.428,2.664,2.134,4.187,2.356c1.545,0.225,4.646-0.607,5.463-0.838
			c0.217,0.435,0.428,0.872,0.646,1.307c1.047,2.084,2.101,4.16,3.072,6.227c0.343,0.729,0.653,1.458,0.967,2.188
			c-0.293-0.429-0.544-0.788-0.588-0.838c-1.348-1.559-4.87-3.777-6.994-2.875c-1.53,0.65-1.979,2.482-1.21,3.88
			c0.785,1.427,2.664,2.134,4.187,2.355c1.475,0.215,4.343-0.527,5.316-0.797c0.298,0.756,0.599,1.514,0.854,2.26
			c0.163,0.514,0.355,0.997,0.49,1.522c0.144,0.517,0.287,1.029,0.429,1.536c0.236,0.986,0.487,2.002,0.693,2.97
			c0.149,0.672,0.278,1.315,0.41,1.962c-0.332-0.729-1.014-2.143-1.084-2.254c-1.097-1.745-4.241-4.471-6.478-3.902
			c-1.611,0.411-2.332,2.154-1.784,3.652c0.56,1.53,2.31,2.513,3.782,2.963c1.621,0.495,5.209,0.043,5.657-0.017
			c0.215,1.072,0.414,2.117,0.586,3.106c0.604,3.427,0.977,6.304,1.21,8.318c0.041,0.358,0.076,0.677,0.109,0.979H69.94l2.536,3.223
			h11.835l2.536-3.223h-6.471c0.048-0.1,0.093-0.192,0.144-0.297c0.888-1.85,2.119-4.508,3.449-7.761
			c0.423-1.027,0.854-2.133,1.286-3.272c0.434,0.091,3.986,0.812,5.642,0.439c1.501-0.339,3.32-1.189,3.992-2.673
			c0.658-1.453,0.069-3.245-1.507-3.775c-2.187-0.735-5.527,1.75-6.75,3.408c-0.072,0.098-0.737,1.247-1.144,1.978
			c0.174-0.466,0.348-0.918,0.522-1.4c0.349-0.952,0.67-1.912,1.018-2.944c0.151-0.504,0.303-1.013,0.457-1.527
			c0.163-0.506,0.272-1.063,0.411-1.598c0.297-1.249,0.538-2.53,0.752-3.825c0.834,0.304,3.812,1.34,5.354,1.231
			c1.535-0.108,3.461-0.672,4.35-2.037c0.871-1.337,0.56-3.197-0.918-3.96c-2.051-1.058-5.728,0.892-7.189,2.346
			c-0.091,0.091-1.022,1.252-1.521,1.899c0.123-0.78,0.249-1.557,0.347-2.35c0.284-2.288,0.5-4.613,0.726-6.932
			c0.069-0.71,0.146-1.417,0.22-2.125c0.296,0.111,3.808,1.419,5.536,1.298c1.535-0.107,3.462-0.672,4.351-2.037
			c0.87-1.337,0.56-3.197-0.918-3.959c-2.051-1.058-5.728,0.892-7.189,2.346c-0.11,0.11-1.447,1.782-1.766,2.224
			c0.165-1.559,0.343-3.111,0.582-4.634c0.326-2.102,0.762-4.146,1.33-6.095c0.138,0.052,3.798,1.434,5.567,1.309
			c1.535-0.108,3.461-0.672,4.351-2.037c0.87-1.337,0.56-3.197-0.918-3.959c-2.051-1.058-5.728,0.892-7.189,2.346
			c-0.115,0.114-1.552,1.914-1.79,2.259c0.034-0.116,0.057-0.24,0.092-0.355c0.634-2.073,1.508-4.002,2.415-5.767
			c0.525-1.027,1.084-1.979,1.649-2.894c0.655,0.327,3.666,1.789,5.271,1.854c1.538,0.061,3.514-0.288,4.548-1.547
			c1.012-1.233,0.908-3.117-0.477-4.036c-1.923-1.277-5.792,0.258-7.403,1.542c-0.088,0.07-0.9,0.879-1.483,1.476
			c0.261-0.409,0.523-0.835,0.781-1.222c0.965-1.454,1.939-2.726,2.81-3.845c0.501-0.633,0.966-1.195,1.407-1.716
			c0.811-0.014,4.076-0.114,5.504-0.784c1.393-0.654,2.986-1.875,3.323-3.469C110.73,216.059,109.769,214.436,108.116,214.258z
			 M82.71,275.907c-1.387,3.192-2.663,5.797-3.58,7.605c-0.185,0.365-0.351,0.687-0.505,0.984h-0.153
			c-0.045-0.353-0.095-0.739-0.155-1.172c-0.28-2.033-0.72-4.929-1.405-8.376c-0.214-1.09-0.464-2.25-0.733-3.438
			c0.27-0.107,1.8-0.726,3.156-1.484c1.181,1.279,4.208,2.776,4.6,2.967C83.522,274.006,83.112,274.988,82.71,275.907z"/>
		<path style="fill:#263238;" d="M96.025,228.938c0.036,0.022,0.737-2.692,0.761-2.869c0.284-2.041-0.367-6.152-2.445-7.156
			c-1.497-0.723-3.171,0.147-3.716,1.646c-0.557,1.531,0.149,3.409,0.986,4.702C92.593,226.777,96.023,228.936,96.025,228.938z"/>
	</g>
	<g>
		<path style="fill:#FFFFFF;" d="M283.204,238.629c2.267,0.991,7.814,0.866,7.818,0.866c0.058-0.001-1.192-3.631-1.297-3.851
			c-1.217-2.546-5.065-6.749-8.197-6.326c-2.256,0.305-3.51,2.563-3.001,4.686C279.047,236.174,281.273,237.785,283.204,238.629z"/>
		<path style="fill:#FFFFFF;" d="M355.861,219.75c-3.142-0.338-6.875,3.967-8.023,6.545c-0.099,0.223-1.25,3.885-1.192,3.885
			c0,0,0.054-0.001,0.067-0.001c-0.595,0.675-1.224,1.406-1.896,2.218c-1.229,1.51-2.604,3.227-3.974,5.197
			c-1.375,1.965-2.813,4.138-4.12,6.564c-1.315,2.43-2.573,5.053-3.52,7.924c-0.011,0.032-0.018,0.068-0.028,0.1
			c0.016-0.926-0.025-3.515-0.05-3.714c-0.363-2.798-2.708-7.992-5.815-8.567c-2.239-0.413-4.135,1.34-4.313,3.517
			c-0.182,2.223,1.43,4.448,3.002,5.853c1.773,1.583,6.693,3.117,7.085,3.237c-0.877,2.742-1.554,5.627-2.079,8.585
			c-0.302,1.69-0.553,3.402-0.783,5.122c-0.012-0.8-0.028-1.516-0.041-1.616c-0.363-2.798-2.708-7.992-5.816-8.566
			c-2.239-0.414-4.135,1.34-4.313,3.517c-0.182,2.223,1.43,4.449,3.002,5.853c1.595,1.424,5.764,2.816,6.872,3.17
			c-0.081,0.661-0.17,1.32-0.249,1.98c-0.379,3.171-0.743,6.338-1.196,9.432c-0.159,1.091-0.356,2.159-0.548,3.228
			c-0.011-0.711-0.027-1.31-0.038-1.401c-0.363-2.798-2.708-7.992-5.816-8.566c-2.239-0.414-4.134,1.34-4.313,3.517
			c-0.182,2.223,1.43,4.449,3.002,5.853c1.522,1.359,5.358,2.678,6.673,3.105c-0.231,1.089-0.46,2.181-0.732,3.226
			c-0.202,0.709-0.348,1.407-0.59,2.108c-0.226,0.699-0.449,1.392-0.671,2.077c-0.475,1.305-0.957,2.654-1.451,3.915
			c-0.338,0.88-0.676,1.712-1.014,2.551c0.171-1.084,0.461-3.212,0.465-3.393c0.043-1.875-0.622-4.922-1.947-7.064
			c0.008-0.277-0.008-0.553-0.052-0.827c-0.346-2.157-2.372-3.758-4.572-3.172c-3.053,0.813-4.99,6.173-5.135,8.991
			c-0.009,0.166,0.1,1.98,0.188,3.124c-0.154-0.664-0.295-1.311-0.462-1.993c-0.32-1.35-0.679-2.689-1.061-4.13
			c-0.208-0.69-0.419-1.386-0.632-2.089c-0.196-0.702-0.493-1.419-0.738-2.136c-0.604-1.651-1.296-3.295-2.03-4.936
			c1.182-0.284,5.365-1.35,7.044-2.638c1.672-1.283,3.445-3.382,3.429-5.612c-0.016-2.184-1.775-4.074-4.039-3.829
			c-3.141,0.341-5.868,5.346-6.438,8.109c-0.036,0.172-0.222,2.201-0.302,3.318c-0.449-0.983-0.892-1.966-1.379-2.946
			c-1.404-2.828-2.913-5.646-4.407-8.465c-0.458-0.863-0.903-1.728-1.353-2.593c0.422-0.096,5.421-1.256,7.302-2.7
			c1.672-1.283,3.445-3.382,3.43-5.613c-0.016-2.184-1.775-4.074-4.039-3.829c-3.142,0.341-5.868,5.346-6.438,8.109
			c-0.043,0.208-0.306,3.128-0.337,3.874c-0.989-1.905-1.958-3.812-2.836-5.731c-1.215-2.646-2.262-5.31-3.084-7.965
			c0.196-0.045,5.419-1.232,7.346-2.71c1.672-1.283,3.445-3.382,3.43-5.613c-0.016-2.184-1.776-4.074-4.039-3.828
			c-3.142,0.341-5.868,5.345-6.438,8.109c-0.045,0.217-0.327,3.359-0.337,3.932c-0.049-0.158-0.116-0.317-0.163-0.475
			c-0.842-2.846-1.301-5.709-1.599-8.41c-0.176-1.569-0.257-3.079-0.302-4.55c0.996-0.121,5.539-0.726,7.42-1.865
			c1.803-1.092,3.796-2.983,4.025-5.202c0.224-2.173-1.318-4.245-3.594-4.249c-3.16-0.006-6.419,4.669-7.289,7.353
			c-0.048,0.146-0.364,1.683-0.579,2.806c-0.01-0.664-0.033-1.349-0.03-1.986c0.004-2.39,0.156-4.577,0.305-6.514
			c0.094-1.101,0.201-2.094,0.31-3.022c0.915-0.629,4.569-3.209,5.694-5.052c1.097-1.8,1.994-4.397,1.175-6.472
			c-0.803-2.032-3.126-3.16-5.148-2.115c-2.807,1.451-3.546,7.102-3.081,9.885c0.04,0.24,1.101,3.93,1.149,3.898
			c0,0,0.045-0.03,0.055-0.038c-0.124,0.891-0.245,1.848-0.358,2.896c-0.192,1.937-0.392,4.128-0.448,6.527
			c-0.062,2.397-0.063,5.003,0.185,7.748c0.244,2.752,0.641,5.634,1.435,8.551c0.009,0.033,0.023,0.066,0.032,0.099
			c-0.497-0.781-1.96-2.918-2.091-3.07c-1.846-2.134-6.668-5.172-9.577-3.937c-2.095,0.89-2.709,3.399-1.657,5.313
			c1.075,1.955,3.647,2.921,5.732,3.225c2.352,0.343,7.302-1.093,7.696-1.208c0.781,2.771,1.808,5.551,3.002,8.307
			c0.681,1.576,1.416,3.143,2.172,4.704c-0.452-0.661-0.861-1.249-0.926-1.326c-1.847-2.134-6.668-5.172-9.577-3.937
			c-2.096,0.89-2.709,3.398-1.657,5.313c1.074,1.955,3.647,2.922,5.733,3.226c2.116,0.308,6.361-0.831,7.48-1.147
			c0.297,0.596,0.586,1.194,0.885,1.789c1.433,2.854,2.876,5.696,4.206,8.527c0.469,0.997,0.894,1.997,1.324,2.995
			c-0.402-0.587-0.745-1.078-0.805-1.148c-1.846-2.134-6.668-5.172-9.577-3.937c-2.095,0.89-2.709,3.398-1.657,5.313
			c1.075,1.955,3.647,2.922,5.732,3.225c2.02,0.294,5.947-0.722,7.279-1.091c0.408,1.036,0.82,2.072,1.169,3.094
			c0.223,0.703,0.486,1.365,0.671,2.084c0.197,0.708,0.393,1.409,0.587,2.103c0.324,1.35,0.666,2.741,0.949,4.066
			c0.204,0.92,0.381,1.801,0.562,2.687c-0.455-0.998-1.388-2.934-1.484-3.087c-1.501-2.389-5.807-6.122-8.87-5.342
			c-2.206,0.562-3.193,2.949-2.443,5c0.766,2.095,3.162,3.44,5.177,4.057c2.219,0.678,7.132,0.058,7.745-0.023
			c0.294,1.468,0.567,2.898,0.802,4.253c0.827,4.692,1.338,8.632,1.656,11.39c0.056,0.49,0.104,0.927,0.149,1.34h-9.51l3.473,4.413
			h16.205l3.473-4.413h-8.86c0.066-0.136,0.128-0.263,0.197-0.407c1.216-2.533,2.901-6.173,4.723-10.626
			c0.579-1.406,1.169-2.92,1.76-4.48c0.594,0.124,5.458,1.112,7.725,0.6c2.056-0.465,4.545-1.627,5.466-3.66
			c0.901-1.99,0.095-4.444-2.064-5.168c-2.995-1.006-7.567,2.396-9.243,4.666c-0.099,0.134-1.009,1.707-1.567,2.709
			c0.238-0.639,0.477-1.256,0.714-1.917c0.478-1.303,0.917-2.617,1.394-4.03c0.207-0.69,0.415-1.387,0.625-2.091
			c0.224-0.693,0.372-1.455,0.563-2.188c0.407-1.71,0.737-3.464,1.03-5.237c1.142,0.416,5.219,1.834,7.331,1.686
			c2.102-0.148,4.739-0.92,5.957-2.79c1.192-1.83,0.767-4.378-1.257-5.421c-2.809-1.448-7.843,1.222-9.843,3.212
			c-0.125,0.124-1.399,1.714-2.083,2.6c0.168-1.068,0.341-2.132,0.475-3.218c0.389-3.133,0.685-6.316,0.995-9.491
			c0.094-0.973,0.2-1.94,0.302-2.91c0.405,0.152,5.214,1.943,7.58,1.777c2.102-0.147,4.74-0.92,5.957-2.789
			c1.192-1.83,0.767-4.378-1.257-5.421c-2.808-1.449-7.843,1.221-9.843,3.212c-0.15,0.15-1.981,2.44-2.418,3.045
			c0.226-2.135,0.47-4.26,0.797-6.345c0.446-2.878,1.043-5.677,1.821-8.345c0.188,0.071,5.2,1.963,7.622,1.793
			c2.102-0.148,4.74-0.92,5.957-2.79c1.192-1.83,0.767-4.378-1.257-5.421c-2.809-1.449-7.843,1.221-9.843,3.212
			c-0.157,0.156-2.125,2.621-2.45,3.093c0.047-0.159,0.078-0.328,0.126-0.486c0.868-2.838,2.065-5.479,3.306-7.896
			c0.719-1.406,1.484-2.71,2.258-3.962c0.897,0.448,5.02,2.45,7.217,2.538c2.106,0.084,4.812-0.394,6.227-2.118
			c1.386-1.688,1.243-4.267-0.654-5.527c-2.633-1.748-7.93,0.353-10.136,2.112c-0.12,0.096-1.232,1.203-2.031,2.021
			c0.358-0.56,0.716-1.144,1.07-1.673c1.322-1.991,2.655-3.732,3.848-5.265c0.686-0.866,1.323-1.636,1.926-2.35
			c1.11-0.02,5.581-0.156,7.536-1.073c1.908-0.896,4.089-2.567,4.55-4.75C359.439,222.216,358.124,219.993,355.861,219.75z
			 M321.074,304.16c-1.899,4.37-3.646,7.938-4.902,10.413c-0.254,0.499-0.481,0.941-0.692,1.348h-0.21
			c-0.062-0.483-0.131-1.011-0.212-1.605c-0.383-2.783-0.985-6.749-1.923-11.468c-0.293-1.492-0.636-3.08-1.003-4.708
			c0.369-0.147,2.465-0.994,4.321-2.032c1.617,1.751,5.762,3.801,6.298,4.062C322.187,301.557,321.625,302.901,321.074,304.16z"/>
		<path style="fill:#FFFFFF;" d="M339.306,239.849c0.049,0.031,1.009-3.686,1.042-3.928c0.389-2.795-0.502-8.423-3.347-9.798
			c-2.049-0.99-4.341,0.201-5.088,2.253c-0.763,2.096,0.204,4.668,1.35,6.438C334.607,236.891,339.302,239.847,339.306,239.849z"/>
	</g>
</g>
<g id="Blocks">
	<g>
		
			<rect x="61.529" y="269.475" style="fill:#FFFFFF;stroke:#263238;stroke-linecap:round;stroke-linejoin:round;stroke-miterlimit:10;" width="119.428" height="66.647"/>
		
			<rect x="147.097" y="269.475" style="fill:#263238;stroke:#263238;stroke-linecap:round;stroke-linejoin:round;stroke-miterlimit:10;" width="33.859" height="66.647"/>
		<g>
			
				<rect x="149.868" y="185.918" style="fill:#FFFFFF;stroke:#263238;stroke-linecap:round;stroke-linejoin:round;stroke-miterlimit:10;" width="119.428" height="216.28"/>
			
				<rect x="235.437" y="185.918" style="fill:#263238;stroke:#263238;stroke-linecap:round;stroke-linejoin:round;stroke-miterlimit:10;" width="33.859" height="216.28"/>
		</g>
		
			<rect x="61.529" y="335.73" style="fill:#FFFFFF;stroke:#263238;stroke-linecap:round;stroke-linejoin:round;stroke-miterlimit:10;" width="119.428" height="66.647"/>
		
			<rect x="171.953" y="335.73" style="fill:#263238;stroke:#263238;stroke-linecap:round;stroke-linejoin:round;stroke-miterlimit:10;" width="64.783" height="66.647"/>
		
			<rect x="176.977" y="335.73" style="fill:#FFFFFF;stroke:#263238;stroke-linecap:round;stroke-linejoin:round;stroke-miterlimit:10;" width="96.217" height="66.647"/>
		<g>
			<polygon style="fill:#263238;stroke:#263238;stroke-linecap:round;stroke-linejoin:round;stroke-miterlimit:10;" points="
				277.123,301.225 214.967,219.487 180.936,219.487 180.936,240.799 134.986,301.225 			"/>
			<polygon style="fill:#FFFFFF;stroke:#263238;stroke-linecap:round;stroke-linejoin:round;stroke-miterlimit:10;" points="
				180.936,219.487 118.78,301.225 243.092,301.225 			"/>
		</g>
		<g>
			
				<rect x="229.763" y="301.635" style="fill:#C6FF00;stroke:#263238;stroke-linecap:round;stroke-linejoin:round;stroke-miterlimit:10;" width="119.428" height="100.742"/>
			
				<rect x="303.695" y="301.635" style="fill:#263238;stroke:#263238;stroke-linecap:round;stroke-linejoin:round;stroke-miterlimit:10;" width="45.496" height="100.742"/>
		</g>
		<g>
			
				<rect x="104.399" y="301.635" style="fill:#C6FF00;stroke:#263238;stroke-linecap:round;stroke-linejoin:round;stroke-miterlimit:10;" width="119.428" height="100.742"/>
			
				<rect x="178.331" y="301.635" style="fill:#263238;stroke:#263238;stroke-linecap:round;stroke-linejoin:round;stroke-miterlimit:10;" width="45.496" height="100.742"/>
		</g>
	</g>
</g>
<g id="Character_2">
	<g>
		<g>
			<path style="fill:#FFFFFF;stroke:#263238;stroke-linecap:round;stroke-linejoin:round;stroke-miterlimit:10;" d="
				M364.625,310.057l-30.895-5.026c0,0-1.739-3.852-2.626-4.739c-0.887-0.887-6.08-0.595-6.08-0.595s-1.035,0.591,0.443,1.33
				c1.478,0.739,2.522,0.537,2.818,0.98c0.296,0.443,1.6,5.537,2.783,5.98c1.183,0.443,2.809,0.443,2.809,0.443
				s31.93,12.122,33.556,11.826c1.626-0.296,2.661-4.435,2.661-4.435L364.625,310.057z"/>
			<path style="fill:#FFFFFF;stroke:#263238;stroke-linecap:round;stroke-linejoin:round;stroke-miterlimit:10;" d="
				M330.369,304.581c0,0-2.083-2.573-2.695-2.573s-0.613,0.98-0.122,1.47c0.49,0.49,1.225,1.838,1.838,3.063
				c0.613,1.225,2.941,1.47,2.941,1.47"/>
		</g>
		<path style="fill:#FFFFFF;stroke:#263238;stroke-linecap:round;stroke-linejoin:round;stroke-miterlimit:10;" d="M379.555,298.675
			l-17.591,11.235l6.061,12.713l16.852-10.939C384.877,311.683,387.686,301.483,379.555,298.675z"/>
		<polygon style="fill:#FFFFFF;stroke:#263238;stroke-linecap:round;stroke-linejoin:round;stroke-miterlimit:10;" points="
			372.164,297.788 378.373,298.231 379.999,290.544 373.938,288.623 367.877,290.101 369.06,294.979 		"/>
		<path style="fill:#263238;stroke:#263238;stroke-linecap:round;stroke-linejoin:round;stroke-miterlimit:10;" d="M355.164,293.353
			c0,0-1.626,1.183-4.287,1.478c-2.661,0.296-5.322-2.957-5.322-6.8c0-3.844,9.165-12.27,15.522-13.156
			c6.357-0.887,12.713,10.496,13.6,12.861c0.887,2.365-1.331,3.4-3.104,3.4c-1.774,0-2.661-0.148-3.252-0.148
			s0.591,1.626-1.33,2.513c-1.922,0.887-4.435,0.739-5.617,1.183C360.19,295.127,355.755,294.831,355.164,293.353z"/>
		<path style="fill:#FFFFFF;stroke:#263238;stroke-linecap:round;stroke-linejoin:round;stroke-miterlimit:10;" d="M352.799,290.84
			c0,0,1.478,3.548,3.548,5.913c2.07,2.365,4.139,2.07,4.287,2.661c0.148,0.591,0.591,2.365,1.774,2.809
			c1.183,0.443,2.217-0.443,2.217-0.443s5.174,1.774,6.8,1.183c1.626-0.591,2.217-5.47,1.774-7.096
			c-0.444-1.626-2.365-3.4-2.365-3.4s-0.148-4.878-2.217-5.322c-2.069-0.444-3.991,1.774-3.548,2.956
			c0.443,1.183,0.887,1.922,0.739,2.365c-0.148,0.444-2.809-0.443-3.4-0.887c-0.591-0.443-0.887,1.774-3.104,1.922
			C357.086,293.649,352.799,290.84,352.799,290.84z"/>
		<path style="fill:#FFFFFF;stroke:#263238;stroke-linecap:round;stroke-linejoin:round;stroke-miterlimit:10;" d="M379.259,289.362
			c0,0-3.104,9.904-3.696,11.678c-0.591,1.774,1.183,5.765,1.183,5.765l6.209-16.261L379.259,289.362z"/>
		<g>
			<path style="fill:#263238;stroke:#263238;stroke-linecap:round;stroke-linejoin:round;stroke-miterlimit:10;" d="
				M391.654,333.943l-1.114,6.016c0,0-7.13,11.141-11.363,19.608c-4.234,8.467-2.005,11.363-1.783,12.478
				c0.223,1.114,31.862,23.841,31.862,23.841h5.57l-23.841-27.852l16.265-20.722c0,0,10.027,22.504,12.7,25.178
				c2.674,2.674,26.738,22.059,26.738,22.059l4.902,0.668l-20.944-33.199c0,0-8.69-28.074-12.478-32.754
				c-3.788-4.679-5.348-6.684-5.348-6.684L391.654,333.943z"/>
			
				<polyline style="fill:none;stroke:#FFFFFF;stroke-width:0.5;stroke-linecap:round;stroke-linejoin:round;stroke-miterlimit:10;" points="
				396.617,341.952 407.251,347.312 399.542,346.242 			"/>
			
				<line style="fill:none;stroke:#FFFFFF;stroke-width:0.5;stroke-linecap:round;stroke-linejoin:round;stroke-miterlimit:10;" x1="390.985" y1="368.034" x2="384.136" y2="365.938"/>
			
				<polyline style="fill:none;stroke:#FFFFFF;stroke-width:0.5;stroke-linecap:round;stroke-linejoin:round;stroke-miterlimit:10;" points="
				398.762,335.711 400.712,337.856 399.152,340.781 401.492,341.367 403.247,337.661 402.077,335.711 			"/>
		</g>
		<g>
			<path style="fill:#FFFFFF;stroke:#263238;stroke-linecap:round;stroke-linejoin:round;stroke-miterlimit:10;" d="M381.92,291.875
				c0,0-4.435,11.383-5.026,14.043c-0.591,2.661-0.296,6.209,1.478,10.496c1.774,4.287,8.722,11.53,9.904,13.156
				c1.183,1.626,0.591,3.991,3.104,5.322c2.513,1.331,8.365,0.314,12.379-1.693c3.143-1.571,8.908-7.472,9.056-9.394
				c0.148-1.922-8.278-12.269-12.713-19.513c-4.435-7.243-6.652-10.496-10.643-12.565
				C385.468,289.657,382.955,290.544,381.92,291.875z"/>
			<path style="fill:none;stroke:#263238;stroke-linecap:round;stroke-linejoin:round;stroke-miterlimit:10;" d="M384.687,308.957
				c0,0,11.415-0.248,12.407-0.248"/>
			<path style="fill:none;stroke:#263238;stroke-linecap:round;stroke-linejoin:round;stroke-miterlimit:10;" d="M383.198,310.198
				c0,0,16.13,6.204,21.341,6.452"/>
		</g>
		<g>
			<path style="fill:#FFFFFF;stroke:#263238;stroke-linecap:round;stroke-linejoin:round;stroke-miterlimit:10;" d="
				M365.955,312.127c0,0-36.661-3.548-38.287-3.844c-1.626-0.296-4.453-5.562-4.896-6.153c-0.443-0.591-5.02-2.206-5.759-2.206
				s-3.756,0.486-2.573,1.225c1.183,0.739,3.477,3.11,3.921,3.553c0.443,0.443,2.951,3.432,4.577,4.615
				c1.626,1.183,4.245,1.879,4.245,1.879s39.216,9.947,40.99,9.356c1.774-0.591-1.626-8.574-1.626-8.574L365.955,312.127z"/>
			<path style="fill:#FFFFFF;stroke:#263238;stroke-linecap:round;stroke-linejoin:round;stroke-miterlimit:10;" d="M388.72,294.388
				c0,0-2.661-1.478-5.026,0.739c-2.365,2.217-19.069,16.261-19.069,16.261l4.287,12.27l23.948-18.182c0,0,2.661-3.991,0.443-7.391"
				/>
		</g>
		<path style="fill:#FFFFFF;stroke:#263238;stroke-linecap:round;stroke-linejoin:round;stroke-miterlimit:10;" d="M409.256,395.885
			l-3.788,3.342c0,0-5.348,1.114-5.125,2.674c0.223,1.56,8.467,0.668,10.027,0.668s6.239-1.56,6.907-3.119
			c0.669-1.56-2.451-3.565-2.451-3.565H409.256z"/>
		<path style="fill:#FFFFFF;stroke:#263238;stroke-linecap:round;stroke-linejoin:round;stroke-miterlimit:10;" d="M446.689,394.548
			l-1.783,4.902c0,0-5.125,2.228-4.679,3.565c0.446,1.337,10.918,0.669,11.809-0.446c0.891-1.114-0.446-7.353-0.446-7.353
			L446.689,394.548z"/>
	</g>
</g>
<g id="Character_1">
	<g>
		<path style="fill:#263238;stroke:#263238;stroke-linecap:round;stroke-linejoin:round;stroke-miterlimit:10;" d="M149.106,152.583
			c0,0,1.78,3.879,7.424,4.621c8.723,1.148,15.006-7.295,15.6-14.871c0.594-7.576-0.149-14.706-0.149-18.419
			c0-3.714-1.04-11.438-2.822-13.666c-1.783-2.228-5.645,1.634-8.467,7.576c-2.822,5.942-4.011,9.21-7.279,14.409
			c-3.268,5.199-5.348,8.764-5.645,12.626C147.473,148.721,149.106,152.583,149.106,152.583z"/>
		<path style="fill:#FFFFFF;stroke:#263238;stroke-linecap:round;stroke-linejoin:round;stroke-miterlimit:10;" d="M127.271,209.772
			c0,0-7.576-5.199-8.615-6.387c-1.04-1.188-2.525,0.891-1.634,4.159c0.891,3.268,6.387,9.358,7.873,9.358
			c1.485,0,4.159-5.348,4.159-5.348L127.271,209.772z"/>
		<path style="fill:#FFFFFF;stroke:#263238;stroke-linecap:round;stroke-linejoin:round;stroke-miterlimit:10;" d="M124.746,211.109
			l0.836-2.509c-2.295-1.605-6.201-4.385-6.927-5.215c-1.04-1.188-2.525,0.891-1.634,4.159c0.891,3.268,6.387,9.358,7.873,9.358
			c0.805,0,1.956-1.568,2.844-3.006C126.313,212.675,124.746,211.109,124.746,211.109z"/>
		<path style="fill:#FFFFFF;stroke:#263238;stroke-linecap:round;stroke-linejoin:round;stroke-miterlimit:10;" d="M143.165,177.39
			c0,0-13.072,17.825-15.894,20.35c-2.822,2.525-4.753,4.011-4.753,4.011s-6.536-0.891-9.655-1.783
			c-3.119-0.891-5.496-1.188-4.605,1.337c0.891,2.525,9.952,7.427,12.329,8.17c2.377,0.743,2.525-0.148,3.417-0.891
			c0.891-0.743,4.308-5.199,7.13-7.873c2.822-2.674,10.695-7.279,13.814-13.963c3.119-6.684,3.417-10.695,1.783-10.546
			C145.096,176.35,143.165,177.39,143.165,177.39z"/>
		<path style="fill:#263238;stroke:#263238;stroke-linecap:round;stroke-linejoin:round;stroke-miterlimit:10;" d="M146.73,176.202
			c-1.634,0.148-3.565,1.188-3.565,1.188s-13.072,17.825-15.894,20.35c-1.482,1.326-2.708,2.356-3.548,3.044
			c1.224,0.485,3.229,1.465,4.467,3.036c0.969-1.099,1.99-2.206,2.943-3.109c2.822-2.674,10.695-7.279,13.814-13.963
			C148.067,180.064,148.364,176.053,146.73,176.202z"/>
		<path style="fill:#263238;stroke:#263238;stroke-linecap:round;stroke-linejoin:round;stroke-miterlimit:10;" d="M176.735,169.517
			c0,0-22.876,2.674-27.629,3.714c-4.753,1.04-6.387,2.377-6.833,3.565c-0.446,1.188-15.003,32.976-15.003,32.976
			s0,1.337,1.783,1.783c0,0,13.369-14.409,16.34-17.825c2.971-3.416,5.793-9.507,5.793-9.507s23.024,4.902,31.639,1.337
			c8.615-3.565,9.061-10.844,8.764-12.329C191.292,171.745,176.735,169.517,176.735,169.517z"/>
		<path style="fill:#FFFFFF;stroke:#263238;stroke-linecap:round;stroke-linejoin:round;stroke-miterlimit:10;" d="M171.091,129.708
			c0,0,2.822,4.456,3.416,5.942c0.594,1.485-2.525,9.358-2.08,12.18c0.446,2.822,5.793,9.804,5.793,12.032
			c0,2.228-4.159,10.101-4.159,10.101l17.528,4.308c0,0,1.04-13.369,1.04-21.242s-6.09-18.568-9.507-21.39
			c-3.417-2.822-6.833-6.387-6.833-6.387L171.091,129.708z"/>
		<path style="fill:#FFFFFF;stroke:#263238;stroke-linecap:round;stroke-linejoin:round;stroke-miterlimit:10;" d="M169.966,107.671
			c-2.373-1.457-5.428-0.993-7.455,0.918c-1.363,1.285-2.858,3.137-2.858,5.077c0,3.565,1.634,9.061,5.05,12.775
			c3.416,3.713,7.279,4.753,9.804,3.713c2.525-1.04,3.119-6.239,1.337-12.032c-1.783-5.793-2.971-8.615-5.793-10.398
			C170.023,107.706,169.995,107.688,169.966,107.671z"/>
		<path style="fill:#263238;stroke:#263238;stroke-linecap:round;stroke-linejoin:round;stroke-miterlimit:10;" d="M168.565,111.586
			c0,0,3.714,3.862,5.348,4.605c1.634,0.743,1.783-1.188,1.485-4.456s-4.159-6.536-6.239-6.536
			C167.08,105.199,167.377,108.764,168.565,111.586z"/>
		<g>
			<path style="fill:#263238;stroke:#263238;stroke-linecap:round;stroke-linejoin:round;stroke-miterlimit:10;" d="M169.16,110.249
				c0,0-0.446,5.793-5.199,10.843c-4.753,5.05-12.329,13.814-14.111,18.716c-1.783,4.902-1.634,9.804-0.743,12.775
				c0,0-3.565-4.902-1.188-11.883c2.377-6.982,6.981-14.26,7.279-20.499c0.297-6.239,0.891-13.963,6.239-16.488
				S169.605,105.05,169.16,110.249z"/>
			<path style="fill:none;stroke:#FFFFFF;stroke-width:0.5;stroke-linecap:round;stroke-linejoin:round;stroke-miterlimit:10;" d="
				M167.465,109.983c0,0,1.923,3.244-3.845,9.372c-5.768,6.128-11.054,11.295-11.054,11.295"/>
			<path style="fill:none;stroke:#FFFFFF;stroke-width:0.5;stroke-linecap:round;stroke-linejoin:round;stroke-miterlimit:10;" d="
				M151.169,153.498c0.49,0.455,1.036,0.853,1.637,1.183"/>
			<path style="fill:none;stroke:#FFFFFF;stroke-width:0.5;stroke-linecap:round;stroke-linejoin:round;stroke-miterlimit:10;" d="
				M162.058,125.003c0,0-8.651,8.531-12.016,14.299c-2.463,4.222-2.415,9.088-0.326,12.43"/>
			<path style="fill:none;stroke:#FFFFFF;stroke-width:0.5;stroke-linecap:round;stroke-linejoin:round;stroke-miterlimit:10;" d="
				M156.934,118.534c-0.402,0.115-0.817,0.191-1.245,0.221"/>
			<path style="fill:none;stroke:#FFFFFF;stroke-width:0.5;stroke-linecap:round;stroke-linejoin:round;stroke-miterlimit:10;" d="
				M166.023,106.138c0,0-2.446,8.518-7.267,11.564"/>
		</g>
		<path style="fill:#C6FF00;stroke:#263238;stroke-linecap:round;stroke-linejoin:round;stroke-miterlimit:10;" d="M183.123,131.639
			c-1.344-1.11-2.684-2.333-3.82-3.411c-1.078,1.588-3.107,4.207-5.641,5.758c0.375,0.67,0.689,1.271,0.846,1.664
			c0.594,1.485-2.525,9.358-2.08,12.18c0.446,2.822,5.793,9.804,5.793,12.032s-4.159,10.101-4.159,10.101l17.528,4.308
			c0,0,1.04-13.369,1.04-21.242C192.629,145.156,186.539,134.461,183.123,131.639z"/>
		<path style="fill:#C6FF00;stroke:#263238;stroke-linecap:round;stroke-linejoin:round;stroke-miterlimit:10;" d="M177.775,135.65
			c0,0-3.417,2.08-0.743,7.427c2.674,5.348,9.655,14.854,9.655,14.854s-9.655,7.724-11.586,9.358
			c-1.931,1.634-4.902,2.525-5.348,2.525s-5.05-0.891-5.793-0.743c-0.743,0.148-3.862,1.931-2.971,2.228
			c0.891,0.297,3.714-0.149,3.714-0.149s2.377,1.188,4.456,1.337c2.08,0.149,4.753-1.485,4.753-1.485s20.35-10.101,21.836-11.735
			c1.485-1.634-9.804-22.578-11.141-24.064c-1.337-1.486-3.119-1.634-3.119-1.634"/>
		<path style="fill:#FFFFFF;stroke:#263238;stroke-linecap:round;stroke-linejoin:round;stroke-miterlimit:10;" d="M172.136,169.051
			c-1.157,0.499-2.141,0.763-2.382,0.763c-0.446,0-5.05-0.891-5.793-0.743c-0.743,0.148-3.862,1.931-2.971,2.228
			c0.891,0.297,3.714-0.149,3.714-0.149s2.377,1.188,4.456,1.337c1.547,0.111,3.421-0.764,4.28-1.221L172.136,169.051z"/>
		<path style="fill:#FFFFFF;stroke:#263238;stroke-linecap:round;stroke-linejoin:round;stroke-miterlimit:10;" d="M112.862,199.968
			c-3.119-0.891-5.496-1.188-4.605,1.337c0.891,2.525,9.952,7.427,12.329,8.17c2.377,0.743,2.525-0.149,3.417-0.891
			c0.374-0.312,1.196-1.281,2.229-2.495l-5.2-2.704l1.485-1.634C122.517,201.751,115.982,200.86,112.862,199.968z"/>
		<path style="fill:#263238;stroke:#263238;stroke-linecap:round;stroke-linejoin:round;stroke-miterlimit:10;" d="M122.815,209.475
			c-2.525-1.931-5.05-4.011-9.952-7.279c-2.159-1.44-3.568-2.186-4.47-2.573c-0.356,0.293-0.439,0.82-0.135,1.681
			c0.891,2.525,9.952,7.427,12.329,8.17c1.246,0.389,1.878,0.328,2.327,0.076C122.88,209.526,122.847,209.5,122.815,209.475z"/>
	</g>
</g>
<g id="Ground">
	
		<rect x="48.22" y="401.901" style="fill:#263238;stroke:#263238;stroke-linecap:round;stroke-linejoin:round;stroke-miterlimit:10;" width="419.78" height="4.456"/>
</g>
</svg>
