<?xml version="1.0" encoding="utf-8"?>
<!-- Generator: Adobe Illustrator 27.5.0, SVG Export Plug-In . SVG Version: 6.00 Build 0)  -->
<svg version="1.1" xmlns="http://www.w3.org/2000/svg" xmlns:xlink="http://www.w3.org/1999/xlink" x="0px" y="0px"
	 viewBox="0 0 500 500" style="enable-background:new 0 0 500 500;" xml:space="preserve">
<g id="BACKGROUND">
	<rect style="fill:#FDF5E7;" width="500" height="500"/>
</g>
<g id="OBJECT">
	<path style="fill:#FBECD2;" d="M361.47,118.1L361.47,118.1c-11.482,0-22.441,2.232-32.474,6.278
		c-3.881-44.393-41.141-79.217-86.541-79.217h0c-46.942,0-85.182,37.229-86.82,83.771c-8.231-2.587-16.99-3.984-26.075-3.984h0
		c-47.983,0-86.881,38.898-86.881,86.881v108.163c0,39.305,31.863,71.168,71.168,71.168h102.594v-18.259h58.147v30.712h173.762
		V204.981C448.351,156.998,409.453,118.1,361.47,118.1z"/>
	<g>
		<path style="fill:#A5865C;" d="M93.9,407.442c0,0-21.228,5.349-24.146-5.626c-2.918-10.975,12.342-12.858,12.342-12.858
			s-15.623-8.177-11.979-18.241c3.644-10.064,16.825-7.006,16.825-7.006s-12.599-12.848-3.142-20.536
			c9.457-7.688,19.473,7.702,19.473,7.702s1.233-20.163,10.39-19.906c9.157,0.258,8.76,16.774,8.76,16.774s5.628-11.289,9.857-9.675
			c4.229,1.614,2.159,13.318,2.159,13.318L93.9,407.442z"/>
		<g>
			<path style="fill:#8A6B42;" d="M93.508,340.882c0,0-3.231,10.838,7.434,11.946C104.658,342.77,93.508,340.882,93.508,340.882z"/>
			<path style="fill:#8A6B42;" d="M107.69,342.9c0,0-7.285,3.939-2.337,10.035C112.486,349.652,107.69,342.9,107.69,342.9z"/>
			<path style="fill:#8A6B42;" d="M89.054,354.497c0,0,6.751-4.796,10.035,2.337C92.993,361.782,89.054,354.497,89.054,354.497z"/>
		</g>
		<g>
			<path style="fill:#8A6B42;" d="M127.675,323.695c0,0-10.053,5.181-3.461,13.638C134.04,333.043,127.675,323.695,127.675,323.695z
				"/>
			<path style="fill:#8A6B42;" d="M136.048,335.319c0,0-7.888-2.523-8.854,5.27C134.504,343.455,136.048,335.319,136.048,335.319z"
				/>
			<path style="fill:#8A6B42;" d="M114.773,329.919c0,0,8.136,1.544,5.269,8.854C112.25,337.807,114.773,329.919,114.773,329.919z"
				/>
		</g>
		<g>
			<path style="fill:#8A6B42;" d="M55.9,367.181c0,0,7.238,8.689,14.064,0.421C63.644,358.94,55.9,367.181,55.9,367.181z"/>
			<path style="fill:#8A6B42;" d="M65.43,356.487c0,0-0.752,8.247,7.065,7.5C73.708,356.229,65.43,356.487,65.43,356.487z"/>
			<path style="fill:#8A6B42;" d="M64.774,378.427c0,0-0.257-8.277,7.5-7.065C73.021,379.178,64.774,378.427,64.774,378.427z"/>
		</g>
	</g>
	<g>
		<polygon style="fill:#E07E27;" points="369.083,89.161 309.895,89.161 164.647,201.219 223.835,201.219 		"/>
		<polygon style="fill:#B75C18;" points="338.05,201.22 278.86,201.22 219.32,153.65 189.72,130 189.75,129.98 248.89,129.98 
			248.91,130 		"/>
		<g>
			<polygon style="fill:#DEBF9C;" points="258.146,428.204 84.286,412.204 84.286,184.652 258.146,197.581 			"/>
			<polygon style="fill:#CEA984;" points="251.239,303.873 95.899,413.273 84.286,412.204 84.125,303.135 			"/>
			<polygon style="fill:#CEA984;" points="258.146,224.75 84.286,280.889 84.286,207.794 258.146,197.581 			"/>
			<polygon style="fill:#FFFBF5;" points="351.323,184.652 310.692,156.728 258.146,188.904 258.146,428.204 351.323,409.449 			"/>
			<polygon style="fill:#76524E;" points="316.07,137.03 306.58,145.19 305.35,146.25 292,157.74 290.77,158.79 276.42,171.14 
				275.21,172.18 261.57,183.91 260.37,184.95 250,193.87 61.44,197.9 72.57,190.41 74.13,189.36 90.5,178.35 92.05,177.31 
				108.69,166.11 110.26,165.05 126.82,153.91 128.41,152.84 135.28,148.22 			"/>
			<polygon style="fill:#542C2C;" points="252.891,205.098 61.437,208.159 61.437,197.896 250,193.869 316.073,137.034 
				371.447,202.043 368.137,209.031 316.073,150.658 			"/>
			<polygon style="fill:#76524E;" points="368.137,209.031 351.323,209.031 351.323,204.538 308.58,156.728 316.073,150.658 			"/>
			<polygon style="fill:#542C2C;" points="251.239,292.466 251.239,303.873 227.907,307.181 66.234,302.631 66.234,289.285 
				229.424,293.835 			"/>
			<polyline style="fill:none;stroke:#542C2C;stroke-width:5;stroke-miterlimit:10;" points="66.234,267.251 226.366,269.296 
				250.635,268.273 			"/>
			
				<line style="fill:none;stroke:#542C2C;stroke-width:5;stroke-miterlimit:10;" x1="74.726" y1="267.359" x2="74.726" y2="294.418"/>
			
				<line style="fill:none;stroke:#542C2C;stroke-width:5;stroke-miterlimit:10;" x1="103.649" y1="267.359" x2="103.649" y2="294.418"/>
			<polygon style="fill:#FBECD2;" points="458.005,314.805 437.812,303.135 401.033,339.407 401.033,433.096 458.005,415.092 			"/>
			<polygon style="fill:#DEBF9C;" points="400.764,433.096 274.517,424.612 274.517,333.285 400.764,333.285 			"/>
			<polygon style="fill:#76524E;" points="412.877,274.287 403.275,273.48 403.32,297.815 412.877,293.425 			"/>
			<polygon style="fill:#542C2C;" points="403.275,297.815 382.096,295.746 382.096,273.48 403.275,273.48 			"/>
			
				<line style="fill:none;stroke:#542C2C;stroke-width:5;stroke-miterlimit:10;" x1="132.573" y1="267.359" x2="132.573" y2="294.418"/>
			
				<line style="fill:none;stroke:#542C2C;stroke-width:5;stroke-miterlimit:10;" x1="161.497" y1="267.359" x2="161.497" y2="294.418"/>
			
				<line style="fill:none;stroke:#542C2C;stroke-width:5;stroke-miterlimit:10;" x1="190.421" y1="267.359" x2="190.421" y2="294.418"/>
			
				<line style="fill:none;stroke:#542C2C;stroke-width:5;stroke-miterlimit:10;" x1="219.344" y1="267.359" x2="219.344" y2="294.418"/>
			
				<line style="fill:none;stroke:#542C2C;stroke-width:5;stroke-miterlimit:10;" x1="239.55" y1="267.359" x2="239.55" y2="294.418"/>
			<polygon style="fill:#542C2C;" points="66.234,289.285 84.286,286.069 84.286,289.788 			"/>
			<polygon style="fill:#76524E;" points="276.57,220.75 299.15,220.75 299.15,275.74 276.57,277.08 			"/>
			<polygon style="fill:#9D7165;" points="280.57,224.75 295.15,224.75 295.15,271.971 280.57,272.836 			"/>
			<polygon style="fill:#76524E;" points="340.73,220.75 340.73,273.28 317.93,274.63 317.93,220.75 			"/>
			<polygon style="fill:#9D7165;" points="321.93,224.75 336.73,224.75 336.73,269.51 321.93,270.386 			"/>
			<polygon style="fill:#CEA984;" points="274.517,424.612 402.47,344.357 274.517,336.688 			"/>
			<polygon style="fill:#76524E;" points="443.09,285.25 437.25,291.66 436.37,292.64 426.82,303.13 425.94,304.1 415.73,315.31 
				414.86,316.26 405.08,327.01 404.21,327.97 397.84,334.97 268.05,327.52 273.86,321.67 274.82,320.71 284.92,310.53 
				285.86,309.59 296.12,299.26 297.08,298.3 307.14,288.17 308.11,287.2 313.3,281.97 			"/>
			<polygon style="fill:#542C2C;" points="268.049,327.525 268.049,336.301 402.47,344.357 444.77,297.358 472.024,333.285 
				477.967,327.157 443.093,285.252 397.844,334.967 			"/>
			<polygon style="fill:#76524E;" points="458.005,332.311 472.024,333.285 444.77,297.358 437.836,305.063 			"/>
			<g>
				<polygon style="fill:#542C2C;" points="382.46,366.6 382.46,431.85 377.92,431.57 292.4,426.24 287.86,425.96 287.86,361.18 
									"/>
			</g>
			<g>
				<polygon style="fill:#FBECD2;" points="377.92,371.47 377.92,431.57 292.4,426.24 292.4,366.57 				"/>
			</g>
			
				<line style="fill:none;stroke:#9D7165;stroke-width:0.5;stroke-miterlimit:10;" x1="288.452" y1="372.35" x2="379.7" y2="379.191"/>
			
				<line style="fill:none;stroke:#9D7165;stroke-width:0.5;stroke-miterlimit:10;" x1="287.593" y1="384.319" x2="378.841" y2="391.16"/>
			
				<line style="fill:none;stroke:#9D7165;stroke-width:0.5;stroke-miterlimit:10;" x1="289.734" y1="396.289" x2="380.982" y2="403.13"/>
			
				<line style="fill:none;stroke:#9D7165;stroke-width:0.5;stroke-miterlimit:10;" x1="290.875" y1="408.258" x2="382.124" y2="415.099"/>
			
				<line style="fill:none;stroke:#9D7165;stroke-width:0.5;stroke-miterlimit:10;" x1="290.016" y1="420.227" x2="381.265" y2="427.068"/>
			<polygon style="fill:#76524E;" points="445.53,364.3 445.53,419.02 444.39,419.38 425.38,425.42 425.38,370.7 			"/>
			<polygon style="fill:#DEBF9C;" points="444.39,366.27 444.39,419.38 425.38,425.42 425.38,372.31 			"/>
			<polygon style="fill:#542C2C;" points="186.082,339.531 137.653,337.967 137.653,417.116 186.082,421.68 			"/>
			<g>
				<polygon style="fill:#542C2C;" points="261.57,183.91 260.37,184.95 72.57,190.41 74.13,189.36 				"/>
			</g>
			<g>
				<polygon style="fill:#542C2C;" points="276.42,171.14 275.21,172.18 90.5,178.35 92.05,177.31 				"/>
			</g>
			<g>
				<polygon style="fill:#542C2C;" points="292,157.74 290.77,158.79 108.69,166.11 110.26,165.05 				"/>
			</g>
			<g>
				<polygon style="fill:#542C2C;" points="306.58,145.19 305.35,146.25 126.82,153.91 128.41,152.84 				"/>
			</g>
			<g>
				<polygon style="fill:#542C2C;" points="405.08,327.01 404.21,327.97 273.86,321.67 274.82,320.71 				"/>
			</g>
			<g>
				<polygon style="fill:#542C2C;" points="415.73,315.31 414.86,316.26 284.92,310.53 285.86,309.59 				"/>
			</g>
			<g>
				<polygon style="fill:#542C2C;" points="426.82,303.13 425.94,304.1 296.12,299.26 297.08,298.3 				"/>
			</g>
			<g>
				<polygon style="fill:#542C2C;" points="437.25,291.66 436.37,292.64 307.14,288.17 308.11,287.2 				"/>
			</g>
			<polygon style="fill:#DEBF9C;" points="258.146,212.63 335.786,187.16 308.58,156.728 258.146,200.571 			"/>
			<polygon style="fill:#DEBF9C;" points="452.105,324.34 400.764,366.57 400.72,345.455 402.47,344.357 437.836,305.063 			"/>
			<path style="fill:#DEBF9C;" d="M147.368,378.436c0,1.29-1.046,2.336-2.336,2.336c-1.29,0-2.336-1.046-2.336-2.336
				c0-1.29,1.046-2.336,2.336-2.336C146.322,376.1,147.368,377.145,147.368,378.436z"/>
			<circle style="fill:#542C2C;" cx="441.922" cy="396.638" r="1.586"/>
		</g>
		<polygon style="fill:#E07E27;" points="248.94,129.98 248.91,130 97.69,242.04 38.5,242.04 189.72,130 189.75,129.98 		"/>
	</g>
	<g>
		<g>
			<g>
				<path style="fill:#CADFA1;" d="M184.376,435.659c-1.159,0.532-0.114,1.102,2.343,1.274l-13.512,6.197
					c-2.457-0.172-5.383,0.12-6.542,0.652l-85.803-6.012c1.159-0.532,0.106-1.103-2.351-1.275l13.512-6.197
					c2.457,0.172,5.391-0.12,6.55-0.651L184.376,435.659z M125.963,439.766c7.787,0.546,17.08-0.378,20.753-2.063
					c3.673-1.685,0.338-3.493-7.449-4.039c-7.787-0.546-17.072,0.379-20.745,2.064C114.849,437.412,118.176,439.22,125.963,439.766"
					/>
			</g>
			<g>
				<path style="fill:#CADFA1;" d="M92.12,428.43l101.596,7.119l-20.609,9.453l-101.596-7.119L92.12,428.43z M172.647,444.748
					l19.776-9.07l-99.831-6.995l-19.776,9.07L172.647,444.748"/>
			</g>
			<g>
				<path style="fill:#5EA65F;" d="M89.894,427.592l108.635,7.612L175.34,445.84l-108.635-7.612L89.894,427.592z M173.107,445.001
					l20.609-9.453L92.12,428.43l-20.609,9.452L173.107,445.001"/>
			</g>
			<g>
				<path style="fill:#5EA65F;" d="M139.267,433.664c7.787,0.546,11.122,2.354,7.449,4.039c-3.674,1.685-12.966,2.609-20.753,2.063
					c-7.787-0.546-11.114-2.354-7.441-4.039C122.196,434.042,131.48,433.118,139.267,433.664z"/>
			</g>
			<g>
				<path style="fill:#5EA65F;" d="M192.423,435.677l-19.776,9.07l-99.831-6.995l19.776-9.07L192.423,435.677z M173.208,443.131
					l13.512-6.197c-2.457-0.172-3.502-0.743-2.343-1.274l-85.803-6.012c-1.159,0.532-4.093,0.823-6.55,0.651l-13.512,6.197
					c2.457,0.172,3.51,0.743,2.351,1.275l85.803,6.012C167.824,443.251,170.75,442.959,173.208,443.131"/>
			</g>
			<g>
				<polygon style="fill:#5B9057;" points="198.529,435.204 198.93,449.884 175.741,460.519 175.34,445.84 				"/>
			</g>
			<g>
				<polygon style="fill:#487C45;" points="175.34,445.84 175.741,460.519 67.107,452.907 66.706,438.228 				"/>
			</g>
			<polygon style="fill:#E7CC98;" points="111.099,441.338 136.644,430.868 148.997,431.559 122.191,442.116 			"/>
			<polyline style="fill:none;stroke:#31602D;stroke-width:0.25;stroke-miterlimit:10;" points="66.755,441.04 175.385,448.436 
				198.721,437.819 			"/>
			<polyline style="fill:none;stroke:#31602D;stroke-width:0.25;stroke-miterlimit:10;" points="66.811,444.317 175.442,451.713 
				198.782,441.314 			"/>
			<polyline style="fill:none;stroke:#31602D;stroke-width:0.25;stroke-miterlimit:10;" points="66.868,447.594 175.499,454.99 
				198.833,444.294 			"/>
			<polyline style="fill:none;stroke:#31602D;stroke-width:0.25;stroke-miterlimit:10;" points="66.925,450.872 175.556,458.268 
				198.735,447.11 			"/>
			<polygon style="fill:#D3B079;" points="122.191,442.116 111.099,441.338 111.353,456.008 122.445,456.785 			"/>
		</g>
		<g>
			<g>
				<path style="fill:#CADFA1;" d="M208.839,418.029c-1.159,0.532-0.114,1.102,2.343,1.274l-13.512,6.197
					c-2.457-0.172-5.383,0.12-6.542,0.652l-85.803-6.012c1.159-0.532,0.106-1.103-2.351-1.275l13.512-6.197
					c2.457,0.172,5.391-0.12,6.55-0.651L208.839,418.029z M150.426,422.136c7.787,0.546,17.08-0.378,20.753-2.063
					c3.673-1.685,0.338-3.493-7.449-4.039c-7.787-0.546-17.072,0.379-20.745,2.064C139.312,419.782,142.639,421.59,150.426,422.136"
					/>
			</g>
			<g>
				<path style="fill:#CADFA1;" d="M116.583,410.8l101.596,7.119l-20.609,9.452l-101.596-7.119L116.583,410.8z M197.11,427.118
					l19.776-9.07l-99.831-6.995l-19.776,9.07L197.11,427.118"/>
			</g>
			<g>
				<path style="fill:#5EA65F;" d="M114.357,409.962l108.635,7.612l-23.189,10.636l-108.635-7.612L114.357,409.962z M197.57,427.371
					l20.609-9.452L116.583,410.8l-20.609,9.452L197.57,427.371"/>
			</g>
			<g>
				<path style="fill:#5EA65F;" d="M163.73,416.034c7.787,0.546,11.122,2.354,7.449,4.039c-3.673,1.685-12.966,2.609-20.753,2.063
					c-7.787-0.546-11.114-2.354-7.441-4.039C146.659,416.412,155.944,415.488,163.73,416.034z"/>
			</g>
			<g>
				<path style="fill:#5EA65F;" d="M216.886,418.047l-19.776,9.07l-99.831-6.995l19.776-9.07L216.886,418.047z M197.671,425.501
					l13.512-6.197c-2.457-0.172-3.502-0.743-2.343-1.274l-85.803-6.012c-1.159,0.532-4.093,0.823-6.55,0.651l-13.512,6.197
					c2.457,0.172,3.51,0.743,2.351,1.275l85.803,6.012C192.287,425.621,195.213,425.329,197.671,425.501"/>
			</g>
			<g>
				<polygon style="fill:#5B9057;" points="222.992,417.574 223.393,432.253 200.204,442.889 199.803,428.21 				"/>
			</g>
			<g>
				<polygon style="fill:#487C45;" points="199.803,428.21 200.204,442.889 91.57,435.277 91.169,420.598 				"/>
			</g>
			<polygon style="fill:#E7CC98;" points="135.562,423.708 161.107,413.238 173.46,413.928 146.654,424.485 			"/>
			<polyline style="fill:none;stroke:#31602D;stroke-width:0.25;stroke-miterlimit:10;" points="91.217,423.41 199.848,430.806 
				223.184,420.188 			"/>
			<polyline style="fill:none;stroke:#31602D;stroke-width:0.25;stroke-miterlimit:10;" points="91.274,426.687 199.905,434.083 
				223.245,423.683 			"/>
			<polyline style="fill:none;stroke:#31602D;stroke-width:0.25;stroke-miterlimit:10;" points="91.331,429.964 199.962,437.36 
				223.296,426.664 			"/>
			<polyline style="fill:none;stroke:#31602D;stroke-width:0.25;stroke-miterlimit:10;" points="91.388,433.241 200.019,440.637 
				223.198,429.48 			"/>
			<polygon style="fill:#D3B079;" points="146.654,424.485 135.562,423.708 135.816,438.377 146.908,439.155 			"/>
		</g>
		<g>
			<g>
				<path style="fill:#CADFA1;" d="M185.053,407.595c-1.159,0.532-0.114,1.102,2.343,1.274l-13.512,6.197
					c-2.457-0.172-5.383,0.12-6.542,0.652l-85.803-6.012c1.159-0.532,0.106-1.103-2.351-1.275l13.512-6.197
					c2.457,0.172,5.391-0.12,6.55-0.651L185.053,407.595z M126.64,411.702c7.787,0.546,17.08-0.378,20.753-2.063
					c3.673-1.685,0.338-3.493-7.449-4.039c-7.787-0.546-17.072,0.379-20.745,2.064C115.525,409.348,118.853,411.156,126.64,411.702"
					/>
			</g>
			<g>
				<path style="fill:#CADFA1;" d="M92.796,400.366l101.596,7.119l-20.609,9.452l-101.596-7.119L92.796,400.366z M173.323,416.684
					l19.776-9.07l-99.831-6.995l-19.776,9.07L173.323,416.684"/>
			</g>
			<g>
				<path style="fill:#5EA65F;" d="M90.571,399.528l108.635,7.612l-23.189,10.636l-108.635-7.612L90.571,399.528z M173.784,416.937
					l20.609-9.452l-101.596-7.119l-20.609,9.452L173.784,416.937"/>
			</g>
			<g>
				<path style="fill:#5EA65F;" d="M139.944,405.6c7.787,0.546,11.122,2.354,7.449,4.039c-3.673,1.685-12.966,2.609-20.753,2.063
					c-7.787-0.546-11.114-2.354-7.441-4.038C122.872,405.978,132.157,405.054,139.944,405.6z"/>
			</g>
			<g>
				<path style="fill:#5EA65F;" d="M193.099,407.613l-19.776,9.07l-99.831-6.995l19.776-9.07L193.099,407.613z M173.884,415.067
					l13.512-6.197c-2.457-0.172-3.502-0.743-2.343-1.274l-85.803-6.012c-1.159,0.532-4.093,0.823-6.55,0.651l-13.512,6.197
					c2.457,0.172,3.51,0.743,2.351,1.275l85.803,6.012C168.501,415.187,171.427,414.895,173.884,415.067"/>
			</g>
			<g>
				<polygon style="fill:#5B9057;" points="199.206,407.14 199.606,421.819 176.418,432.455 176.017,417.776 				"/>
			</g>
			<g>
				<polygon style="fill:#487C45;" points="176.017,417.776 176.418,432.455 67.783,424.843 67.382,410.164 				"/>
			</g>
			<polygon style="fill:#E7CC98;" points="111.776,413.274 137.32,402.804 149.673,403.495 122.868,414.051 			"/>
			<polyline style="fill:none;stroke:#31602D;stroke-width:0.25;stroke-miterlimit:10;" points="67.431,412.976 176.062,420.372 
				199.398,409.754 			"/>
			<polyline style="fill:none;stroke:#31602D;stroke-width:0.25;stroke-miterlimit:10;" points="67.488,416.253 176.119,423.649 
				199.458,413.249 			"/>
			<polyline style="fill:none;stroke:#31602D;stroke-width:0.25;stroke-miterlimit:10;" points="67.545,419.53 176.175,426.926 
				199.51,416.23 			"/>
			<polyline style="fill:none;stroke:#31602D;stroke-width:0.25;stroke-miterlimit:10;" points="67.601,422.808 176.232,430.203 
				199.412,419.046 			"/>
			<polygon style="fill:#D3B079;" points="122.868,414.051 111.776,413.274 112.03,427.943 123.121,428.721 			"/>
		</g>
	</g>
	<g>
		<g>
			<g>
				<path style="fill:#FFB82A;" d="M260.61,452.209c-3.276-1.062-7.395-1.772-11.89-1.932c-4.495-0.16-8.654,0.255-11.997,1.082
					l-7.692-0.274l-0.206,5.791c-0.143,4.031,8.532,7.611,19.376,7.996c10.844,0.386,19.752-2.569,19.895-6.6l0.206-5.791
					L260.61,452.209z"/>
				<path style="fill:#FFB82A;" d="M268.302,452.483c-0.143,4.03-9.051,6.985-19.895,6.599c-10.844-0.386-19.519-3.966-19.376-7.996
					c0.143-4.031,9.051-6.985,19.895-6.6C259.771,444.872,268.445,448.453,268.302,452.483z"/>
				<path style="fill:#C15E14;" d="M266.214,452.407c-0.005,0.152-0.024,0.3-0.056,0.447c-0.739,3.372-8.433,5.782-17.722,5.452
					c-9.289-0.33-16.792-3.281-17.29-6.697c-0.022-0.149-0.03-0.297-0.024-0.45c0.128-3.6,8.086-6.239,17.778-5.894
					C258.591,445.61,266.342,448.807,266.214,452.407z"/>
				<path style="fill:#E07E27;" d="M266.157,452.854c-0.739,3.372-8.433,5.782-17.722,5.452c-9.289-0.33-16.792-3.281-17.29-6.697
					c0.735-3.372,8.429-5.787,17.722-5.456C258.161,446.483,265.664,449.439,266.157,452.854z"/>
				<path style="fill:none;stroke:#E07E27;stroke-width:0.3364;stroke-miterlimit:10;" d="M268.302,452.484
					c-0.143,4.031-9.051,6.985-19.895,6.6c-10.844-0.386-19.519-3.966-19.376-7.996"/>
				
					<line style="fill:none;stroke:#E07E27;stroke-width:0.3364;stroke-linecap:round;stroke-linejoin:round;stroke-miterlimit:10;" x1="248.384" y1="459.745" x2="248.229" y2="464.081"/>
				
					<line style="fill:none;stroke:#E07E27;stroke-width:0.3364;stroke-linecap:round;stroke-linejoin:round;stroke-miterlimit:10;" x1="256.664" y1="459.376" x2="256.518" y2="463.464"/>
				
					<line style="fill:none;stroke:#E07E27;stroke-width:0.3364;stroke-linecap:round;stroke-linejoin:round;stroke-miterlimit:10;" x1="264.292" y1="457.623" x2="264.148" y2="461.667"/>
				
					<line style="fill:none;stroke:#E07E27;stroke-width:0.3364;stroke-linecap:round;stroke-linejoin:round;stroke-miterlimit:10;" x1="239.563" y1="458.768" x2="239.418" y2="462.856"/>
				
					<line style="fill:none;stroke:#E07E27;stroke-width:0.3364;stroke-linecap:round;stroke-linejoin:round;stroke-miterlimit:10;" x1="232.095" y1="456.029" x2="231.951" y2="460.073"/>
			</g>
		</g>
		<g>
			<g>
				<path style="fill:#FFB82A;" d="M271.947,445c-3.276-1.062-7.395-1.772-11.89-1.932c-4.495-0.16-8.654,0.255-11.997,1.082
					l-7.692-0.274l-0.206,5.791c-0.143,4.031,8.532,7.611,19.376,7.996s19.752-2.569,19.895-6.599l0.206-5.791L271.947,445z"/>
				<path style="fill:#FFB82A;" d="M279.638,445.274c-0.143,4.03-9.051,6.985-19.895,6.6c-10.844-0.386-19.519-3.966-19.376-7.996
					c0.143-4.031,9.051-6.985,19.895-6.6C271.107,437.663,279.782,441.243,279.638,445.274z"/>
				<path style="fill:#C15E14;" d="M277.55,445.198c-0.005,0.152-0.024,0.3-0.056,0.447c-0.739,3.372-8.433,5.782-17.722,5.452
					c-9.289-0.33-16.792-3.281-17.29-6.697c-0.022-0.149-0.03-0.297-0.024-0.45c0.128-3.6,8.086-6.239,17.778-5.894
					C269.928,438.401,277.678,441.598,277.55,445.198z"/>
				<path style="fill:#E07E27;" d="M277.494,445.645c-0.739,3.372-8.433,5.782-17.722,5.452c-9.289-0.33-16.792-3.281-17.29-6.697
					c0.735-3.372,8.429-5.787,17.722-5.456C269.497,439.274,277,442.229,277.494,445.645z"/>
				<path style="fill:none;stroke:#E07E27;stroke-width:0.3364;stroke-miterlimit:10;" d="M279.638,445.275
					c-0.143,4.031-9.051,6.985-19.895,6.6c-10.844-0.386-19.519-3.966-19.376-7.996"/>
				
					<line style="fill:none;stroke:#E07E27;stroke-width:0.3364;stroke-linecap:round;stroke-linejoin:round;stroke-miterlimit:10;" x1="259.72" y1="452.535" x2="259.566" y2="456.871"/>
				
					<line style="fill:none;stroke:#E07E27;stroke-width:0.3364;stroke-linecap:round;stroke-linejoin:round;stroke-miterlimit:10;" x1="268" y1="452.167" x2="267.855" y2="456.255"/>
				
					<line style="fill:none;stroke:#E07E27;stroke-width:0.3364;stroke-linecap:round;stroke-linejoin:round;stroke-miterlimit:10;" x1="275.628" y1="450.414" x2="275.484" y2="454.458"/>
				
					<line style="fill:none;stroke:#E07E27;stroke-width:0.3364;stroke-linecap:round;stroke-linejoin:round;stroke-miterlimit:10;" x1="250.9" y1="451.559" x2="250.754" y2="455.647"/>
				
					<line style="fill:none;stroke:#E07E27;stroke-width:0.3364;stroke-linecap:round;stroke-linejoin:round;stroke-miterlimit:10;" x1="243.432" y1="448.82" x2="243.288" y2="452.864"/>
			</g>
		</g>
		<g>
			<g>
				<path style="fill:#FFB82A;" d="M259.88,437.329c-3.276-1.062-7.395-1.772-11.89-1.932c-4.495-0.16-8.654,0.255-11.997,1.082
					l-7.692-0.274l-0.206,5.791c-0.143,4.031,8.531,7.611,19.376,7.996c10.844,0.386,19.752-2.569,19.895-6.6l0.206-5.791
					L259.88,437.329z"/>
				<path style="fill:#FFB82A;" d="M267.572,437.603c-0.143,4.031-9.051,6.985-19.895,6.6c-10.844-0.386-19.519-3.966-19.376-7.996
					c0.143-4.03,9.051-6.985,19.895-6.599C259.04,429.992,267.715,433.572,267.572,437.603z"/>
				<path style="fill:#C15E14;" d="M265.483,437.527c-0.005,0.152-0.024,0.3-0.056,0.447c-0.739,3.372-8.433,5.782-17.722,5.452
					c-9.289-0.33-16.792-3.281-17.29-6.697c-0.022-0.149-0.03-0.297-0.024-0.45c0.128-3.6,8.086-6.239,17.778-5.894
					C257.861,430.729,265.611,433.927,265.483,437.527z"/>
				<path style="fill:#E07E27;" d="M265.427,437.974c-0.739,3.372-8.433,5.782-17.722,5.452c-9.289-0.33-16.792-3.281-17.29-6.697
					c0.735-3.372,8.429-5.787,17.722-5.456C257.43,431.603,264.934,434.559,265.427,437.974z"/>
				<path style="fill:none;stroke:#E07E27;stroke-width:0.3364;stroke-miterlimit:10;" d="M267.572,437.604
					c-0.143,4.031-9.051,6.985-19.895,6.6c-10.844-0.386-19.519-3.966-19.376-7.996"/>
				
					<line style="fill:none;stroke:#E07E27;stroke-width:0.3364;stroke-linecap:round;stroke-linejoin:round;stroke-miterlimit:10;" x1="247.653" y1="444.865" x2="247.499" y2="449.2"/>
				
					<line style="fill:none;stroke:#E07E27;stroke-width:0.3364;stroke-linecap:round;stroke-linejoin:round;stroke-miterlimit:10;" x1="255.933" y1="444.496" x2="255.788" y2="448.584"/>
				
					<line style="fill:none;stroke:#E07E27;stroke-width:0.3364;stroke-linecap:round;stroke-linejoin:round;stroke-miterlimit:10;" x1="263.561" y1="442.743" x2="263.417" y2="446.787"/>
				
					<line style="fill:none;stroke:#E07E27;stroke-width:0.3364;stroke-linecap:round;stroke-linejoin:round;stroke-miterlimit:10;" x1="238.833" y1="443.888" x2="238.688" y2="447.976"/>
				
					<line style="fill:none;stroke:#E07E27;stroke-width:0.3364;stroke-linecap:round;stroke-linejoin:round;stroke-miterlimit:10;" x1="231.365" y1="441.149" x2="231.221" y2="445.193"/>
			</g>
		</g>
	</g>
	<g>
		<g>
			<path style="fill:#840303;" d="M437.047,208.52l-22.936-33.518c-1.327-1.939-4.188-1.939-5.515,0L385.66,208.52
				c-1.517,2.218,0.07,5.229,2.758,5.229h2.731c1.846,0,3.342,1.496,3.342,3.342v42.499c0,1.845,1.496,3.341,3.341,3.341h27.044
				c1.846,0,3.341-1.496,3.341-3.341V217.09c0-1.846,1.496-3.342,3.342-3.342h2.731C436.976,213.749,438.564,210.738,437.047,208.52
				z"/>
			<path style="fill:#840303;" d="M383.046,127.924l-13.202-19.293c-0.764-1.116-2.411-1.116-3.175,0l-13.202,19.293
				c-0.874,1.276,0.041,3.01,1.587,3.01h1.572c1.062,0,1.923,0.861,1.923,1.923v24.463c0,1.062,0.861,1.924,1.923,1.924h15.567
				c1.062,0,1.923-0.861,1.923-1.924v-24.463c0-1.062,0.861-1.923,1.923-1.923h1.572
				C383.005,130.934,383.919,129.201,383.046,127.924z"/>
			<path style="fill:#840303;" d="M449.347,97.405l-13.202-19.293c-0.764-1.116-2.411-1.116-3.175,0l-13.202,19.293
				c-0.874,1.276,0.041,3.01,1.587,3.01h1.572c1.062,0,1.923,0.861,1.923,1.923V126.8c0,1.062,0.861,1.924,1.923,1.924h15.567
				c1.062,0,1.923-0.861,1.923-1.924v-24.463c0-1.062,0.861-1.923,1.923-1.923h1.572C449.306,100.414,450.221,98.681,449.347,97.405
				z"/>
			<path style="fill:#C10808;" d="M435.243,207.016l-22.936-33.518c-1.327-1.939-4.188-1.939-5.515,0l-22.936,33.518
				c-1.517,2.218,0.07,5.229,2.758,5.229h2.731c1.845,0,3.342,1.496,3.342,3.342v42.499c0,1.845,1.496,3.341,3.341,3.341h27.044
				c1.845,0,3.341-1.496,3.341-3.341v-42.499c0-1.846,1.496-3.342,3.342-3.342h2.731
				C435.172,212.245,436.76,209.234,435.243,207.016z"/>
			<path style="fill:#C10808;" d="M381.241,126.421l-13.202-19.293c-0.764-1.116-2.411-1.116-3.175,0l-13.202,19.293
				c-0.874,1.277,0.041,3.01,1.587,3.01h1.572c1.062,0,1.923,0.861,1.923,1.923v24.463c0,1.062,0.861,1.923,1.923,1.923h15.567
				c1.062,0,1.923-0.861,1.923-1.923v-24.463c0-1.062,0.861-1.923,1.923-1.923h1.572
				C381.201,129.43,382.115,127.697,381.241,126.421z"/>
			<path style="fill:#C10808;" d="M447.543,95.901l-13.202-19.293c-0.764-1.116-2.411-1.116-3.175,0l-13.202,19.293
				c-0.873,1.277,0.041,3.01,1.587,3.01h1.572c1.062,0,1.924,0.861,1.924,1.924v24.463c0,1.062,0.861,1.923,1.923,1.923h15.567
				c1.062,0,1.923-0.861,1.923-1.923v-24.463c0-1.062,0.861-1.924,1.923-1.924h1.572C447.502,98.911,448.416,97.178,447.543,95.901z
				"/>
		</g>
		<g>
			<g>
				<polygon style="fill:#840303;" points="160.938,88.783 159.264,90.187 108.009,133.089 92.702,132.683 93.816,131.75 
					145.631,88.378 				"/>
				<path style="fill:#840303;" d="M125.394,89.461c-0.649-2.132-1.838-4.04-3.417-5.543c-2.217-2.117-5.191-3.449-8.494-3.536
					c-7.071-0.187-12.961,5.392-13.148,12.47c-0.052,1.963,0.339,3.837,1.094,5.519c0.505,1.14,1.17,2.197,1.969,3.131
					c2.271,2.667,5.625,4.392,9.406,4.492c7.071,0.187,12.954-5.393,13.141-12.464C125.984,92.114,125.788,90.743,125.394,89.461z
					 M119.385,91.713c0.125,0.526,0.186,1.081,0.171,1.648c-0.094,3.536-3.039,6.335-6.58,6.241
					c-2.007-0.053-3.769-1.025-4.901-2.497l-0.006-0.006c-0.238-0.302-0.449-0.629-0.623-0.973
					c-0.479-0.926-0.741-1.984-0.711-3.104c0.094-3.542,3.039-6.341,6.581-6.247c1.523,0.04,2.911,0.606,3.982,1.528
					C118.319,89.173,119.062,90.357,119.385,91.713z"/>
				<path style="fill:#840303;" d="M154.728,121.69c-0.006-0.013-0.012-0.025-0.018-0.038c-0.649-2.12-1.839-4.009-3.412-5.492
					c-2.21-2.111-5.185-3.436-8.475-3.523c-7.071-0.187-12.96,5.392-13.148,12.47c-0.052,1.969,0.345,3.85,1.1,5.538
					c0.499,1.121,1.152,2.158,1.939,3.086c2.277,2.679,5.637,4.418,9.431,4.518c7.071,0.187,12.954-5.393,13.141-12.464
					C155.325,124.362,155.128,122.985,154.728,121.69z M148.725,123.955c0.124,0.532,0.185,1.088,0.17,1.66
					c-0.094,3.536-3.039,6.335-6.58,6.241c-2.001-0.053-3.757-1.012-4.895-2.484c0,0,0-0.006-0.006-0.007
					c-0.237-0.302-0.449-0.635-0.629-0.98c-0.479-0.926-0.74-1.99-0.711-3.11c0.094-3.542,3.039-6.341,6.581-6.247
					c1.529,0.041,2.911,0.612,3.989,1.535C147.665,121.434,148.408,122.612,148.725,123.955z"/>
			</g>
			<g>
				<polygon style="fill:#C10808;" points="158.887,88.729 158.327,89.199 107.072,132.1 93.816,131.75 145.631,88.378 				"/>
				<path style="fill:#C10808;" d="M124.456,88.473c-0.509-1.694-1.362-3.241-2.479-4.555c-2.217-2.117-5.191-3.449-8.494-3.536
					c-7.071-0.187-12.961,5.392-13.148,12.47c-0.052,1.963,0.339,3.837,1.094,5.519c0.505,1.14,1.17,2.197,1.969,3.131
					c2.211,2.098,5.179,3.417,8.469,3.504c7.071,0.187,12.954-5.392,13.141-12.464C125.047,91.126,124.851,89.755,124.456,88.473z
					 M112.975,99.601c-2.007-0.053-3.769-1.025-4.901-2.497l-0.006-0.006c-0.64-0.546-1.17-1.215-1.56-1.962
					c-0.479-0.925-0.741-1.984-0.711-3.104c0.094-3.542,3.039-6.341,6.581-6.247c2.013,0.053,3.788,1.032,4.92,2.516
					c1.022,0.871,1.765,2.055,2.088,3.411c0.125,0.526,0.186,1.081,0.171,1.648C119.461,96.896,116.517,99.695,112.975,99.601z"/>
				<path style="fill:#C10808;" d="M153.791,120.702c-0.006-0.013-0.012-0.025-0.018-0.038c-0.516-1.669-1.363-3.196-2.475-4.504
					c-2.21-2.111-5.185-3.436-8.475-3.523c-7.071-0.187-12.96,5.392-13.148,12.47c-0.052,1.969,0.345,3.85,1.1,5.538
					c0.499,1.121,1.152,2.158,1.939,3.086c2.211,2.111,5.191,3.443,8.494,3.53c7.071,0.187,12.954-5.392,13.142-12.464
					C154.388,123.374,154.191,121.997,153.791,120.702z M142.315,131.856c-2.001-0.053-3.757-1.012-4.895-2.484
					c0,0,0-0.006-0.006-0.007c-0.64-0.546-1.177-1.215-1.566-1.968c-0.479-0.925-0.741-1.99-0.711-3.11
					c0.094-3.542,3.039-6.341,6.581-6.247c2.02,0.053,3.794,1.032,4.926,2.523c1.022,0.871,1.765,2.049,2.082,3.392
					c0.124,0.532,0.185,1.088,0.17,1.66C148.802,129.151,145.857,131.95,142.315,131.856z"/>
			</g>
		</g>
	</g>
	<g>
		<path style="fill:#A5865C;" d="M352.684,457.998c0,0-16.774-14.067-9.591-22.863c7.183-8.796,17.652,2.465,17.652,2.465
			s-2.529-17.451,7.761-20.396c10.29-2.945,15.536,9.528,15.536,9.528s3.027-17.738,14.799-14.58
			c11.772,3.158,5.17,20.292,5.17,20.292s17.061-10.817,22.218-3.246s-8.459,16.928-8.459,16.928s12.446-2.055,13.616,2.318
			c1.17,4.373-9.526,9.554-9.526,9.554H352.684z"/>
		<g>
			<path style="fill:#8A6B42;" d="M406.388,418.676c0,0-10.675,3.733-5.324,13.024C411.392,428.817,406.388,418.676,406.388,418.676
				z"/>
			<path style="fill:#8A6B42;" d="M413.063,431.35c0,0-7.46-3.595-9.501,3.987C410.403,439.193,413.063,431.35,413.063,431.35z"/>
			<path style="fill:#8A6B42;" d="M392.745,423.045c0,0,7.842,2.66,3.987,9.501C389.151,430.505,392.745,423.045,392.745,423.045z"
				/>
		</g>
		<g>
			<path style="fill:#8A6B42;" d="M440.337,436.289c0,0-10.089-5.11-13.079,5.187C436.492,446.925,440.337,436.289,440.337,436.289z
				"/>
			<path style="fill:#8A6B42;" d="M435.824,449.886c0,0-2.578-7.87-9.458-4.086C428.327,453.402,435.824,449.886,435.824,449.886z"
				/>
			<path style="fill:#8A6B42;" d="M427.732,429.482c0,0,3.516,7.498-4.087,9.458C419.863,432.06,427.732,429.482,427.732,429.482z"
				/>
		</g>
		<g>
			<path style="fill:#8A6B42;" d="M363.038,403.613c0,0-2.8,10.957,7.901,11.643C374.254,405.059,363.038,403.613,363.038,403.613z"
				/>
			<path style="fill:#8A6B42;" d="M377.289,405.069c0,0-7.123,4.224-1.938,10.12C382.348,411.625,377.289,405.069,377.289,405.069z"
				/>
			<path style="fill:#8A6B42;" d="M359.127,417.394c0,0,6.556-5.059,10.12,1.938C363.351,424.517,359.127,417.394,359.127,417.394z"
				/>
		</g>
	</g>
	<g>
		<path style="fill:#FFFFFF;" d="M212.143,75.615H316.07l-31.643-4.345c0,0-2.686-12.209-13.675-12.209
			c-10.989,0-14.839,8.277-14.839,8.277s-2.008-15.359-14.219-14.138c-12.211,1.221-14.275,13.919-14.275,13.919
			s-6.249-8.302-15.279-6.349c-9.03,1.953-10.856,10.5-10.856,10.5l-16,4.345H212.143z"/>
		<path style="fill:#FFFFFF;" d="M408.754,156.552h64.725l-19.707-2.706c0,0-1.673-7.604-8.517-7.604
			c-6.844,0-9.241,5.155-9.241,5.155s-1.251-9.565-8.855-8.805c-7.605,0.76-8.89,8.669-8.89,8.669s-3.892-5.171-9.516-3.954
			c-5.624,1.217-6.761,6.54-6.761,6.54l-9.965,2.706H408.754z"/>
	</g>
</g>
</svg>
