<?xml version="1.0" encoding="utf-8"?>
<!-- Generator: Adobe Illustrator 27.5.0, SVG Export Plug-In . SVG Version: 6.00 Build 0)  -->
<svg version="1.1" id="Layer_3" xmlns="http://www.w3.org/2000/svg" xmlns:xlink="http://www.w3.org/1999/xlink" x="0px" y="0px"
	 viewBox="0 0 2400 2000" style="enable-background:new 0 0 2400 2000;" xml:space="preserve">
<g>
	<rect x="0" style="fill:#FFFFFF;" width="2400" height="2000"/>
	<g style="opacity:0.15;">
		
			<radialGradient id="SVGID_1_" cx="1179.8219" cy="1019.9998" r="894.4116" gradientTransform="matrix(0.9953 0 0 1 5.7233 0)" gradientUnits="userSpaceOnUse">
			<stop  offset="0" style="stop-color:#4F1CBA"/>
			<stop  offset="0.0354" style="stop-color:#4E27BD"/>
			<stop  offset="0.1706" style="stop-color:#4B4CC7"/>
			<stop  offset="0.3123" style="stop-color:#486BCF"/>
			<stop  offset="0.46" style="stop-color:#4683D5"/>
			<stop  offset="0.6163" style="stop-color:#4594D9"/>
			<stop  offset="0.7873" style="stop-color:#449EDC"/>
			<stop  offset="1" style="stop-color:#44A1DC"/>
		</radialGradient>
		<path style="fill:url(#SVGID_1_);" d="M1773.469,645.129c0,0-54.039-52.596-312.234-333.102
			c-258.196-280.504-546.412,0-615.465,75.971c-69.051,75.971-198.149,219.145-393.295,429.525
			c-195.148,210.375-261.102,402.121-201.057,551.137c60.045,149.019,277.295,219.137,489.273,164.738
			c232.133-59.574,447.409-68.124,627.473,151.938c227.281,277.77,633.906,197.551,738.984-191.066
			C2212.231,1105.652,1929.59,817.523,1773.469,645.129z"/>
	</g>
	<g style="opacity:0.15;">
		
			<radialGradient id="SVGID_00000011028062770293438920000018052251812109790359_" cx="1059.9551" cy="1155.7367" r="781.4201" gradientTransform="matrix(0.9976 0 0 1.006 2.5885 -2.6704)" gradientUnits="userSpaceOnUse">
			<stop  offset="0" style="stop-color:#4F1CBA"/>
			<stop  offset="0.0354" style="stop-color:#4E27BD"/>
			<stop  offset="0.1706" style="stop-color:#4B4CC7"/>
			<stop  offset="0.3123" style="stop-color:#486BCF"/>
			<stop  offset="0.46" style="stop-color:#4683D5"/>
			<stop  offset="0.6163" style="stop-color:#4594D9"/>
			<stop  offset="0.7873" style="stop-color:#449EDC"/>
			<stop  offset="1" style="stop-color:#44A1DC"/>
		</radialGradient>
		<path style="fill:url(#SVGID_00000011028062770293438920000018052251812109790359_);" d="M1874.082,907.555
			c-71.52-238.52-289.227-350.231-481.519-281.924c-122.399,43.476-278.325,60.096-514.145-92.117
			C625.287,370.131,218.549,388.248,220.004,853.209c1.852,592.15,270.781,809.091,430.414,910.115
			c341.413,216.063,819.738,104.981,1016.391-113.035C1859.875,1436.242,1947.774,1153.312,1874.082,907.555z"/>
	</g>
	<g style="opacity:0.15;">
		
			<radialGradient id="SVGID_00000174569689059604358320000006296742530389972361_" cx="1140.1481" cy="921.6709" r="824.1085" gradientTransform="matrix(1.0067 0 0 0.9975 -7.7872 0.6326)" gradientUnits="userSpaceOnUse">
			<stop  offset="0" style="stop-color:#4F1CBA"/>
			<stop  offset="0.0354" style="stop-color:#4E27BD"/>
			<stop  offset="0.1706" style="stop-color:#4B4CC7"/>
			<stop  offset="0.3123" style="stop-color:#486BCF"/>
			<stop  offset="0.46" style="stop-color:#4683D5"/>
			<stop  offset="0.6163" style="stop-color:#4594D9"/>
			<stop  offset="0.7873" style="stop-color:#449EDC"/>
			<stop  offset="1" style="stop-color:#44A1DC"/>
		</radialGradient>
		<path style="fill:url(#SVGID_00000174569689059604358320000006296742530389972361_);" d="M1954.047,245.498
			c-76.675-110.695-276.632-162.771-469.289-12.041C1267.976,403.062,962.18,487.039,688.776,531.086
			c-281.471,45.348-414.932,253.242-418.674,382.135c-4.103,141.318,116.103,317.584,471.846,533.014
			c355.744,215.426,603.541,275.047,815.951,247.473c212.41-27.574,351.316-153.176,420.563-362.336
			c48.414-146.246,21.316-321.574,9.988-556.057C1974.301,482.494,2064.93,405.584,1954.047,245.498z"/>
	</g>
	<rect x="0" style="opacity:0.25;fill:#EEB5F3;" width="2400" height="2000"/>
</g>
<g>
	<g>
		<g>
			<g>
				<g>
					<path style="fill:#585E8C;" d="M1758.828,1268.909c249.946,60.458-249.189,110.371-571.875,125.385
						c-327.846,15.254-298.949-59.689-460.504-33.651c-92.182,14.857-228.805-52.669-100.898-100.982
						c57.373-21.671,217.961-19.891,542.096-17.599C1491.783,1244.356,1675.793,1248.824,1758.828,1268.909z"/>
				</g>
			</g>
			<g>
				<g>
					<path style="fill:#585E8C;" d="M840.737,1399.99c0,0-27.966-39.379-44.634-31.747c-16.667,7.632,11.451,25.484-10.113,20.596
						c-21.563-4.889-34.291-6.27-36.566,2.325c-2.276,8.595-52.806-11.568-70.662,7.681L840.737,1399.99z"/>
				</g>
			</g>
		</g>
	</g>
	<g>
		<g>
			<path style="fill:#BADEF1;" d="M1100.292,1200.876c0,0-22.765-51.776-22.357-62.556c0,0-34.197,2.539-68.403,5.487l24.781,59.158
				L1100.292,1200.876z"/>
			<path style="fill:#BADEF1;" d="M1126.499,1213.459c0,0,22.765-51.776,22.357-62.556c0,0,34.197,2.539,68.403,5.487
				l-24.781,59.158L1126.499,1213.459z"/>
			<g>
				
					<rect x="1013.066" y="1169.404" transform="matrix(-1 -1.224647e-16 1.224647e-16 -1 2235.6223 2478.6304)" style="fill:#E7A769;" width="209.49" height="139.822"/>
				
					<rect x="1013.066" y="1169.404" transform="matrix(-1 -1.224647e-16 1.224647e-16 -1 2096.9543 2478.6304)" style="fill:#BD7957;" width="70.822" height="139.822"/>
			</g>
			
				<rect x="1019.558" y="1194.239" transform="matrix(-1 -1.224647e-16 1.224647e-16 -1 2093.8542 2395.1152)" style="opacity:0.3;fill:#BD7957;" width="54.738" height="6.636"/>
		</g>
		<rect x="829.83" y="518.314" style="fill:#D5E4ED;" width="92.875" height="92.875"/>
		<rect x="729.519" y="518.314" style="fill:#D5E4ED;" width="92.875" height="92.875"/>
		<rect x="930.143" y="518.314" style="fill:#D5E4ED;" width="92.875" height="92.875"/>
		<rect x="1030.454" y="518.314" style="fill:#D5E4ED;" width="92.875" height="92.875"/>
		<rect x="729.519" y="619.027" style="fill:#D5E4ED;" width="92.875" height="92.875"/>
		<rect x="829.83" y="619.027" style="fill:#D5E4ED;" width="92.875" height="92.875"/>
		<rect x="930.143" y="619.027" style="fill:#D5E4ED;" width="92.875" height="92.875"/>
		<rect x="1030.454" y="619.027" style="fill:#D5E4ED;" width="92.875" height="92.875"/>
		<rect x="729.519" y="719.74" style="fill:#D5E4ED;" width="92.875" height="92.875"/>
		<rect x="829.83" y="719.74" style="fill:#D5E4ED;" width="92.875" height="92.875"/>
		<rect x="930.143" y="719.74" style="fill:#D5E4ED;" width="92.875" height="92.875"/>
		<rect x="1030.454" y="719.74" style="fill:#D5E4ED;" width="92.875" height="92.875"/>
		<rect x="729.519" y="452.874" style="fill:#6A91A7;" width="393.811" height="58.391"/>
		<rect x="1037.926" y="727.211" style="fill:#C84F54;" width="77.931" height="77.931"/>
		<polygon style="fill:#6A91A7;" points="1026.197,527.239 1023.445,523.845 974.839,563.268 946.636,513.725 942.837,515.888 
			971.398,566.058 930.729,599.044 933.482,602.439 973.59,569.908 1002.186,620.141 1005.984,617.978 977.031,567.117 		"/>
		<polygon style="fill:#6A91A7;" points="819.416,618.813 815.936,616.169 778.076,666.002 738.921,624.57 735.744,627.572 
			775.396,669.53 743.719,711.226 747.199,713.87 778.439,672.749 818.141,714.759 821.318,711.757 781.119,669.222 		"/>
		<polygon style="fill:#6A91A7;" points="928.651,719.526 925.171,716.882 887.312,766.715 848.156,725.282 844.979,728.285 
			884.632,770.243 852.954,811.939 856.434,814.583 887.674,773.462 927.377,815.472 930.553,812.47 890.354,769.934 		"/>
		<rect x="734.7" y="734.08" style="fill:#4F6FC8;" width="67.806" height="64.051"/>
		<rect x="1076.892" y="538.688" style="fill:#D5A86A;" width="67.806" height="64.051"/>
		<rect x="842.956" y="538.688" style="fill:#2F3658;" width="55.183" height="52.127"/>
		<rect x="955.212" y="627.477" style="fill:#D5A86A;" width="67.806" height="64.051"/>
		<rect x="946.434" y="654.707" style="fill:#2F3658;" width="55.183" height="52.127"/>
		<g>
			<g>
				<path style="fill:#C84F54;" d="M1129.048,818.333h-104.313V714.021h104.313V818.333z M1026.649,816.42h100.487V715.934h-100.487
					V816.42z"/>
			</g>
		</g>
		<path style="fill:#262C43;" d="M1187.316,853.309l-24.101,120.508H963.713c-4.267,0-7.725-3.459-7.725-7.726l0,0
			c0-4.267,3.459-7.725,7.725-7.725h82.558l21.666-106.595c0.615-3.025,3.275-5.198,6.361-5.198h107.495
			C1185.348,846.572,1188.013,849.823,1187.316,853.309z"/>
		<path style="fill:#333A4F;" d="M1054.106,958.365h105.389c1.61,0,2.999-1.106,3.328-2.649l21.319-99.995
			c0.441-2.068-1.171-4.01-3.329-4.01h-106.243c-1.62,0-3.016,1.12-3.334,2.675l-20.465,99.995
			C1050.35,956.442,1051.959,958.365,1054.106,958.365z"/>
		
			<rect x="738.296" y="1301.515" transform="matrix(-1 -1.224647e-16 1.224647e-16 -1 1586.5076 2609.1155)" style="fill:#1D2341;" width="109.916" height="6.086"/>
		<path style="fill:#1D2341;" d="M710.092,1301.515c0,9.978,8.088,18.066,18.066,18.066c9.978,0,18.067-8.088,18.067-18.066
			s-8.089-18.066-18.067-18.066C718.18,1283.449,710.092,1291.537,710.092,1301.515z"/>
		
			<ellipse transform="matrix(0.7071 -0.7071 0.7071 0.7071 -707.0374 896.0906)" style="fill:#C5CDD6;" cx="728.158" cy="1301.515" rx="13.83" ry="13.83"/>
		<path style="fill:#1D2341;" d="M833.831,1301.515c0,9.978,8.089,18.066,18.067,18.066c9.978,0,18.066-8.088,18.066-18.066
			s-8.088-18.066-18.066-18.066C841.919,1283.449,833.831,1291.537,833.831,1301.515z"/>
		<path style="fill:#C5CDD6;" d="M838.067,1301.515c0,7.638,6.192,13.83,13.83,13.83c7.638,0,13.83-6.192,13.83-13.83
			c0-7.638-6.192-13.83-13.83-13.83C844.259,1287.685,838.067,1293.877,838.067,1301.515z"/>
		<path style="fill:#E8B4B6;" d="M964.995,1257.605c0,0-0.143,12.633,3.086,16.939c3.23,4.307,7.823,20.097,7.823,20.097
			l-35.314-1.722l-12.922-13.499c0,0,4.309-11.766,1.15-25.26C925.662,1240.666,964.995,1257.605,964.995,1257.605z"/>
		<path style="fill:#E8B4B6;" d="M876.679,1212.65c0,0-9.033,8.832-9.795,14.161c-0.762,5.329-8.679,19.742-8.679,19.742
			l-23.752-26.189l0.409-18.682c0,0,11.366-5.273,18.674-17.048C860.844,1172.86,876.679,1212.65,876.679,1212.65z"/>
		<path style="fill:#240401;" d="M826.339,1246.158c-0.891,0.861-0.914,2.282-0.052,3.172l51.861,53.557
			c0.801,0.826,2.068,0.898,2.831,0.16l1.584-1.532l1.826-2.192l-53.095-54.839c-0.862-0.89-2.281-0.913-3.171-0.052
			L826.339,1246.158z"/>
		<path style="fill:#192D3D;" d="M841.577,1200.676l19.768,20.045c1.767,1.791,4.517,2.133,6.602,0.82l2.416-1.521l4.883,6.252
			c1.98,2.535,1.766,6.113-0.496,8.301l-5.351,5.176l0.901,7.747c1.017,8.749,4.73,17.023,10.623,23.67l6.15,6.938
			c1.853,2.09,2.809,4.816,2.657,7.57l-0.073,1.314c-0.289,5.216-2.508,10.096-6.227,13.692l-0.864,0.836l-50.109-51.746
			c-1.703-1.758-2.879-3.955-3.39-6.332l-2.591-11.372l-5.772,5.584l-14.02-14.477l23.522-22.752
			C833.355,1197.37,838.43,1197.486,841.577,1200.676z"/>
		<path style="opacity:0.4;fill:#875A3B;" d="M836.956,1198.311c-2.395-0.371-4.904,0.32-6.753,2.108l-23.522,22.752l14.019,14.477
			l5.772-5.584l2.591,11.372c0.511,2.377,1.687,4.574,3.39,6.332l50.109,51.746l0.864-0.836c2.769-2.677,4.704-6.067,5.633-9.776
			C849.49,1252.291,839.471,1215.567,836.956,1198.311z"/>
		<path style="fill:#FFFFFF;" d="M752.004,791.709c2.24,4.802,6.365,8.13,11.133,8.318c4.859,0.192,9.126-2.923,11.438-7.696
			L752.004,791.709z"/>
		<polygon style="fill:#142632;" points="923.993,1080.417 841.629,1195.078 873.663,1217.887 946.024,1134.964 		"/>
		<path style="fill:#1D2341;" d="M666.627,1087.479l21.034-70.011l-12.037-33.825c-0.737-2.072,0.345-4.35,2.417-5.088l4.02-1.431
			c2.073-0.737,4.351,0.345,5.088,2.417l12.221,34.34l0.977,0.294l-0.399,1.329l14.394,40.448c0.738,2.072-0.344,4.35-2.417,5.087
			l-4.02,1.431c-2.072,0.738-4.35-0.345-5.088-2.417l-8.812-24.764l-16.648,55.412c-1.941,6.463-0.868,13.361,2.946,18.928
			c3.813,5.567,9.859,9.06,16.586,9.584l38.345,2.987c0.26-0.053,0.529-0.081,0.805-0.081h124.609c2.2,0,3.983,1.783,3.983,3.983
			v4.268c0,2.199-1.783,3.982-3.983,3.982h-62.305v170.22h-10.526v-170.22h-51.778c-0.269,0-0.532-0.027-0.786-0.078l-39.233-3.893
			c-10.123-0.789-19.22-6.045-24.958-14.422C665.321,1107.584,663.706,1097.203,666.627,1087.479z"/>
		<path style="fill:#C84F54;" d="M703.361,1124.965h149.929v-9.064c0-5.05-4.094-9.144-9.144-9.144H712.505
			c-5.05,0-9.144,4.094-9.144,9.144V1124.965z"/>
		<path style="fill:#C84F54;" d="M673.802,898.652l26.999,183.614l8.968-1.319c4.996-0.734,8.451-5.38,7.716-10.377L693.146,905.05
			c-0.735-4.996-5.38-8.451-10.376-7.716L673.802,898.652z"/>
		<path style="fill:#192D3D;" d="M727.172,1060.863L727.172,1060.863c0,19.027,11.799,36.128,29.66,42.687
			c6.903,2.535,14.026,3.969,20.482,4.015l143.087,1.01l7.486,147.785l39.082,3.305l9.341-160.719
			c0.821-14.128-5.128-27.804-16.023-36.836l0,0c-5.711-4.734-12.514-7.965-19.792-9.4l-129.223-30.998l-64.717,15.845
			L727.172,1060.863z"/>
		<polygon style="fill:#7A3229;" points="1350.46,972.462 1393.24,1339.255 1386.486,1339.255 1327.193,982.435 		"/>
		<polygon style="fill:#7A3229;" points="946.865,972.462 904.084,1339.255 910.839,1339.255 970.132,982.435 		"/>
		<path style="fill:#B7584A;" d="M937.797,983.576h421.732c0.38,0,0.688-0.308,0.688-0.688v-9.839c0-0.38-0.308-0.689-0.689-0.689
			H937.797c-0.38,0-0.688,0.308-0.688,0.688v9.84C937.108,983.268,937.417,983.576,937.797,983.576z"/>
		<path style="fill:#7A3229;" d="M937.797,1062.544h415.205c0.38,0,0.688-0.308,0.688-0.688v-9.84c0-0.38-0.308-0.688-0.688-0.688
			H937.797c-0.38,0-0.688,0.308-0.688,0.688v9.84C937.108,1062.236,937.417,1062.544,937.797,1062.544z"/>
		<path style="fill:#240401;" d="M953.093,1316.894c-0.021,1.239,0.967,2.26,2.206,2.28l74.542,1.199
			c1.15,0.018,2.097-0.827,2.114-1.888l0.037-2.203l-0.259-2.842l-76.321-1.233c-1.238-0.02-2.258,0.967-2.278,2.205
			L953.093,1316.894z"/>
		<path style="fill:#192D3D;" d="M931.707,1273.96l28.152,0.196c2.516,0.017,4.702-1.686,5.248-4.089l0.632-2.783l7.874,0.968
			c3.193,0.393,5.571,3.074,5.519,6.221l-0.124,7.444l6.114,4.84c6.906,5.467,15.382,8.692,24.249,9.226l9.255,0.557
			c2.788,0.168,5.391,1.419,7.231,3.474l0.877,0.98c3.484,3.893,5.365,8.912,5.279,14.085l-0.02,1.202l-72.023-1.158
			c-2.447-0.039-4.832-0.761-6.874-2.081l-9.873-6.209l-0.133,8.03l-20.151-0.324l0.544-32.721
			C923.555,1277.435,927.225,1273.929,931.707,1273.96z"/>
		<path style="opacity:0.4;fill:#875A3B;" d="M926.767,1275.554c-1.956,1.431-3.242,3.694-3.285,6.265l-0.544,32.721l20.151,0.324
			l0.133-8.03l9.873,6.209c2.042,1.32,4.428,2.042,6.874,2.081l72.023,1.158l0.02-1.202c0.064-3.851-0.964-7.616-2.93-10.896
			C973.799,1304.861,940.747,1285.978,926.767,1275.554z"/>
		<path style="fill:#53A2CF;" d="M594.881,823.228c46.761-23.772,92.892-48.315,92.892-48.315l15.508,30.288
			c0,0-46.044,19.83-63.042,27.352l53.348,8.22c7.68,1.183,15.461,1.546,23.218,1.082c8.573-0.513,19.49-1.161,24.035-1.414
			l31.689-1.76c0.406-0.023,0.813-0.026,1.22-0.028c5.549-0.022,19.33-1.96,30.695-3.714c11.19-1.727,21.966-5.491,31.805-11.093
			l42.49-24.191c-18.563-0.965-68.652-3.068-68.652-3.068l3.686-33.828c0,0,51.851,6.474,104.015,12.005
			c5.987,0.635,10.142,10.16,8.139,13.773c-25.835,46.599-55.383,71.398-81.977,84.287v156.724c0,0-50.645,55.965-116.275,38.066
			l-41.196-180.737c-27.051-4.759-59.062-18.216-94.291-47.88C589.03,836.337,589.515,825.956,594.881,823.228z"/>
		<path style="fill:#CC6B25;" d="M783.518,747.678c6.9,3.333,8.137,0.601,8.295,9.584c9.443,6.452,4.593,7.415,7.737,15
			c2.88,3.524,1.145,4.344,2.577,11.167c1.889,8.999,2.728,17.447-11.492,25.542c-15.383,8.757,0.03-27.054-13.134-41.242
			c-3.185-6.747,0.221-17.489-9.286-21.41C769.171,741.219,780.665,743.169,783.518,747.678z"/>
		<path style="fill:#CC6B25;" d="M717.224,755.058c-5.999,4.769-7.806,2.376-5.985,11.173c-7.793,8.371-2.85,8.244-4.249,16.334
			c-2.035,4.072-0.161,4.49-0.059,11.46c0.136,9.194,4.188,17.504,19.841,22.274c16.932,5.16-8.992-26.269,0.731-43.005
			c1.623-7.281-4.062-17.013,4.351-22.928C729.799,745.602,719.015,750.031,717.224,755.058z"/>
		<polygon style="fill:#E8B4B6;" points="746.814,846.786 784.214,842.473 781.77,814.88 743.539,818.404 		"/>
		<path style="opacity:0.5;fill:#E8B4B6;" d="M745.724,837.339l-2.168-18.751l38.231-3.524l0.545,6.157
			C777.984,830.151,766.315,839.689,745.724,837.339z"/>
		<path style="fill:#E8B4B6;" d="M722.185,789.753L722.185,789.753c-0.001,0-2.79-10.388-2.892-21.202
			c-0.037-1.868,0.026-3.777,0.225-5.693c0.336-3.531,1.073-6.916,2.41-9.792l0.002,0.013c3.438-8.176,10.773-15.178,25.095-17.675
			c14.314-2.496,23.51,1.617,29.414,8.158v-0.001c2.038,2.096,3.732,4.779,5.136,7.723c1.068,2.182,1.927,4.438,2.616,6.676
			c3.232,10.023,3.95,20.292,3.95,20.292c5.194-0.906,10.124,2.656,11.012,7.955c0.887,5.299-2.604,10.329-7.797,11.235
			c-0.018,0.003-0.035,0.005-0.053,0.008c0.014,0.564,0.011,1.126-0.003,1.686c-0.418,4.853-3.478,19.284-24.429,31.926
			c-1.067,0.644-2.236,1.103-3.455,1.331c-0.027,0.005-0.055,0.01-0.083,0.015l0,0.003c-0.019,0.003-0.037,0.005-0.057,0.008
			c-0.019,0.003-0.037,0.008-0.056,0.012l0-0.003c-0.007,0.001-0.013,0.002-0.02,0.003c-1.23,0.202-2.49,0.161-3.712-0.086
			c-25.796-5.216-32.57-19.48-33.801-22.741c-0.076-0.224-0.157-0.446-0.229-0.673c-0.017,0.003-0.034,0.008-0.052,0.011
			c-5.194,0.906-10.124-2.656-11.012-7.955C713.508,795.689,716.995,790.662,722.185,789.753z"/>
		<path style="opacity:0.2;fill:#E8B4B6;" d="M761.882,832.554c0,0,20.788-24.778,14.231-60.387
			c-3.159-17.155-10.709-29.332-17.686-37.348c8.061,0.738,13.855,4.136,18.013,8.742v-0.001c2.038,2.096,3.731,4.779,5.136,7.723
			c1.068,2.182,1.927,4.438,2.616,6.676c3.232,10.023,3.95,20.292,3.95,20.292c5.194-0.906,10.124,2.656,11.012,7.955
			c0.887,5.299-2.604,10.329-7.798,11.235c-0.017,0.003-0.035,0.005-0.053,0.008c0.014,0.564,0.011,1.126-0.003,1.686
			c-0.418,4.853-3.478,19.284-24.429,31.926c-1.067,0.644-2.236,1.103-3.455,1.331c-0.027,0.005-0.055,0.01-0.083,0.015l0,0.003
			c-0.019,0.003-0.037,0.005-0.057,0.008c-0.019,0.003-0.037,0.008-0.056,0.012l0-0.003c-0.007,0.001-0.013,0.002-0.02,0.003
			C762.765,832.502,762.324,832.542,761.882,832.554L761.882,832.554z"/>
		<path style="opacity:0.3;fill:#E8B4B6;" d="M769.203,794.952c0.635,3.787,4.158,6.333,7.87,5.685
			c3.712-0.647,6.208-4.242,5.573-8.029c-0.634-3.787-4.158-6.333-7.87-5.685C771.063,787.57,768.568,791.164,769.203,794.952z"/>
		<path style="opacity:0.3;fill:#E8B4B6;" d="M729.465,801.88c0.635,3.787,4.158,6.333,7.87,5.685
			c3.713-0.647,6.208-4.242,5.573-8.029c-0.634-3.787-4.158-6.333-7.87-5.685C731.326,794.498,728.831,798.093,729.465,801.88z"/>
		<path style="opacity:0.5;fill:#CAA37D;" d="M789.08,782.105c3.088-0.539,6.019,1.579,6.547,4.729
			c0.528,3.151-1.548,6.141-4.636,6.68L789.08,782.105z"/>
		<path style="opacity:0.5;fill:#CAA37D;" d="M722.528,793.709c-3.088,0.539-5.164,3.529-4.636,6.679
			c0.528,3.151,3.459,5.268,6.547,4.73L722.528,793.709z"/>
		<g>
			<path style="fill:#181E21;" d="M764.591,784.44c0.964,1.044,2.621,0.818,3.283-0.447c0.4-0.766,0.274-1.735-0.31-2.367
				c-0.964-1.044-2.621-0.818-3.283,0.448C763.881,782.839,764.007,783.808,764.591,784.44z"/>
			<path style="fill:#181E21;" d="M741.388,788.486c0.964,1.044,2.622,0.818,3.283-0.447c0.401-0.766,0.274-1.735-0.31-2.367
				c-0.964-1.044-2.621-0.818-3.283,0.447C740.678,786.885,740.804,787.854,741.388,788.486z"/>
		</g>
		<g>
			<path style="fill:#4E351E;" d="M772.236,769.027c0.316,0.008,0.63-0.144,0.821-0.432c0.293-0.444,0.18-1.042-0.253-1.336
				c-0.279-0.189-6.914-4.624-12.931-4.497c-0.524,0.012-0.943,0.453-0.937,0.985c0.006,0.533,0.439,0.958,0.958,0.943
				c5.442-0.123,11.784,4.134,11.847,4.177C771.893,768.971,772.065,769.023,772.236,769.027z"/>
		</g>
		<g>
			<path style="fill:#4E351E;" d="M733.32,781.231c-0.278,0.151-0.627,0.158-0.927-0.012c-0.463-0.262-0.633-0.847-0.381-1.305
				c0.163-0.295,4.061-7.259,9.481-9.878c0.472-0.228,1.045-0.025,1.281,0.452c0.237,0.477,0.044,1.053-0.425,1.275
				c-4.904,2.361-8.623,9.034-8.66,9.1C733.599,781.024,733.47,781.149,733.32,781.231z"/>
		</g>
		<g>
			<path style="fill:#BC8589;" d="M756.682,799.456c-0.111,0-0.218-0.068-0.263-0.181c-0.061-0.15,0.008-0.323,0.153-0.385
				c3.087-1.335,3.223-4.705,3.205-5.566c-2.703-0.767-4.598-2.32-5.635-4.618c-2.755-6.106,1.423-15.282,1.602-15.67
				c0.068-0.147,0.239-0.209,0.38-0.139c0.142,0.07,0.202,0.246,0.135,0.393c-0.043,0.092-4.241,9.315-1.599,15.167
				c0.987,2.187,2.825,3.651,5.464,4.351c0.116,0.031,0.202,0.135,0.213,0.258c0.004,0.047,0.374,4.672-3.544,6.366
				C756.755,799.448,756.718,799.456,756.682,799.456z"/>
		</g>
		<path style="opacity:0.4;fill:#7587A4;" d="M735.744,938.983c9.114,23.143,24.216,120.431,80.416,113.129
			c-28.314,15.31-50.361,24.303-88.483,15.503c0,0-32.493-140.703-41.196-180.737C686.481,886.878,726.63,915.84,735.744,938.983z"
			/>
		<path style="fill:#D67F2F;" d="M715.773,780.393c-3.866-1.192-6.43-4.109-8.129-7.366c-2.999-5.75-3.21-12.54-1.069-18.661
			c4.531-12.954,4.048-18.728,25.207-26.773c3.74-1.422,8.796,1.057,13.87-0.62c3.946-2.235,7.087-1.93,10.681-0.806
			c3.341,1.045,6.914,1.109,10.332,0.35c0.951-0.211,1.927-0.308,3.026-0.12c1.288,0.22,2.469,0.853,3.455,1.711
			c5.381,4.69,16.24,8.916,10.936,18.034c-1.163,1.999-3.969,2.37-5.735,3.864c-3.917,3.315-7.987,5.741-12.463,8.514
			c-3.725,2.308-8.071,3.532-12.443,3.232c-2.5-0.171-4.864,0.362-7.136,3.783c-4.174,6.578-9.911,1.643-16.318,4.383
			C725.576,773.289,722.23,780.447,715.773,780.393z"/>
		<path style="fill:#E8B4B6;" d="M703.605,752.918c-2.989,2.013-9.924,6.816-11.495,9.063c-0.688,0.984-1.221,2.627-1.632,4.412
			c-0.04,0.1-0.078,0.203-0.113,0.313c-1.754,5.623-1.461,16.755-0.324,22.285l1.854,3.284l8.935,9.052c0,0,4.58-3.694,4.96-11.338
			c0-0.003,0-0.005,0-0.008c0.061-1.747,0.672-3.964,1.448-6.122c0.151-0.205,0.286-0.428,0.384-0.68
			c0.02-0.048,1.922-4.859,5.165-8.584c3.5-4.02,5.648-6.097,5.668-6.117c0.276-0.265,0.491-0.579,0.642-0.916
			c0.387-0.864,0.349-1.877-0.172-2.589c-0.724-0.989-2.108-1.025-3.092-0.078c-0.093,0.09-2.327,2.247-6.012,6.479
			c-0.602,0.691-1.162,1.407-1.682,2.125c-0.556-0.474-1.18-0.995-1.853-1.541c0.588-1.129,1.079-1.941,1.367-2.214
			c1.851-1.441,10.293-7.438,10.378-7.499c0.42-0.298,0.742-0.711,0.948-1.17c0.327-0.732,0.359-1.581,0.019-2.275
			c-0.555-1.13-1.887-1.42-2.975-0.647c-0.351,0.25-8.621,6.124-10.562,7.635c-0.833,0.648-1.737,1.958-2.615,3.531
			c-0.293-0.211-0.589-0.421-0.886-0.627c1.102-1.92,2.166-3.524,2.927-4.205c2.253-2.014,8.769-5.935,11.09-7.276
			c0.512-0.296,0.908-0.765,1.148-1.3c0.292-0.653,0.352-1.405,0.108-2.065c-0.445-1.201-1.727-1.642-2.865-0.985
			c-0.359,0.208-8.835,5.116-11.955,7.905c-1.312,1.173-2.772,3.351-4.098,5.647c-1.054-0.574-1.948-0.976-2.893-1.283
			c0.055-0.14-0.021-0.327,0.03-0.409c0.785-1.05,5.868-4.82,10.122-7.683c0.445-0.299,0.786-0.728,1.001-1.208
			c0.341-0.761,0.362-1.652-0.028-2.366C705.97,752.412,704.665,752.204,703.605,752.918z"/>
		<path style="fill:#E8B4B6;" d="M791.139,747.858c3.509,0.814,11.702,2.827,13.971,4.367c0.994,0.674,2.078,2.018,3.098,3.54
			c0.073,0.079,0.146,0.162,0.217,0.253c3.644,4.627,7.341,15.132,8.252,20.704l-0.561,3.73l-5.119,11.643
			c0,0-5.596-1.817-8.678-8.823c-0.001-0.002-0.002-0.005-0.003-0.007c-0.68-1.61-2.042-3.464-3.536-5.203
			c-0.215-0.138-0.421-0.298-0.602-0.498c-0.036-0.038-3.529-3.854-7.887-6.177c-4.704-2.507-7.451-3.682-7.477-3.693
			c-0.353-0.149-0.665-0.366-0.926-0.627c-0.67-0.669-0.996-1.629-0.764-2.48c0.324-1.183,1.604-1.709,2.861-1.176
			c0.119,0.051,2.975,1.269,7.927,3.908c0.809,0.431,1.588,0.9,2.329,1.385c0.351-0.641,0.748-1.351,1.182-2.101
			c-0.952-0.846-1.701-1.429-2.067-1.581c-2.243-0.686-12.269-3.278-12.37-3.304c-0.498-0.129-0.947-0.399-1.303-0.755
			c-0.567-0.567-0.9-1.349-0.829-2.119c0.115-1.254,1.256-1.999,2.548-1.665c0.417,0.108,10.239,2.647,12.591,3.366
			c1.01,0.308,2.321,1.209,3.702,2.366c0.199-0.302,0.401-0.603,0.605-0.902c-1.715-1.4-3.281-2.52-4.235-2.884
			c-2.822-1.078-10.309-2.417-12.955-2.842c-0.585-0.094-1.121-0.39-1.536-0.805c-0.506-0.506-0.83-1.187-0.837-1.891
			c-0.013-1.28,1.028-2.15,2.325-1.941c0.41,0.066,10.079,1.628,13.989,3.121c1.644,0.628,3.785,2.142,5.843,3.814
			c0.78-0.912,1.471-1.607,2.246-2.231c-0.101-0.111-0.097-0.313-0.174-0.371c-1.108-0.701-7.201-2.41-12.197-3.567
			c-0.522-0.121-0.994-0.399-1.366-0.771c-0.59-0.59-0.928-1.414-0.818-2.22C788.749,748.229,789.894,747.569,791.139,747.858z"/>
		<path style="fill:#E8B4B6;" d="M772.342,838.692c0.445-0.024,0.89-0.037,1.336-0.038c4.45-0.004,14.361-1.279,24.029-2.699
			c0,0,0,0,0,0s-27.966,33.762-70.03,5.253l0,0c5.426-0.321,10.441-0.615,13.165-0.767L772.342,838.692z"/>
		<g>
			
				<rect x="1208.14" y="814.544" transform="matrix(-1 -1.224647e-16 1.224647e-16 -1 2509.5977 1651.6324)" style="fill:#9ED1FA;" width="93.319" height="22.545"/>
			
				<rect x="1200.709" y="837.089" transform="matrix(-1 -1.224647e-16 1.224647e-16 -1 2494.7361 1696.7229)" style="fill:#9ED1FA;" width="93.319" height="22.545"/>
			
				<rect x="1208.859" y="859.634" transform="matrix(-1 -1.224647e-16 1.224647e-16 -1 2511.0356 1741.8134)" style="fill:#9ED1FA;" width="93.319" height="22.545"/>
			
				<rect x="1211.729" y="882.179" transform="matrix(-1 -1.224647e-16 1.224647e-16 -1 2516.7766 1786.9037)" style="fill:#9ED1FA;" width="93.319" height="22.545"/>
			
				<rect x="1200" y="904.724" transform="matrix(-1 -1.224647e-16 1.224647e-16 -1 2493.3186 1831.9944)" style="fill:#9ED1FA;" width="93.319" height="22.546"/>
			
				<rect x="1211.729" y="927.27" transform="matrix(-1 -1.224647e-16 1.224647e-16 -1 2516.7766 1877.0851)" style="fill:#9ED1FA;" width="93.319" height="22.545"/>
			
				<rect x="1208.859" y="949.815" transform="matrix(-1 -1.224647e-16 1.224647e-16 -1 2511.0356 1922.1752)" style="fill:#9ED1FA;" width="93.319" height="22.545"/>
			<g>
				<rect x="1234.974" y="824.29" style="opacity:0.3;fill:#AFCADF;" width="66.484" height="0.654"/>
				<rect x="1244.682" y="820.946" style="opacity:0.3;fill:#AFCADF;" width="56.776" height="0.654"/>
				<rect x="1230.18" y="817.601" style="opacity:0.3;fill:#AFCADF;" width="71.278" height="0.654"/>
				<rect x="1208.14" y="834.722" style="opacity:0.3;fill:#AFCADF;" width="69.86" height="0.654"/>
				<g style="opacity:0.3;">
					<rect x="1227.543" y="846.835" style="fill:#AFCADF;" width="66.484" height="0.654"/>
					<rect x="1200.733" y="854.832" style="fill:#AFCADF;" width="48.503" height="0.655"/>
					<rect x="1237.251" y="843.491" style="fill:#AFCADF;" width="56.776" height="0.654"/>
					<rect x="1222.749" y="840.147" style="fill:#AFCADF;" width="71.278" height="0.654"/>
					<rect x="1200.709" y="857.268" style="fill:#AFCADF;" width="69.86" height="0.654"/>
				</g>
				<g style="opacity:0.3;">
					<rect x="1235.693" y="869.38" style="fill:#AFCADF;" width="66.484" height="0.655"/>
					<rect x="1208.882" y="877.378" style="fill:#AFCADF;" width="48.503" height="0.654"/>
					<rect x="1245.401" y="866.036" style="fill:#AFCADF;" width="56.776" height="0.654"/>
					<rect x="1230.899" y="862.692" style="fill:#AFCADF;" width="71.278" height="0.654"/>
					<rect x="1208.859" y="879.813" style="fill:#AFCADF;" width="69.861" height="0.654"/>
				</g>
				<g style="opacity:0.3;">
					<rect x="1238.563" y="891.926" style="fill:#AFCADF;" width="66.484" height="0.654"/>
					<rect x="1211.753" y="899.923" style="fill:#AFCADF;" width="48.503" height="0.655"/>
					<rect x="1248.271" y="888.581" style="fill:#AFCADF;" width="56.776" height="0.654"/>
					<rect x="1233.769" y="885.237" style="fill:#AFCADF;" width="71.278" height="0.655"/>
					<rect x="1211.729" y="902.358" style="fill:#AFCADF;" width="69.861" height="0.655"/>
				</g>
				<g style="opacity:0.3;">
					<rect x="1226.835" y="914.471" style="fill:#AFCADF;" width="66.484" height="0.655"/>
					<rect x="1200.024" y="922.468" style="fill:#AFCADF;" width="48.503" height="0.654"/>
					<rect x="1236.542" y="911.126" style="fill:#AFCADF;" width="56.776" height="0.655"/>
					<rect x="1222.04" y="907.782" style="fill:#AFCADF;" width="71.278" height="0.654"/>
					<rect x="1200" y="924.903" style="fill:#AFCADF;" width="69.86" height="0.654"/>
				</g>
				<g style="opacity:0.3;">
					<rect x="1238.563" y="937.016" style="fill:#AFCADF;" width="66.484" height="0.655"/>
					<rect x="1211.753" y="945.013" style="fill:#AFCADF;" width="48.503" height="0.655"/>
					<rect x="1248.271" y="933.672" style="fill:#AFCADF;" width="56.776" height="0.654"/>
					<rect x="1233.769" y="930.328" style="fill:#AFCADF;" width="71.278" height="0.654"/>
					<rect x="1211.729" y="947.449" style="fill:#AFCADF;" width="69.861" height="0.654"/>
				</g>
				<g style="opacity:0.3;">
					<rect x="1235.693" y="959.561" style="fill:#AFCADF;" width="66.484" height="0.654"/>
					<rect x="1208.882" y="967.558" style="fill:#AFCADF;" width="48.503" height="0.655"/>
					<rect x="1245.401" y="956.217" style="fill:#AFCADF;" width="56.776" height="0.654"/>
					<rect x="1230.899" y="952.873" style="fill:#AFCADF;" width="71.278" height="0.655"/>
					<rect x="1208.859" y="969.994" style="fill:#AFCADF;" width="69.861" height="0.655"/>
				</g>
			</g>
		</g>
		<path style="fill:#9ED1FA;" d="M1084.499,951.454c0,0-19.344,80.019-82.585,76.483c0,0,39.106,39.317,64.675,41.291
			c0,0,59.054-35.228,80.09-94.082C1146.679,975.146,1110.873,978.894,1084.499,951.454z"/>
		<path style="opacity:0.3;fill:#AFCADF;" d="M1146.679,975.146c-21.037,58.854-80.09,94.082-80.09,94.082
			c-25.569-1.974-64.675-41.291-64.675-41.291C1074.66,1080.341,1146.679,975.146,1146.679,975.146z"/>
		<path style="opacity:0.2;fill:#5991A4;" d="M1002.384,899.07L1002.384,899.07c-0.511,1.887,0.32,3.881,2.02,4.846l0,0
			c2.746,1.561,5.985,2.014,9.055,1.269l9.757-2.371c1.913-0.465,3.882-0.652,5.848-0.555l4.623,0.227
			c1.406,0.069,2.617,1.014,3.027,2.36l0,0c0.289,0.95,0.14,1.979-0.407,2.808l-1.758,2.665c-1.577,2.391-2.36,5.219-2.239,8.081
			l0,0c0.082,1.915-1.137,3.645-2.968,4.213l-3.629,1.124c-3.194,0.989-6.198,2.509-8.887,4.495l-2.142,1.582
			c-2.81,2.075-4.714,5.153-5.316,8.594l-0.201,1.151l0,0c-1.192-4.271,0.198-8.845,3.565-11.731l8.488-7.276
			c0.53-0.454,0.932-1.039,1.167-1.696l1.182-3.31c0.545-1.528,0.117-3.234-1.087-4.323l0,0c-0.904-0.818-2.132-1.18-3.336-0.984
			l-3.894,0.634c-0.784,0.127-1.512,0.485-2.092,1.026l0,0c-2.599,2.425-5.886,3.983-9.408,4.458l-2.712,0.366
			c-1.313,0.177-2.617-0.38-3.396-1.452l0,0c-0.447-0.616-0.689-1.357-0.689-2.119v-1.108l0,0c-3.864-0.594-7.02-3.401-8.062-7.169
			l0,0c-0.253-0.916-0.048-1.899,0.552-2.636l2.815-3.465c1.656-2.038,4.031-3.363,6.635-3.7l0,0
			C1001.151,894.782,1002.978,896.876,1002.384,899.07z"/>
		<path style="fill:#D69E74;" d="M1038.343,929.557l-7.789,38.896c-0.455,2.272-2.45,3.907-4.767,3.907h-21.193
			c-2.305,0-4.293-1.618-4.76-3.875l-8.06-38.909c-0.383-1.848,1.028-3.581,2.915-3.581h40.737
			C1037.303,925.996,1038.712,927.715,1038.343,929.557z"/>
		<g>
			<path style="fill:#D69E74;" d="M979.837,950.011c0-9.094,7.399-16.493,16.493-16.493c9.095,0,16.494,7.399,16.494,16.493
				c0,9.095-7.399,16.494-16.494,16.494C987.236,966.505,979.837,959.106,979.837,950.011z M983.619,950.011
				c0,7.009,5.702,12.711,12.711,12.711c7.01,0,12.712-5.702,12.712-12.711c0-7.009-5.702-12.711-12.712-12.711
				C989.321,937.3,983.619,943.002,983.619,950.011z"/>
		</g>
		<path style="opacity:0.1;fill:#845534;" d="M1016.365,955.151c1.921-6.843,5.163-10.686,13.567-17.852
			c3.306-2.819,5.047-7.104,5.949-11.265c1.643,0.251,2.801,1.833,2.463,3.523l-7.789,38.896c-0.455,2.272-2.45,3.907-4.767,3.907
			h-21.193c-2.274,0-4.236-1.576-4.738-3.786C1007.404,968.961,1014.702,961.073,1016.365,955.151z"/>
		<path style="fill:#A36D73;" d="M751.765,804.321h8.315l1.438-2.829c0.075-0.148,0.255-0.206,0.401-0.131
			c0.147,0.075,0.206,0.255,0.131,0.401l-1.604,3.155h-2.695l-1.625,3.608c-0.042,0.093-0.18,0.153-0.331,0.153
			c-0.03,0-0.061-0.002-0.091-0.007c-0.182-0.031-0.289-0.146-0.24-0.257l1.575-3.497h-5.275c-0.165,0-0.299-0.133-0.299-0.299
			C751.466,804.454,751.6,804.321,751.765,804.321z"/>
		<g>
			<g>
				<path style="fill:#C84F54;" d="M994.122,730.406l-32.148-44.668c-3.164-4.396-1.708-10.575,3.086-13.096l0,0
					c4.638-2.439,10.37-0.37,12.38,4.47l21.109,50.825c0.506,1.219-0.001,2.623-1.169,3.237l0,0
					C996.255,731.766,994.865,731.439,994.122,730.406z"/>
				<path style="fill:#C84F54;" d="M1006.418,738.161c1.176,2.237,0.316,5.005-1.921,6.181c-2.237,1.176-5.004,0.316-6.181-1.921
					c-1.177-2.237-0.317-5.005,1.921-6.181C1002.474,735.064,1005.241,735.924,1006.418,738.161z"/>
			</g>
		</g>
		<g>
			<path style="fill:#435848;" d="M1182.914,943.265c0,0,29.354-71.716-2.183-151.984
				C1180.731,791.281,1160.491,849.613,1182.914,943.265z"/>
			<path style="fill:#435848;" d="M1176.88,953.346c0,0,15.672-75.889-30.083-148.993
				C1146.797,804.353,1137.625,865.412,1176.88,953.346z"/>
			<path style="fill:#668771;" d="M1193.85,959.631c0,0,42.172-65.01,26.103-149.742
				C1219.952,809.889,1189.224,863.443,1193.85,959.631z"/>
			<path style="fill:#668771;" d="M1179.289,946.587c0,0,20.935-55.151-10.876-112.462
				C1168.413,834.125,1154.505,878.734,1179.289,946.587z"/>
			<path style="fill:#54715D;" d="M1182.639,949.537c0,0,35.572-47.058,21.124-110.994
				C1203.763,838.543,1177.894,877.456,1182.639,949.537z"/>
			<path style="fill:#435848;" d="M1181.857,949.673c0,0,49.735-31.722,58.46-96.687
				C1240.317,852.986,1202.515,880.453,1181.857,949.673z"/>
			<path style="fill:#54715D;" d="M1181.081,957.618c0,0,0.779-58.986-48.739-101.934
				C1132.342,855.684,1134.555,902.359,1181.081,957.618z"/>
			<path style="fill:#C84F54;" d="M1182.814,920.814h2.057h27.469c2.019,0,3.508,1.885,3.042,3.849l-10.764,45.294
				c-0.335,1.409-1.593,2.403-3.042,2.403h-16.706h-2.057h-16.706c-1.448,0-2.707-0.994-3.042-2.403l-10.764-45.294
				c-0.467-1.964,1.023-3.849,3.042-3.849H1182.814z"/>
			<path style="opacity:0.1;fill:#845534;" d="M1209.778,920.814h2.563c2.019,0,3.508,1.885,3.042,3.849l-10.764,45.294
				c-0.335,1.409-1.593,2.403-3.042,2.403h-16.706h-2.057h-16.706c-1.448,0-2.707-0.994-3.042-2.403l-0.398-1.677
				C1182.823,957.001,1202.481,941.295,1209.778,920.814z"/>
		</g>
		<g>
			<path style="fill:#D9E8F5;" d="M1286.308,803.952c0,0,39.308-9.494,38.641-45.637c0,0,3.331,27.482,23.901,28.981
				C1348.85,787.297,1333.943,805.618,1286.308,803.952z"/>
			<path style="opacity:0.3;fill:#AFCADF;" d="M1324.949,758.316c0,0,3.022,26.116-2.168,42.294
				c-9.153,2.336-21.108,3.88-36.473,3.342C1286.308,803.952,1325.615,794.459,1324.949,758.316z"/>
			
				<rect x="1245.293" y="799.995" transform="matrix(-1 -1.224647e-16 1.224647e-16 -1 2598.7649 1621.5327)" style="fill:#D9E8F5;" width="108.179" height="21.542"/>
			<rect x="1276.401" y="809.308" style="opacity:0.3;fill:#AFCADF;" width="77.072" height="0.625"/>
			<rect x="1287.655" y="806.112" style="opacity:0.3;fill:#AFCADF;" width="65.818" height="0.625"/>
			<rect x="1270.843" y="802.917" style="opacity:0.3;fill:#AFCADF;" width="82.629" height="0.625"/>
			<rect x="1245.293" y="819.277" style="opacity:0.3;fill:#AFCADF;" width="80.985" height="0.625"/>
			
				<rect x="1236.679" y="821.538" transform="matrix(-1 -1.224647e-16 1.224647e-16 -1 2581.5371 1664.6176)" style="fill:#D9E8F5;" width="108.179" height="21.542"/>
			<g style="opacity:0.3;">
				<rect x="1267.787" y="830.85" style="fill:#AFCADF;" width="77.071" height="0.625"/>
				<rect x="1236.707" y="838.492" style="fill:#AFCADF;" width="56.227" height="0.625"/>
				<rect x="1279.041" y="827.655" style="fill:#AFCADF;" width="65.818" height="0.625"/>
				<rect x="1262.229" y="824.459" style="fill:#AFCADF;" width="82.629" height="0.625"/>
				<rect x="1236.679" y="840.819" style="fill:#AFCADF;" width="80.985" height="0.625"/>
			</g>
			
				<rect x="1246.127" y="843.08" transform="matrix(-1 -1.224647e-16 1.224647e-16 -1 2600.4326 1707.7021)" style="fill:#D9E8F5;" width="108.179" height="21.542"/>
			<g style="opacity:0.3;">
				<rect x="1277.234" y="852.392" style="fill:#AFCADF;" width="77.071" height="0.625"/>
				<rect x="1246.155" y="860.034" style="fill:#AFCADF;" width="56.227" height="0.625"/>
				<rect x="1288.488" y="849.197" style="fill:#AFCADF;" width="65.818" height="0.625"/>
				<rect x="1271.677" y="846.002" style="fill:#AFCADF;" width="82.629" height="0.625"/>
				<rect x="1246.127" y="862.361" style="fill:#AFCADF;" width="80.985" height="0.625"/>
			</g>
			
				<rect x="1249.454" y="864.622" transform="matrix(-1 -1.224647e-16 1.224647e-16 -1 2607.0876 1750.7869)" style="fill:#D9E8F5;" width="108.179" height="21.542"/>
			<g style="opacity:0.3;">
				<rect x="1280.562" y="873.935" style="fill:#AFCADF;" width="77.071" height="0.625"/>
				<rect x="1249.482" y="881.576" style="fill:#AFCADF;" width="56.227" height="0.625"/>
				<rect x="1291.816" y="870.739" style="fill:#AFCADF;" width="65.818" height="0.625"/>
				<rect x="1275.005" y="867.544" style="fill:#AFCADF;" width="82.629" height="0.625"/>
				<rect x="1249.454" y="883.904" style="fill:#AFCADF;" width="80.985" height="0.625"/>
			</g>
			
				<rect x="1235.857" y="886.165" transform="matrix(-1 -1.224647e-16 1.224647e-16 -1 2579.8938 1793.8719)" style="fill:#D9E8F5;" width="108.179" height="21.542"/>
			<g style="opacity:0.3;">
				<rect x="1266.965" y="895.477" style="fill:#AFCADF;" width="77.071" height="0.625"/>
				<rect x="1235.885" y="903.119" style="fill:#AFCADF;" width="56.227" height="0.625"/>
				<rect x="1278.219" y="892.282" style="fill:#AFCADF;" width="65.818" height="0.625"/>
				<rect x="1261.408" y="889.086" style="fill:#AFCADF;" width="82.629" height="0.625"/>
				<rect x="1235.857" y="905.446" style="fill:#AFCADF;" width="80.985" height="0.625"/>
			</g>
			
				<rect x="1249.454" y="907.707" transform="matrix(-1 -1.224647e-16 1.224647e-16 -1 2607.0876 1836.9564)" style="fill:#D9E8F5;" width="108.179" height="21.542"/>
			<g style="opacity:0.3;">
				<rect x="1280.562" y="917.019" style="fill:#AFCADF;" width="77.071" height="0.625"/>
				<rect x="1249.482" y="924.661" style="fill:#AFCADF;" width="56.227" height="0.625"/>
				<rect x="1291.816" y="913.824" style="fill:#AFCADF;" width="65.818" height="0.625"/>
				<rect x="1275.005" y="910.628" style="fill:#AFCADF;" width="82.629" height="0.625"/>
				<rect x="1249.454" y="926.988" style="fill:#AFCADF;" width="80.985" height="0.625"/>
			</g>
			
				<rect x="1246.127" y="929.249" transform="matrix(-1 -1.224647e-16 1.224647e-16 -1 2600.4326 1880.0409)" style="fill:#D9E8F5;" width="108.179" height="21.542"/>
			<g style="opacity:0.3;">
				<rect x="1277.234" y="938.562" style="fill:#AFCADF;" width="77.071" height="0.625"/>
				<rect x="1246.155" y="946.203" style="fill:#AFCADF;" width="56.227" height="0.625"/>
				<rect x="1288.488" y="935.367" style="fill:#AFCADF;" width="65.818" height="0.625"/>
				<rect x="1271.677" y="932.171" style="fill:#AFCADF;" width="82.629" height="0.625"/>
				<rect x="1246.127" y="948.531" style="fill:#AFCADF;" width="80.985" height="0.625"/>
			</g>
			
				<rect x="1246.127" y="950.792" transform="matrix(-1 -1.224647e-16 1.224647e-16 -1 2600.4326 1923.1259)" style="fill:#D9E8F5;" width="108.179" height="21.542"/>
			<g style="opacity:0.3;">
				<rect x="1277.234" y="960.104" style="fill:#AFCADF;" width="77.071" height="0.625"/>
				<rect x="1246.155" y="967.746" style="fill:#AFCADF;" width="56.227" height="0.625"/>
				<rect x="1288.488" y="956.909" style="fill:#AFCADF;" width="65.818" height="0.625"/>
				<rect x="1271.677" y="953.714" style="fill:#AFCADF;" width="82.629" height="0.625"/>
				<rect x="1246.127" y="970.073" style="fill:#AFCADF;" width="80.985" height="0.626"/>
			</g>
		</g>
		<g>
			
				<rect x="1401.579" y="1147.559" transform="matrix(-1 -1.224647e-16 1.224647e-16 -1 2896.4768 2317.6636)" style="fill:#9ED1FA;" width="93.319" height="22.545"/>
			
				<rect x="1394.148" y="1170.104" transform="matrix(-1 -1.224647e-16 1.224647e-16 -1 2881.6152 2362.7539)" style="fill:#9ED1FA;" width="93.319" height="22.545"/>
			
				<rect x="1402.298" y="1192.65" transform="matrix(-1 -1.224647e-16 1.224647e-16 -1 2897.9148 2407.8445)" style="fill:#9ED1FA;" width="93.319" height="22.545"/>
			
				<rect x="1405.168" y="1215.195" transform="matrix(-1 -1.224647e-16 1.224647e-16 -1 2903.6558 2452.9348)" style="fill:#9ED1FA;" width="93.319" height="22.545"/>
			
				<rect x="1393.44" y="1237.74" transform="matrix(-1 -1.224647e-16 1.224647e-16 -1 2880.1978 2498.0254)" style="fill:#9ED1FA;" width="93.319" height="22.546"/>
			
				<rect x="1405.168" y="1260.286" transform="matrix(-1 -1.224647e-16 1.224647e-16 -1 2903.6558 2543.1162)" style="fill:#9ED1FA;" width="93.319" height="22.545"/>
			
				<rect x="1402.298" y="1282.831" transform="matrix(-1 -1.224647e-16 1.224647e-16 -1 2897.9148 2588.2063)" style="fill:#9ED1FA;" width="93.319" height="22.545"/>
			<g>
				<rect x="1428.414" y="1157.305" style="opacity:0.3;fill:#AFCADF;" width="66.484" height="0.654"/>
				<rect x="1438.121" y="1153.961" style="opacity:0.3;fill:#AFCADF;" width="56.776" height="0.654"/>
				<rect x="1423.62" y="1150.617" style="opacity:0.3;fill:#AFCADF;" width="71.278" height="0.654"/>
				<rect x="1401.579" y="1167.738" style="opacity:0.3;fill:#AFCADF;" width="69.86" height="0.654"/>
				<g style="opacity:0.3;">
					<rect x="1420.983" y="1179.851" style="fill:#AFCADF;" width="66.484" height="0.654"/>
					<rect x="1394.172" y="1187.848" style="fill:#AFCADF;" width="48.503" height="0.654"/>
					<rect x="1430.691" y="1176.506" style="fill:#AFCADF;" width="56.776" height="0.654"/>
					<rect x="1416.189" y="1173.162" style="fill:#AFCADF;" width="71.278" height="0.654"/>
					<rect x="1394.149" y="1190.283" style="fill:#AFCADF;" width="69.86" height="0.654"/>
				</g>
				<g style="opacity:0.3;">
					<rect x="1429.133" y="1202.396" style="fill:#AFCADF;" width="66.484" height="0.654"/>
					<rect x="1402.322" y="1210.393" style="fill:#AFCADF;" width="48.503" height="0.654"/>
					<rect x="1438.84" y="1199.051" style="fill:#AFCADF;" width="56.776" height="0.655"/>
					<rect x="1424.339" y="1195.707" style="fill:#AFCADF;" width="71.278" height="0.655"/>
					<rect x="1402.298" y="1212.829" style="fill:#AFCADF;" width="69.861" height="0.654"/>
				</g>
				<g style="opacity:0.3;">
					<rect x="1432.003" y="1224.941" style="fill:#AFCADF;" width="66.484" height="0.654"/>
					<rect x="1405.193" y="1232.938" style="fill:#AFCADF;" width="48.503" height="0.655"/>
					<rect x="1441.711" y="1221.597" style="fill:#AFCADF;" width="56.776" height="0.654"/>
					<rect x="1427.209" y="1218.253" style="fill:#AFCADF;" width="71.278" height="0.654"/>
					<rect x="1405.168" y="1235.374" style="fill:#AFCADF;" width="69.861" height="0.655"/>
				</g>
				<g style="opacity:0.3;">
					<rect x="1420.274" y="1247.486" style="fill:#AFCADF;" width="66.484" height="0.655"/>
					<rect x="1393.464" y="1255.483" style="fill:#AFCADF;" width="48.503" height="0.655"/>
					<rect x="1429.982" y="1244.142" style="fill:#AFCADF;" width="56.776" height="0.654"/>
					<rect x="1415.48" y="1240.798" style="fill:#AFCADF;" width="71.278" height="0.655"/>
					<rect x="1393.44" y="1257.919" style="fill:#AFCADF;" width="69.86" height="0.655"/>
				</g>
				<g style="opacity:0.3;">
					<rect x="1432.003" y="1270.031" style="fill:#AFCADF;" width="66.484" height="0.655"/>
					<rect x="1405.193" y="1278.028" style="fill:#AFCADF;" width="48.503" height="0.654"/>
					<rect x="1441.711" y="1266.687" style="fill:#AFCADF;" width="56.776" height="0.654"/>
					<rect x="1427.209" y="1263.343" style="fill:#AFCADF;" width="71.278" height="0.654"/>
					<rect x="1405.168" y="1280.464" style="fill:#AFCADF;" width="69.861" height="0.654"/>
				</g>
				<g style="opacity:0.3;">
					<rect x="1429.133" y="1292.577" style="fill:#AFCADF;" width="66.484" height="0.654"/>
					<rect x="1402.322" y="1300.574" style="fill:#AFCADF;" width="48.503" height="0.655"/>
					<rect x="1438.84" y="1289.233" style="fill:#AFCADF;" width="56.776" height="0.654"/>
					<rect x="1424.339" y="1285.888" style="fill:#AFCADF;" width="71.278" height="0.655"/>
					<rect x="1402.298" y="1303.009" style="fill:#AFCADF;" width="69.861" height="0.655"/>
				</g>
			</g>
		</g>
		<g>
			<path style="fill:#D9E8F5;" d="M1479.747,1136.968c0,0,39.308-9.494,38.641-45.637c0,0,3.331,27.482,23.901,28.981
				C1542.29,1120.312,1527.383,1138.633,1479.747,1136.968z"/>
			<path style="opacity:0.3;fill:#AFCADF;" d="M1518.389,1091.331c0,0,3.022,26.116-2.168,42.294
				c-9.153,2.336-21.108,3.88-36.473,3.343C1479.747,1136.968,1519.055,1127.474,1518.389,1091.331z"/>
			
				<rect x="1438.733" y="1133.011" transform="matrix(-1 -1.224647e-16 1.224647e-16 -1 2985.6443 2287.564)" style="fill:#D9E8F5;" width="108.179" height="21.542"/>
			<rect x="1469.84" y="1142.323" style="opacity:0.3;fill:#AFCADF;" width="77.072" height="0.625"/>
			<rect x="1481.094" y="1139.128" style="opacity:0.3;fill:#AFCADF;" width="65.818" height="0.625"/>
			<rect x="1464.283" y="1135.932" style="opacity:0.3;fill:#AFCADF;" width="82.629" height="0.625"/>
			<rect x="1438.733" y="1152.292" style="opacity:0.3;fill:#AFCADF;" width="80.985" height="0.625"/>
			
				<rect x="1430.119" y="1154.553" transform="matrix(-1 -1.224647e-16 1.224647e-16 -1 2968.4165 2330.6487)" style="fill:#D9E8F5;" width="108.179" height="21.542"/>
			<g style="opacity:0.3;">
				<rect x="1461.227" y="1163.866" style="fill:#AFCADF;" width="77.071" height="0.625"/>
				<rect x="1430.147" y="1171.507" style="fill:#AFCADF;" width="56.227" height="0.625"/>
				<rect x="1472.48" y="1160.67" style="fill:#AFCADF;" width="65.818" height="0.625"/>
				<rect x="1455.669" y="1157.475" style="fill:#AFCADF;" width="82.629" height="0.625"/>
				<rect x="1430.119" y="1173.834" style="fill:#AFCADF;" width="80.985" height="0.625"/>
			</g>
			
				<rect x="1439.566" y="1176.095" transform="matrix(-1 -1.224647e-16 1.224647e-16 -1 2987.3118 2373.7332)" style="fill:#D9E8F5;" width="108.179" height="21.542"/>
			<g style="opacity:0.3;">
				<rect x="1470.674" y="1185.408" style="fill:#AFCADF;" width="77.071" height="0.625"/>
				<rect x="1439.594" y="1193.05" style="fill:#AFCADF;" width="56.227" height="0.625"/>
				<rect x="1481.928" y="1182.213" style="fill:#AFCADF;" width="65.818" height="0.625"/>
				<rect x="1465.117" y="1179.017" style="fill:#AFCADF;" width="82.629" height="0.625"/>
				<rect x="1439.566" y="1195.377" style="fill:#AFCADF;" width="80.985" height="0.625"/>
			</g>
			
				<rect x="1442.894" y="1197.638" transform="matrix(-1 -1.224647e-16 1.224647e-16 -1 2993.9668 2416.8179)" style="fill:#D9E8F5;" width="108.179" height="21.542"/>
			<g style="opacity:0.3;">
				<rect x="1474.002" y="1206.95" style="fill:#AFCADF;" width="77.071" height="0.625"/>
				<rect x="1442.922" y="1214.592" style="fill:#AFCADF;" width="56.227" height="0.625"/>
				<rect x="1485.255" y="1203.755" style="fill:#AFCADF;" width="65.818" height="0.625"/>
				<rect x="1468.444" y="1200.559" style="fill:#AFCADF;" width="82.629" height="0.625"/>
				<rect x="1442.894" y="1216.919" style="fill:#AFCADF;" width="80.985" height="0.625"/>
			</g>
			
				<rect x="1429.297" y="1219.18" transform="matrix(-1 -1.224647e-16 1.224647e-16 -1 2966.7732 2459.9028)" style="fill:#D9E8F5;" width="108.179" height="21.542"/>
			<g style="opacity:0.3;">
				<rect x="1460.405" y="1228.493" style="fill:#AFCADF;" width="77.071" height="0.625"/>
				<rect x="1429.325" y="1236.134" style="fill:#AFCADF;" width="56.227" height="0.625"/>
				<rect x="1471.659" y="1225.297" style="fill:#AFCADF;" width="65.818" height="0.625"/>
				<rect x="1454.847" y="1222.102" style="fill:#AFCADF;" width="82.629" height="0.625"/>
				<rect x="1429.297" y="1238.462" style="fill:#AFCADF;" width="80.985" height="0.625"/>
			</g>
			
				<rect x="1442.894" y="1240.723" transform="matrix(-1 -1.224647e-16 1.224647e-16 -1 2993.9668 2502.9873)" style="fill:#D9E8F5;" width="108.179" height="21.542"/>
			<g style="opacity:0.3;">
				<rect x="1474.002" y="1250.035" style="fill:#AFCADF;" width="77.071" height="0.625"/>
				<rect x="1442.922" y="1257.677" style="fill:#AFCADF;" width="56.227" height="0.625"/>
				<rect x="1485.255" y="1246.839" style="fill:#AFCADF;" width="65.818" height="0.625"/>
				<rect x="1468.444" y="1243.644" style="fill:#AFCADF;" width="82.629" height="0.625"/>
				<rect x="1442.894" y="1260.004" style="fill:#AFCADF;" width="80.985" height="0.625"/>
			</g>
			
				<rect x="1439.566" y="1262.265" transform="matrix(-1 -1.224647e-16 1.224647e-16 -1 2987.3118 2546.072)" style="fill:#D9E8F5;" width="108.179" height="21.543"/>
			<g style="opacity:0.3;">
				<rect x="1470.674" y="1271.578" style="fill:#AFCADF;" width="77.071" height="0.625"/>
				<rect x="1439.594" y="1279.219" style="fill:#AFCADF;" width="56.227" height="0.625"/>
				<rect x="1481.928" y="1268.382" style="fill:#AFCADF;" width="65.818" height="0.625"/>
				<rect x="1465.117" y="1265.187" style="fill:#AFCADF;" width="82.629" height="0.625"/>
				<rect x="1439.566" y="1281.546" style="fill:#AFCADF;" width="80.985" height="0.625"/>
			</g>
			
				<rect x="1439.566" y="1283.807" transform="matrix(-1 -1.224647e-16 1.224647e-16 -1 2987.3118 2589.157)" style="fill:#D9E8F5;" width="108.179" height="21.542"/>
			<g style="opacity:0.3;">
				<rect x="1470.674" y="1293.12" style="fill:#AFCADF;" width="77.071" height="0.625"/>
				<rect x="1439.594" y="1300.761" style="fill:#AFCADF;" width="56.227" height="0.625"/>
				<rect x="1481.928" y="1289.925" style="fill:#AFCADF;" width="65.818" height="0.625"/>
				<rect x="1465.117" y="1286.729" style="fill:#AFCADF;" width="82.629" height="0.625"/>
				<rect x="1439.566" y="1303.088" style="fill:#AFCADF;" width="80.985" height="0.626"/>
			</g>
		</g>
		<g>
			
				<rect x="1561.886" y="1180.861" transform="matrix(-1 -1.224647e-16 1.224647e-16 -1 3217.0908 2379.467)" style="fill:#9ED1FA;" width="93.319" height="17.745"/>
			
				<rect x="1570.036" y="1192.65" transform="matrix(-1 -1.224647e-16 1.224647e-16 -1 3233.3904 2407.8445)" style="fill:#9ED1FA;" width="93.319" height="22.545"/>
			
				<rect x="1572.906" y="1215.195" transform="matrix(-1 -1.224647e-16 1.224647e-16 -1 3239.1311 2452.9348)" style="fill:#9ED1FA;" width="93.319" height="22.545"/>
			
				<rect x="1561.177" y="1237.74" transform="matrix(-1 -1.224647e-16 1.224647e-16 -1 3215.6733 2498.0254)" style="fill:#9ED1FA;" width="93.319" height="22.546"/>
			
				<rect x="1572.906" y="1260.286" transform="matrix(-1 -1.224647e-16 1.224647e-16 -1 3239.1311 2543.1162)" style="fill:#9ED1FA;" width="93.319" height="22.545"/>
			
				<rect x="1570.036" y="1282.831" transform="matrix(-1 -1.224647e-16 1.224647e-16 -1 3233.3904 2588.2063)" style="fill:#9ED1FA;" width="93.319" height="22.545"/>
			<g>
				<g style="opacity:0.3;">
					<rect x="1588.721" y="1183.419" style="fill:#AFCADF;" width="66.484" height="0.654"/>
					<rect x="1561.91" y="1187.848" style="fill:#AFCADF;" width="48.503" height="0.654"/>
					<rect x="1561.886" y="1190.283" style="fill:#AFCADF;" width="69.86" height="0.654"/>
				</g>
				<g style="opacity:0.3;">
					<rect x="1596.87" y="1202.396" style="fill:#AFCADF;" width="66.484" height="0.654"/>
					<rect x="1570.06" y="1210.393" style="fill:#AFCADF;" width="48.503" height="0.654"/>
					<rect x="1606.578" y="1199.051" style="fill:#AFCADF;" width="56.776" height="0.655"/>
					<rect x="1592.076" y="1195.707" style="fill:#AFCADF;" width="71.278" height="0.655"/>
					<rect x="1570.036" y="1212.829" style="fill:#AFCADF;" width="69.86" height="0.654"/>
				</g>
				<g style="opacity:0.3;">
					<rect x="1599.741" y="1224.941" style="fill:#AFCADF;" width="66.484" height="0.654"/>
					<rect x="1572.931" y="1232.938" style="fill:#AFCADF;" width="48.503" height="0.655"/>
					<rect x="1609.449" y="1221.597" style="fill:#AFCADF;" width="56.776" height="0.654"/>
					<rect x="1594.947" y="1218.253" style="fill:#AFCADF;" width="71.278" height="0.654"/>
					<rect x="1572.906" y="1235.374" style="fill:#AFCADF;" width="69.861" height="0.655"/>
				</g>
				<g style="opacity:0.3;">
					<rect x="1588.012" y="1247.486" style="fill:#AFCADF;" width="66.484" height="0.655"/>
					<rect x="1561.201" y="1255.483" style="fill:#AFCADF;" width="48.503" height="0.655"/>
					<rect x="1597.72" y="1244.142" style="fill:#AFCADF;" width="56.776" height="0.654"/>
					<rect x="1583.218" y="1240.798" style="fill:#AFCADF;" width="71.278" height="0.655"/>
					<rect x="1561.177" y="1257.919" style="fill:#AFCADF;" width="69.86" height="0.655"/>
				</g>
				<g style="opacity:0.3;">
					<rect x="1599.741" y="1270.031" style="fill:#AFCADF;" width="66.484" height="0.655"/>
					<rect x="1572.931" y="1278.028" style="fill:#AFCADF;" width="48.503" height="0.654"/>
					<rect x="1609.449" y="1266.687" style="fill:#AFCADF;" width="56.776" height="0.654"/>
					<rect x="1594.947" y="1263.343" style="fill:#AFCADF;" width="71.278" height="0.654"/>
					<rect x="1572.906" y="1280.464" style="fill:#AFCADF;" width="69.861" height="0.654"/>
				</g>
				<g style="opacity:0.3;">
					<rect x="1596.87" y="1292.577" style="fill:#AFCADF;" width="66.484" height="0.654"/>
					<rect x="1570.06" y="1300.574" style="fill:#AFCADF;" width="48.503" height="0.655"/>
					<rect x="1606.578" y="1289.233" style="fill:#AFCADF;" width="56.776" height="0.654"/>
					<rect x="1592.076" y="1285.888" style="fill:#AFCADF;" width="71.278" height="0.655"/>
					<rect x="1570.036" y="1303.009" style="fill:#AFCADF;" width="69.86" height="0.655"/>
				</g>
			</g>
		</g>
		<g>
			
				<rect x="1607.304" y="1176.095" transform="matrix(-1 -1.224647e-16 1.224647e-16 -1 3322.7874 2373.7332)" style="fill:#D9E8F5;" width="108.179" height="21.542"/>
			<g style="opacity:0.3;">
				<rect x="1638.412" y="1185.408" style="fill:#AFCADF;" width="77.071" height="0.625"/>
				<rect x="1607.332" y="1193.05" style="fill:#AFCADF;" width="56.227" height="0.625"/>
				<rect x="1649.666" y="1182.213" style="fill:#AFCADF;" width="65.818" height="0.625"/>
				<rect x="1632.854" y="1179.017" style="fill:#AFCADF;" width="82.629" height="0.625"/>
				<rect x="1607.304" y="1195.377" style="fill:#AFCADF;" width="80.985" height="0.625"/>
			</g>
			
				<rect x="1610.632" y="1197.638" transform="matrix(-1 -1.224647e-16 1.224647e-16 -1 3329.4424 2416.8179)" style="fill:#D9E8F5;" width="108.179" height="21.542"/>
			<g style="opacity:0.3;">
				<rect x="1641.74" y="1206.95" style="fill:#AFCADF;" width="77.071" height="0.625"/>
				<rect x="1610.66" y="1214.592" style="fill:#AFCADF;" width="56.227" height="0.625"/>
				<rect x="1652.993" y="1203.755" style="fill:#AFCADF;" width="65.818" height="0.625"/>
				<rect x="1636.182" y="1200.559" style="fill:#AFCADF;" width="82.629" height="0.625"/>
				<rect x="1610.632" y="1216.919" style="fill:#AFCADF;" width="80.985" height="0.625"/>
			</g>
			
				<rect x="1597.035" y="1219.18" transform="matrix(-1 -1.224647e-16 1.224647e-16 -1 3302.2485 2459.9028)" style="fill:#D9E8F5;" width="108.179" height="21.542"/>
			<g style="opacity:0.3;">
				<rect x="1628.142" y="1228.493" style="fill:#AFCADF;" width="77.071" height="0.625"/>
				<rect x="1597.063" y="1236.134" style="fill:#AFCADF;" width="56.227" height="0.625"/>
				<rect x="1639.396" y="1225.297" style="fill:#AFCADF;" width="65.817" height="0.625"/>
				<rect x="1622.585" y="1222.102" style="fill:#AFCADF;" width="82.629" height="0.625"/>
				<rect x="1597.035" y="1238.462" style="fill:#AFCADF;" width="80.985" height="0.625"/>
			</g>
			
				<rect x="1610.632" y="1240.723" transform="matrix(-1 -1.224647e-16 1.224647e-16 -1 3329.4424 2502.9873)" style="fill:#D9E8F5;" width="108.179" height="21.542"/>
			<g style="opacity:0.3;">
				<rect x="1641.74" y="1250.035" style="fill:#AFCADF;" width="77.071" height="0.625"/>
				<rect x="1610.66" y="1257.677" style="fill:#AFCADF;" width="56.227" height="0.625"/>
				<rect x="1652.993" y="1246.839" style="fill:#AFCADF;" width="65.818" height="0.625"/>
				<rect x="1636.182" y="1243.644" style="fill:#AFCADF;" width="82.629" height="0.625"/>
				<rect x="1610.632" y="1260.004" style="fill:#AFCADF;" width="80.985" height="0.625"/>
			</g>
			
				<rect x="1607.304" y="1262.265" transform="matrix(-1 -1.224647e-16 1.224647e-16 -1 3322.7874 2546.072)" style="fill:#D9E8F5;" width="108.179" height="21.543"/>
			<g style="opacity:0.3;">
				<rect x="1638.412" y="1271.578" style="fill:#AFCADF;" width="77.071" height="0.625"/>
				<rect x="1607.332" y="1279.219" style="fill:#AFCADF;" width="56.227" height="0.625"/>
				<rect x="1649.666" y="1268.382" style="fill:#AFCADF;" width="65.818" height="0.625"/>
				<rect x="1632.854" y="1265.187" style="fill:#AFCADF;" width="82.629" height="0.625"/>
				<rect x="1607.304" y="1281.546" style="fill:#AFCADF;" width="80.985" height="0.625"/>
			</g>
			
				<rect x="1607.304" y="1283.807" transform="matrix(-1 -1.224647e-16 1.224647e-16 -1 3322.7874 2589.157)" style="fill:#D9E8F5;" width="108.179" height="21.542"/>
			<g style="opacity:0.3;">
				<rect x="1638.412" y="1293.12" style="fill:#AFCADF;" width="77.071" height="0.625"/>
				<rect x="1607.332" y="1300.761" style="fill:#AFCADF;" width="56.227" height="0.625"/>
				<rect x="1649.666" y="1289.925" style="fill:#AFCADF;" width="65.818" height="0.625"/>
				<rect x="1632.854" y="1286.729" style="fill:#AFCADF;" width="82.629" height="0.625"/>
				<rect x="1607.304" y="1303.088" style="fill:#AFCADF;" width="80.985" height="0.626"/>
			</g>
		</g>
		<path style="fill:#9ED1FA;" d="M1306.029,1032.262c0,0-75.867,31.962-110.581-21.018c0,0-8.406,54.813,5.191,76.556
			c0,0,63.414,26.589,123.259,8.558C1323.898,1096.358,1299.617,1069.777,1306.029,1032.262z"/>
		<path style="opacity:0.3;fill:#AFCADF;" d="M1323.898,1096.358c-59.844,18.03-123.259-8.558-123.259-8.558
			c-13.597-21.743-5.191-76.556-5.191-76.556C1196.493,1100.894,1323.898,1096.358,1323.898,1096.358z"/>
		<polygon style="fill:#7DB7E6;" points="1381.091,835.989 1381.091,835.989 1381.091,835.989 		"/>
		<path style="opacity:0.2;fill:#C84F54;" d="M1429.181,819.55l0.005-0.166c-0.137,0.005-0.22,0.007-0.22,0.007
			S1429.048,819.452,1429.181,819.55z"/>
	</g>
</g>
</svg>
