<?xml version="1.0" encoding="utf-8"?>
<svg xmlns="http://www.w3.org/2000/svg" viewBox="0 0 500 500" width="500px" height="500px"><path style="stroke: rgb(0, 0, 0); fill-rule: nonzero; paint-order: fill; stroke-width: 0px; stroke-miterlimit: 4.09; stroke-linecap: round; fill: color(a98-rgb 0.492 0.871 0.605);" d="M 204.375 98.436 H 252.375 A 1 1 0 0 1 253.375 99.436 V 148.436 H 203.375 V 99.436 A 1 1 0 0 1 204.375 98.436 Z"/><path style="stroke: rgb(0, 0, 0); fill-rule: nonzero; paint-order: fill; stroke-width: 0px; stroke-miterlimit: 4.09; stroke-linecap: round; transform-origin: 255.79px 174.023px 0px; fill: color(a98-rgb 0.375 0.202 0.91);" d="M 203.348 148.412 H 302.348 A 1 1 0 0 1 303.348 149.412 V 197.412 A 1 1 0 0 1 302.348 198.412 H 203.348 V 148.412 Z"/><rect style="stroke: rgb(0, 0, 0); fill-rule: nonzero; paint-order: fill; stroke-width: 0px; stroke-miterlimit: 4.09; stroke-linecap: round; fill: color(a98-rgb 0.341 0.487 0.886);" x="203.328" y="198.437" width="50" height="50"/><ellipse style="stroke: rgb(0, 0, 0); stroke-width: 0px; fill: rgb(236, 216, 12);" cx="180.854" cy="174.351" rx="20" ry="20"/><path style="paint-order: stroke; fill: rgb(232, 95, 46); stroke: rgb(232, 95, 46);" d="M 203.874 248.543 L 252.886 248.543 L 252.886 300.513 C 252.886 300.513 209.893 291.827 203.874 248.543 Z"/><ellipse style="stroke: rgb(0, 0, 0); stroke-width: 0px; fill: rgb(232, 95, 46);" cx="268.229" cy="289.552" rx="12.5" ry="12.5"/></svg>