<?xml version="1.0" encoding="utf-8"?>
<!-- Generator: Adobe Illustrator 27.5.0, SVG Export Plug-In . SVG Version: 6.00 Build 0)  -->
<svg version="1.1" xmlns="http://www.w3.org/2000/svg" xmlns:xlink="http://www.w3.org/1999/xlink" x="0px" y="0px"
	 viewBox="0 0 750 500" style="enable-background:new 0 0 750 500;" xml:space="preserve">
<g id="Background_Simple">
	<g>
		<path style="fill:#92E3A9;" d="M724.823,375.887c18.628-39.197,21.38-83.983,17.011-127.209
			c-3.875-38.342-9.725-82.32-26.082-116.929C674.317,44.079,569.564,2.932,484.506,29.295
			c-35.475,10.995-60.36,36.485-88.844,60.739c-21.059,17.932-44.167,35.443-71.377,39.027
			c-65.173,8.586-139.335-61.327-201.137-55.194C61.346,80,13.028,142.553,10.78,196.521
			c-2.247,53.968,44.947,109.162,40.452,145.958c-4.495,36.796-33.71,134.919,82.028,138.599s176.416-69.913,221.363-53.968
			c44.946,15.945,143.827,62.552,226.978,50.289c54.249-8.001,107.281-38.277,137.021-89.71
			C720.863,383.814,722.926,379.878,724.823,375.887z"/>
		<path style="opacity:0.7;fill:#FFFFFF;" d="M724.823,375.887c18.628-39.197,21.38-83.983,17.011-127.209
			c-3.875-38.342-9.725-82.32-26.082-116.929C674.317,44.079,569.564,2.932,484.506,29.295
			c-35.475,10.995-60.36,36.485-88.844,60.739c-21.059,17.932-44.167,35.443-71.377,39.027
			c-65.173,8.586-139.335-61.327-201.137-55.194C61.346,80,13.028,142.553,10.78,196.521
			c-2.247,53.968,44.947,109.162,40.452,145.958c-4.495,36.796-33.71,134.919,82.028,138.599s176.416-69.913,221.363-53.968
			c44.946,15.945,143.827,62.552,226.978,50.289c54.249-8.001,107.281-38.277,137.021-89.71
			C720.863,383.814,722.926,379.878,724.823,375.887z"/>
	</g>
</g>
<g id="Money_00000180359768118070590670000014768248579249288124_">
	<g>
		<g>
			<path style="fill:none;stroke:#263238;stroke-linecap:round;stroke-linejoin:round;stroke-miterlimit:10;" d="M188.065,111.81
				V105.3c-4.516-0.22-7.903-1.677-10.16-4.373c-2.259-2.696-3.475-6.85-3.65-12.462l10.062-1.512
				c0.043,2.28,0.241,4.121,0.592,5.524c0.35,1.404,0.865,2.412,1.545,3.025c0.679,0.615,1.501,0.92,2.466,0.92
				c1.227,0,2.028-0.416,2.4-1.249c0.372-0.832,0.559-1.71,0.559-2.631c0-2.192-0.516-4.045-1.545-5.557
				c-1.031-1.513-2.445-3.036-4.242-4.571l-4.669-4.011c-1.315-1.184-2.51-2.4-3.584-3.65c-1.075-1.25-1.94-2.696-2.598-4.34
				c-0.658-1.644-0.987-3.606-0.987-5.886c0-4.165,1.194-7.431,3.584-9.799c2.389-2.368,5.6-3.705,9.635-4.012v-6.247h3.354v6.182
				c2.542,0.132,4.581,0.713,6.116,1.743c1.534,1.031,2.685,2.302,3.452,3.815c0.767,1.513,1.293,3.114,1.579,4.801
				c0.285,1.688,0.449,3.255,0.493,4.702l-10.193,1.249c-0.044-1.578-0.143-2.96-0.296-4.143c-0.154-1.184-0.46-2.093-0.921-2.729
				c-0.46-0.635-1.195-0.931-2.203-0.888c-1.096,0-1.907,0.46-2.433,1.381c-0.526,0.921-0.789,1.841-0.789,2.762
				c0,2.104,0.536,3.804,1.611,5.096c1.074,1.294,2.246,2.51,3.518,3.65l4.472,3.88c1.49,1.36,2.861,2.807,4.11,4.34
				c1.249,1.535,2.246,3.245,2.992,5.13c0.745,1.886,1.118,4.056,1.118,6.511c0,2.325-0.483,4.45-1.447,6.379
				c-0.965,1.93-2.346,3.497-4.143,4.702c-1.798,1.206-3.946,1.94-6.445,2.203v6.576H188.065z"/>
		</g>
		<path style="fill:none;stroke:#263238;stroke-linecap:round;stroke-linejoin:round;stroke-miterlimit:10;" d="M228.304,70.827
			c-3.437-18.663-19.792-32.802-39.449-32.802c-22.154,0-40.114,17.96-40.114,40.114c0,22.154,17.96,40.114,40.114,40.114
			c20.31,0,37.095-15.094,39.749-34.676"/>
	</g>
	<g>
		<g>
			<path style="fill:none;stroke:#263238;stroke-linecap:round;stroke-linejoin:round;stroke-miterlimit:10;" d="M674.092,280.271
				v-4.907c-3.404-0.166-5.956-1.264-7.658-3.296c-1.702-2.032-2.619-5.163-2.751-9.393l7.583-1.14
				c0.033,1.718,0.181,3.106,0.446,4.163c0.264,1.058,0.652,1.818,1.165,2.28c0.512,0.463,1.132,0.694,1.859,0.694
				c0.925,0,1.528-0.314,1.809-0.942c0.28-0.627,0.421-1.289,0.421-1.983c0-1.652-0.389-3.048-1.165-4.188
				c-0.777-1.14-1.843-2.288-3.197-3.445l-3.519-3.023c-0.991-0.892-1.892-1.809-2.701-2.751c-0.81-0.942-1.462-2.032-1.958-3.271
				c-0.496-1.239-0.744-2.717-0.744-4.436c0-3.139,0.9-5.601,2.701-7.385c1.801-1.784,4.221-2.792,7.261-3.023v-4.709h2.528v4.659
				c1.916,0.099,3.453,0.537,4.61,1.313c1.156,0.777,2.024,1.735,2.602,2.875c0.578,1.14,0.974,2.347,1.19,3.618
				c0.214,1.272,0.338,2.453,0.372,3.544l-7.682,0.942c-0.034-1.189-0.108-2.23-0.223-3.123c-0.116-0.892-0.347-1.578-0.694-2.057
				c-0.347-0.479-0.901-0.701-1.66-0.669c-0.826,0-1.437,0.347-1.834,1.041c-0.397,0.694-0.595,1.388-0.595,2.082
				c0,1.586,0.404,2.867,1.214,3.841c0.809,0.975,1.693,1.892,2.652,2.751l3.37,2.924c1.123,1.025,2.156,2.115,3.098,3.271
				c0.942,1.157,1.693,2.446,2.255,3.866c0.562,1.421,0.843,3.057,0.843,4.907c0,1.752-0.364,3.354-1.09,4.808
				c-0.727,1.454-1.768,2.635-3.123,3.544c-1.355,0.909-2.974,1.462-4.857,1.66v4.956H674.092z"/>
		</g>
		<path style="fill:none;stroke:#263238;stroke-linecap:round;stroke-linejoin:round;stroke-miterlimit:10;" d="M698.257,235.957
			c-5.541-6.889-14.041-11.297-23.57-11.297c-16.697,0-30.233,13.536-30.233,30.233s13.536,30.233,30.233,30.233
			c16.697,0,30.233-13.536,30.233-30.233c0-3.584-0.624-7.023-1.768-10.213"/>
	</g>
	<g>
		<g>
			<path style="fill:none;stroke:#263238;stroke-linecap:round;stroke-linejoin:round;stroke-miterlimit:10;" d="M439.737,445.132
				v-3.338c-2.315-0.113-4.052-0.86-5.209-2.242c-1.158-1.382-1.782-3.512-1.871-6.389l5.159-0.775
				c0.022,1.169,0.123,2.113,0.303,2.832c0.18,0.72,0.443,1.236,0.792,1.551c0.348,0.315,0.77,0.472,1.264,0.472
				c0.629,0,1.04-0.213,1.231-0.641c0.191-0.427,0.287-0.876,0.287-1.349c0-1.124-0.264-2.073-0.792-2.849
				c-0.529-0.776-1.253-1.556-2.175-2.343l-2.394-2.057c-0.674-0.607-1.287-1.231-1.837-1.871c-0.551-0.641-0.995-1.382-1.332-2.225
				c-0.337-0.843-0.506-1.849-0.506-3.018c0-2.135,0.612-3.81,1.838-5.024c1.225-1.214,2.871-1.899,4.939-2.056v-3.203h1.719v3.169
				c1.303,0.068,2.348,0.366,3.136,0.893c0.786,0.528,1.376,1.18,1.77,1.956c0.393,0.775,0.663,1.596,0.809,2.461
				c0.146,0.865,0.23,1.669,0.253,2.411l-5.226,0.641c-0.023-0.809-0.073-1.517-0.152-2.124c-0.079-0.607-0.236-1.073-0.472-1.399
				c-0.236-0.326-0.613-0.477-1.129-0.455c-0.562,0-0.978,0.236-1.247,0.708c-0.27,0.472-0.404,0.944-0.404,1.416
				c0,1.079,0.275,1.95,0.826,2.613c0.551,0.663,1.152,1.287,1.804,1.871l2.293,1.989c0.764,0.697,1.467,1.439,2.107,2.225
				c0.641,0.787,1.152,1.664,1.534,2.63c0.382,0.967,0.573,2.079,0.573,3.338c0,1.192-0.248,2.282-0.742,3.271
				c-0.495,0.989-1.203,1.793-2.124,2.411c-0.922,0.618-2.023,0.995-3.304,1.129v3.371H439.737z"/>
		</g>
		<path style="fill:none;stroke:#263238;stroke-linecap:round;stroke-linejoin:round;stroke-miterlimit:10;" d="M421.47,419.237
			c-1.215,2.625-1.894,5.549-1.894,8.632c0,11.358,9.207,20.565,20.565,20.565c11.358,0,20.565-9.207,20.565-20.565
			c0-11.358-9.207-20.565-20.565-20.565c-6.111,0-11.599,2.665-15.366,6.897"/>
	</g>
	<g>
		<g>
			<path style="fill:none;stroke:#263238;stroke-linecap:round;stroke-linejoin:round;stroke-miterlimit:10;" d="M430.908,51.928
				V48.59c-2.315-0.113-4.052-0.86-5.209-2.242c-1.158-1.382-1.782-3.512-1.871-6.389l5.158-0.775
				c0.022,1.169,0.123,2.113,0.304,2.832c0.18,0.72,0.443,1.236,0.792,1.551c0.348,0.315,0.77,0.472,1.264,0.472
				c0.629,0,1.039-0.213,1.231-0.64c0.191-0.427,0.287-0.876,0.287-1.349c0-1.124-0.264-2.073-0.792-2.849
				c-0.529-0.776-1.253-1.556-2.175-2.343l-2.394-2.056c-0.674-0.607-1.287-1.231-1.837-1.871c-0.551-0.641-0.995-1.382-1.332-2.225
				c-0.337-0.843-0.506-1.849-0.506-3.018c0-2.135,0.612-3.81,1.838-5.024c1.225-1.214,2.871-1.899,4.939-2.057v-3.203h1.719v3.169
				c1.303,0.068,2.349,0.366,3.136,0.893c0.786,0.528,1.376,1.18,1.77,1.956c0.393,0.775,0.663,1.596,0.809,2.461
				c0.146,0.865,0.23,1.669,0.253,2.411l-5.226,0.64c-0.023-0.809-0.073-1.517-0.152-2.124c-0.079-0.607-0.236-1.073-0.472-1.399
				c-0.236-0.326-0.613-0.477-1.129-0.455c-0.562,0-0.978,0.236-1.247,0.708c-0.27,0.472-0.405,0.944-0.405,1.416
				c0,1.079,0.275,1.95,0.826,2.613c0.551,0.663,1.152,1.287,1.804,1.871l2.293,1.989c0.764,0.697,1.467,1.439,2.107,2.225
				c0.641,0.787,1.152,1.664,1.534,2.63c0.382,0.967,0.573,2.079,0.573,3.338c0,1.192-0.248,2.282-0.742,3.271
				c-0.495,0.989-1.203,1.793-2.124,2.411c-0.922,0.618-2.023,0.995-3.304,1.13v3.371H430.908z"/>
		</g>
		
			<circle style="fill:none;stroke:#263238;stroke-linecap:round;stroke-linejoin:round;stroke-miterlimit:10;" cx="431.313" cy="34.666" r="20.565"/>
	</g>
	<g>
		<g>
			<path style="fill:none;stroke:#263238;stroke-linecap:round;stroke-linejoin:round;stroke-miterlimit:10;" d="M379.898,230.883
				v-3.338c-2.315-0.113-4.052-0.86-5.209-2.242c-1.158-1.382-1.782-3.512-1.871-6.389l5.159-0.775
				c0.022,1.169,0.123,2.113,0.303,2.832c0.18,0.72,0.444,1.237,0.792,1.551c0.348,0.315,0.77,0.472,1.264,0.472
				c0.629,0,1.039-0.213,1.231-0.64c0.191-0.427,0.287-0.877,0.287-1.349c0-1.124-0.264-2.073-0.792-2.849
				c-0.529-0.775-1.253-1.556-2.175-2.343l-2.394-2.057c-0.674-0.607-1.287-1.231-1.837-1.871c-0.551-0.641-0.995-1.382-1.332-2.225
				c-0.337-0.843-0.506-1.848-0.506-3.018c0-2.135,0.612-3.81,1.838-5.023c1.225-1.214,2.871-1.899,4.939-2.057v-3.203h1.719v3.169
				c1.303,0.067,2.348,0.366,3.136,0.893c0.786,0.528,1.376,1.18,1.77,1.956c0.393,0.775,0.663,1.596,0.809,2.461
				c0.146,0.865,0.23,1.669,0.253,2.411l-5.226,0.641c-0.023-0.809-0.073-1.517-0.152-2.124c-0.079-0.607-0.236-1.073-0.472-1.399
				c-0.236-0.326-0.613-0.477-1.13-0.455c-0.562,0-0.978,0.236-1.247,0.708c-0.27,0.472-0.404,0.944-0.404,1.416
				c0,1.079,0.275,1.95,0.826,2.613c0.551,0.663,1.152,1.287,1.804,1.871l2.293,1.989c0.764,0.697,1.467,1.439,2.107,2.225
				c0.641,0.787,1.152,1.664,1.534,2.63c0.382,0.967,0.573,2.079,0.573,3.338c0,1.192-0.248,2.282-0.742,3.27
				c-0.495,0.989-1.203,1.793-2.124,2.411c-0.922,0.618-2.023,0.995-3.304,1.129v3.372H379.898z"/>
		</g>
		
			<circle style="fill:none;stroke:#263238;stroke-linecap:round;stroke-linejoin:round;stroke-miterlimit:10;" cx="380.303" cy="213.621" r="20.565"/>
	</g>
	<g>
		<g>
			<path style="fill:none;stroke:#263238;stroke-linecap:round;stroke-linejoin:round;stroke-miterlimit:10;" d="M86.196,295.551
				v-4.907c-3.403-0.166-5.956-1.264-7.658-3.296c-1.702-2.032-2.619-5.162-2.751-9.393l7.584-1.14
				c0.033,1.718,0.181,3.106,0.446,4.163c0.264,1.058,0.652,1.818,1.165,2.28c0.512,0.463,1.132,0.694,1.859,0.694
				c0.925,0,1.528-0.314,1.809-0.942c0.281-0.627,0.421-1.289,0.421-1.983c0-1.652-0.389-3.048-1.165-4.188
				c-0.777-1.14-1.842-2.288-3.197-3.445l-3.519-3.023c-0.991-0.892-1.892-1.809-2.701-2.751c-0.81-0.942-1.462-2.032-1.958-3.271
				c-0.496-1.239-0.744-2.717-0.744-4.436c0-3.139,0.9-5.601,2.701-7.385c1.8-1.784,4.221-2.792,7.261-3.023v-4.709h2.528v4.659
				c1.916,0.099,3.453,0.538,4.61,1.313c1.156,0.777,2.024,1.735,2.602,2.875c0.578,1.14,0.974,2.347,1.19,3.618
				c0.214,1.272,0.338,2.453,0.372,3.544l-7.682,0.942c-0.033-1.19-0.108-2.23-0.223-3.123c-0.116-0.892-0.347-1.578-0.694-2.057
				c-0.347-0.479-0.901-0.701-1.66-0.669c-0.826,0-1.437,0.347-1.834,1.041c-0.397,0.694-0.595,1.388-0.595,2.082
				c0,1.586,0.404,2.867,1.214,3.841c0.809,0.975,1.693,1.892,2.652,2.751l3.37,2.924c1.123,1.025,2.156,2.115,3.098,3.271
				c0.942,1.157,1.693,2.446,2.255,3.866c0.561,1.421,0.843,3.057,0.843,4.907c0,1.752-0.364,3.354-1.09,4.808
				c-0.727,1.454-1.768,2.635-3.123,3.544c-1.355,0.909-2.974,1.462-4.857,1.66v4.956H86.196z"/>
		</g>
		<path style="fill:none;stroke:#263238;stroke-linecap:round;stroke-linejoin:round;stroke-miterlimit:10;" d="M57.615,278.129
			c3.492,12.838,15.232,22.278,29.176,22.278c16.697,0,30.233-13.536,30.233-30.233s-13.536-30.233-30.233-30.233
			s-30.233,13.536-30.233,30.233"/>
	</g>
</g>
<g id="Clouds_2">
	<g>
		<path style="fill:#FFFFFF;stroke:#263238;stroke-linecap:round;stroke-linejoin:round;stroke-miterlimit:10;" d="M594.17,92.295
			c-3.86,0.678-7.684-1.337-9.561-4.778c-4.722-8.656-23.857-39.099-60.387-41.128c-42.619-2.368-45.776,37.094-58.404,44.987
			c-12.628,7.892-17.363-8.682-41.83-11.839c-24.467-3.157-27.624,22.888-33.937,25.256c-6.314,2.368-19.731-14.206-34.727-11.049
			c-14.996,3.157-13.417,18.153-19.731,19.731s-15.785-4.735-22.099-2.368c-6.314,2.368-9.471,11.839-9.471,11.839h327.536
			c0,0-4.117-22.956-13.281-29.708C608.243,85.843,600.721,91.145,594.17,92.295z"/>
		<path style="fill:#FFFFFF;stroke:#263238;stroke-linecap:round;stroke-linejoin:round;stroke-miterlimit:10;" d="M599.41,107.587
			c-1.934,0.34-3.851-0.67-4.791-2.394c-2.366-4.338-11.955-19.592-30.26-20.609c-21.357-1.186-22.939,18.588-29.266,22.543
			c-6.328,3.955-8.701-4.35-20.961-5.932s-13.842,11.469-17.006,12.656c-3.164,1.187-9.887-7.119-17.402-5.537
			c-7.514,1.582-6.723,9.096-9.887,9.887c-3.164,0.791-7.91-2.373-11.074-1.187c-3.164,1.187-4.746,5.932-4.746,5.932h164.13
			c0,0-2.063-11.503-6.655-14.887C606.462,104.354,602.693,107.01,599.41,107.587z"/>
	</g>
	<g>
		<path style="fill:#FFFFFF;stroke:#263238;stroke-linecap:round;stroke-linejoin:round;stroke-miterlimit:10;" d="M694.616,354.639
			c-3.27,0.574-6.51-1.133-8.1-4.048c-4-7.334-20.212-33.125-51.162-34.845c-36.108-2.006-38.783,31.427-49.481,38.114
			c-10.699,6.687-14.711-7.355-35.439-10.03c-20.729-2.675-23.403,19.391-28.753,21.397c-5.349,2.006-16.717-12.036-29.421-9.361
			c-12.705,2.675-11.367,15.379-16.717,16.717c-5.349,1.337-13.373-4.012-18.723-2.006c-5.349,2.006-8.024,10.03-8.024,10.03
			h277.497c0,0-3.488-19.449-11.252-25.17C706.539,349.173,700.166,353.664,694.616,354.639z"/>
		<path style="fill:#FFFFFF;stroke:#263238;stroke-linecap:round;stroke-linejoin:round;stroke-miterlimit:10;" d="M699.056,367.594
			c-1.639,0.288-3.262-0.568-4.059-2.028c-2.005-3.675-10.128-16.599-25.638-17.461c-18.094-1.005-19.434,15.748-24.795,19.099
			c-5.361,3.351-7.372-3.686-17.759-5.026c-10.387-1.34-11.727,9.717-14.408,10.722c-2.68,1.005-8.377-6.031-14.743-4.691
			c-6.366,1.34-5.696,7.707-8.377,8.377c-2.68,0.67-6.701-2.01-9.382-1.005c-2.681,1.005-4.021,5.026-4.021,5.026h139.055
			c0,0-1.748-9.746-5.638-12.613C705.031,364.855,701.837,367.106,699.056,367.594z"/>
	</g>
</g>
<g id="Arrow">
	<polygon style="fill:#263238;stroke:#263238;stroke-miterlimit:10;" points="678.2,24.312 608.512,65.76 632.047,75.05 
		557.704,198.441 480.287,198.441 445.449,262.697 387.386,261.923 318.843,347.082 239.052,348.353 171.587,415.219 
		81.565,415.513 11.216,499.837 105.461,499.837 128.276,468.376 205.749,468.376 265.876,409.016 352.548,409.016 412.628,331.599 
		476.808,331.599 511.115,245.852 597.628,245.852 669.835,88.722 692.927,98.632 	"/>
</g>
<g id="House">
	<g>
		<g>
			
				<rect x="569.123" y="139.37" style="fill:#92E3A9;stroke:#263238;stroke-linecap:round;stroke-linejoin:round;stroke-miterlimit:10;" width="55.154" height="42.42"/>
			<polygon style="fill:#B0B0B0;stroke:#263238;stroke-linecap:round;stroke-linejoin:round;stroke-miterlimit:10;" points="
				630.109,138.25 489.172,138.25 509.334,101.172 606.53,101.172 			"/>
			<g>
				
					<rect x="499.456" y="87.966" style="fill:#C9C9C9;stroke:#263238;stroke-linecap:round;stroke-linejoin:round;stroke-miterlimit:10;" width="4.731" height="31.265"/>
				<polygon style="fill:#7D7D7D;stroke:#263238;stroke-linecap:round;stroke-linejoin:round;stroke-miterlimit:10;" points="
					507.85,119.231 504.188,119.231 504.188,87.966 507.85,90.64 				"/>
			</g>
			
				<rect x="576.43" y="138.25" style="fill:#263238;stroke:#263238;stroke-linecap:round;stroke-linejoin:round;stroke-miterlimit:10;" width="53.68" height="2.577"/>
			<polygon style="fill:#92E3A9;stroke:#263238;stroke-linecap:round;stroke-linejoin:round;stroke-miterlimit:10;" points="
				575.338,181.79 493.337,181.79 493.337,138.712 531.929,80.829 575.338,138.712 			"/>
			<g>
				
					<rect x="499.441" y="145.952" style="fill:#FFFFFF;stroke:#263238;stroke-linecap:round;stroke-linejoin:round;stroke-miterlimit:10;" width="27.68" height="20.541"/>
				
					<rect x="500.975" y="147.733" style="fill:#263238;stroke:#263238;stroke-linecap:round;stroke-linejoin:round;stroke-miterlimit:10;" width="24.612" height="16.978"/>
			</g>
			<g>
				<polygon style="fill:#263238;" points="491.92,140.827 488.54,138.459 532.346,75.94 565.618,121.122 562.295,123.568 
					532.43,83.012 				"/>
			</g>
			<g>
				<path style="fill:#FFFFFF;stroke:#263238;stroke-linecap:round;stroke-linejoin:round;stroke-miterlimit:10;" d="
					M537.78,123.088h-10.553v-12.345c0-2.674,2.168-4.841,4.841-4.841h0.87c2.674,0,4.841,2.168,4.841,4.841V123.088z"/>
				<path style="fill:#263238;stroke:#263238;stroke-linecap:round;stroke-linejoin:round;stroke-miterlimit:10;" d="
					M536.036,121.525h-7.065v-10.204c0-1.79,1.451-3.241,3.241-3.241h0.582c1.79,0,3.241,1.451,3.241,3.241V121.525z"/>
			</g>
			<g>
				
					<rect x="587.388" y="145.952" style="fill:#FFFFFF;stroke:#263238;stroke-linecap:round;stroke-linejoin:round;stroke-miterlimit:10;" width="27.68" height="20.541"/>
				
					<rect x="588.922" y="147.733" style="fill:#263238;stroke:#263238;stroke-linecap:round;stroke-linejoin:round;stroke-miterlimit:10;" width="24.612" height="16.978"/>
			</g>
			<polygon style="fill:#92E3A9;stroke:#263238;stroke-linecap:round;stroke-linejoin:round;stroke-miterlimit:10;" points="
				580.99,181.79 525.836,181.79 525.836,144.112 552.443,105.342 580.99,144.112 			"/>
			<path style="fill:#263238;stroke:#263238;stroke-linecap:round;stroke-linejoin:round;stroke-miterlimit:10;" d="
				M553.387,136.461l-0.497-0.2c-4.778-1.919-10.117-1.897-14.88,0.062l-0.283,0.117c-2.71,1.115-4.479,3.755-4.479,6.685v33.593
				h24.674v-33.55C557.922,140.217,556.126,137.561,553.387,136.461z"/>
			<g>
				<polygon style="fill:#263238;" points="582.349,149.434 552.454,108.837 524.635,147.162 521.295,144.738 552.43,101.846 
					585.672,146.987 				"/>
			</g>
			
				<rect x="528.407" y="179.376" style="fill:#FFFFFF;stroke:#263238;stroke-linecap:round;stroke-linejoin:round;stroke-miterlimit:10;" width="34.355" height="2.414"/>
			
				<rect x="531.016" y="176.918" style="fill:#FFFFFF;stroke:#263238;stroke-linecap:round;stroke-linejoin:round;stroke-miterlimit:10;" width="29.137" height="2.414"/>
			
				<rect x="535.128" y="174.559" style="fill:#FFFFFF;stroke:#263238;stroke-linecap:round;stroke-linejoin:round;stroke-miterlimit:10;" width="20.913" height="2.414"/>
			
				<rect x="538.753" y="144.18" style="fill:#8F8F8F;stroke:#263238;stroke-linecap:round;stroke-linejoin:round;stroke-miterlimit:10;" width="13.664" height="30.277"/>
			
				<rect x="565.137" y="145.065" style="fill:#FFFFFF;stroke:#263238;stroke-linecap:round;stroke-linejoin:round;stroke-miterlimit:10;" width="7.668" height="16.613"/>
			
				<rect x="566.178" y="147.32" style="fill:#263238;stroke:#263238;stroke-linecap:round;stroke-linejoin:round;stroke-miterlimit:10;" width="5.586" height="12.103"/>
		</g>
		<g>
			<rect x="485.25" y="184.044" style="fill:#9C9C9C;stroke:#263238;stroke-miterlimit:10;" width="143.36" height="8.228"/>
			<polygon style="fill:#92E3A9;stroke:#263238;stroke-linecap:round;stroke-linejoin:round;stroke-miterlimit:10;" points="
				626.422,180.738 624.181,182.085 623.492,180.615 621.94,181.84 620.044,180.861 619.182,182.698 615.907,180.615 
				613.838,181.473 613.321,179.513 609.528,181.718 608.666,180.248 607.287,181.718 605.046,180.615 603.495,181.595 
				601.599,180.493 599.875,181.595 599.53,180.003 596.772,181.963 595.393,180.861 593.669,182.085 591.945,181.105 
				590.221,181.84 589.532,180.003 588.554,180.813 588.497,180.738 587.377,181.412 586.946,179.881 585.846,181.21 
				585.567,180.615 584.632,181.353 583.326,180.003 582.561,181.089 582.119,180.861 581.904,181.319 577.982,179.758 
				578.891,181.193 577.982,180.615 575.913,181.473 575.396,179.513 571.604,181.718 570.742,180.248 569.362,181.718 
				567.121,180.615 565.57,181.595 563.674,180.493 561.95,181.595 561.605,180.003 558.847,181.963 557.468,180.861 
				555.744,182.085 554.02,181.105 552.296,181.84 551.607,180.003 549.538,181.718 549.021,179.881 547.297,181.963 
				545.401,180.003 544.367,181.473 540.057,179.758 541.609,182.208 540.057,181.105 538.514,181.893 537.644,180.738 
				535.403,182.085 534.713,180.615 533.162,181.84 531.265,180.861 530.403,182.698 527.128,180.615 525.06,181.473 
				524.542,179.513 520.75,181.718 519.888,180.248 518.509,181.718 516.268,180.615 514.716,181.595 512.82,180.493 
				511.096,181.595 510.751,180.003 507.993,181.963 506.614,180.861 504.89,182.085 503.167,181.105 501.443,181.84 
				500.753,180.003 498.684,181.718 498.167,179.881 496.443,181.963 494.547,180.003 493.513,181.473 489.203,179.758 
				490.755,182.208 489.203,181.105 484.925,183.289 485.928,184.168 536.782,184.168 540.229,184.168 574.706,184.168 
				591.083,184.168 629.008,184.168 			"/>
			<g>
				<rect x="503.715" y="192.326" style="fill:#5C5C5C;stroke:#263238;stroke-miterlimit:10;" width="6.287" height="5.521"/>
				<rect x="537.096" y="192.326" style="fill:#5C5C5C;stroke:#263238;stroke-miterlimit:10;" width="6.287" height="5.521"/>
				<rect x="570.477" y="192.326" style="fill:#5C5C5C;stroke:#263238;stroke-miterlimit:10;" width="6.287" height="5.521"/>
				<rect x="603.858" y="192.326" style="fill:#5C5C5C;stroke:#263238;stroke-miterlimit:10;" width="6.287" height="5.521"/>
			</g>
		</g>
	</g>
</g>
<g id="Clouds_1">
	<g>
		<path style="fill:#FFFFFF;stroke:#263238;stroke-linecap:round;stroke-linejoin:round;stroke-miterlimit:10;" d="M293.988,178.914
			c-3.685,0.647-7.337-1.277-9.128-4.562c-4.508-8.265-22.777-37.329-57.654-39.266c-40.69-2.261-43.704,35.415-55.76,42.95
			c-12.056,7.535-16.577-8.289-39.936-11.303c-23.359-3.014-26.373,21.852-32.401,24.113c-6.028,2.26-18.838-13.563-33.155-10.549
			c-14.317,3.014-12.81,17.331-18.838,18.838c-6.028,1.507-15.07-4.521-21.098-2.261c-6.028,2.261-9.042,11.303-9.042,11.303
			h312.709c0,0-3.931-21.917-12.68-28.363C307.424,172.754,300.242,177.815,293.988,178.914z"/>
		<path style="fill:#FFFFFF;stroke:#263238;stroke-linecap:round;stroke-linejoin:round;stroke-miterlimit:10;" d="M298.991,193.513
			c-1.847,0.324-3.676-0.64-4.574-2.286c-2.259-4.141-11.414-18.706-28.891-19.676c-20.39-1.133-21.9,17.747-27.942,21.523
			c-6.042,3.776-8.307-4.154-20.012-5.664c-11.705-1.51-13.216,10.95-16.236,12.083c-3.021,1.133-9.44-6.797-16.614-5.286
			c-7.174,1.51-6.419,8.685-9.44,9.44c-3.021,0.755-7.552-2.266-10.573-1.133c-3.021,1.133-4.531,5.664-4.531,5.664h156.7
			c0,0-1.97-10.982-6.354-14.213C305.724,190.426,302.125,192.962,298.991,193.513z"/>
	</g>
	<g>
		<path style="fill:#FFFFFF;stroke:#263238;stroke-linecap:round;stroke-linejoin:round;stroke-miterlimit:10;" d="M696.511,115.782
			c-1.513,0.266-3.012-0.524-3.747-1.873c-1.851-3.393-9.351-15.325-23.669-16.12c-16.705-0.928-17.942,14.539-22.891,17.633
			c-4.95,3.093-6.806-3.403-16.395-4.64c-9.59-1.237-10.827,8.971-13.302,9.899c-2.475,0.928-7.734-5.568-13.611-4.331
			c-5.878,1.237-5.259,7.115-7.734,7.734c-2.475,0.619-6.187-1.856-8.662-0.928c-2.475,0.928-3.712,4.64-3.712,4.64h128.378
			c0,0-1.614-8.998-5.205-11.644C702.027,113.253,699.079,115.331,696.511,115.782z"/>
		<path style="fill:#FFFFFF;stroke:#263238;stroke-linecap:round;stroke-linejoin:round;stroke-miterlimit:10;" d="M698.565,121.775
			c-0.758,0.133-1.509-0.263-1.878-0.938c-0.927-1.7-4.686-7.679-11.861-8.078c-8.371-0.465-8.991,7.286-11.471,8.836
			c-2.48,1.55-3.41-1.705-8.216-2.325c-4.805-0.62-5.425,4.495-6.666,4.96c-1.24,0.465-3.875-2.79-6.821-2.17
			c-2.945,0.62-2.635,3.565-3.875,3.875c-1.24,0.31-3.1-0.93-4.34-0.465c-1.24,0.465-1.86,2.325-1.86,2.325h64.331
			c0,0-0.809-4.509-2.608-5.835C701.329,120.508,699.852,121.549,698.565,121.775z"/>
	</g>
</g>
<g id="Character_2">
	<g>
		<g>
			<path style="fill:#FFFFFF;stroke:#263238;stroke-linecap:round;stroke-linejoin:round;stroke-miterlimit:10;" d="
				M411.196,294.445c0,0-2.405,1.503-3.006,4.209c-0.601,2.706-0.15,6.915,1.353,6.614c1.503-0.301,5.111-7.065,5.411-8.418
				C415.255,295.497,413,293.543,411.196,294.445z"/>
			<path style="fill:#737373;stroke:#263238;stroke-miterlimit:10;" d="M426.829,288.432c0,0,0.451-1.654-3.006-3.307
				c-3.457-1.654-7.215-1.503-7.065-0.601c0.15,0.902,1.203,2.255,1.203,2.255s-4.51,0.601-4.66,1.954
				c-0.15,1.353,0.752,1.954,0.752,1.954s-2.706,2.706-2.856,3.758c-0.15,1.052-0.301,1.804-0.301,1.804s1.653,0,1.052,1.353
				c-0.601,1.353-2.405,3.908-2.405,5.261c0,1.353,1.203,5.862,1.954,6.614c0.752,0.751,2.104,0.451,2.104,0.451
				s-1.353,1.503,0.752,1.954c2.104,0.451,3.457,0.752,4.96,0.301c1.503-0.451,2.255-1.203,2.255-1.203s1.954,0.451,4.209-0.451
				c2.255-0.902,3.758-2.405,3.758-2.405s1.654-0.301,2.405-2.255c0.752-1.954,0.301-7.666,0.301-7.666s1.052-4.359-1.503-8.117
				C428.182,286.328,426.829,288.432,426.829,288.432z"/>
			<path style="fill:#525252;stroke:#263238;stroke-miterlimit:10;" d="M363.002,322.719c0,0-4.654,3.344-5.479,4.994
				c-0.825,1.65-1.072,6.598-1.072,6.598s4.784,4.619,7.67,5.278c2.887,0.66,13.114-0.247,13.196-0.907
				C377.4,338.022,364.605,322.592,363.002,322.719z"/>
			<path style="fill:#FFFFFF;stroke:#263238;stroke-linecap:round;stroke-linejoin:round;stroke-miterlimit:10;" d="
				M430.776,338.551l-0.131-4.056c0,0,1.832-5.757,2.617-5.757c0.785,0,1.832,0.262,1.832,0.262s1.177-1.308,1.832-1.047
				c0.654,0.262,1.832,1.701,1.832,1.701s1.701,1.832,1.962,3.009c0.262,1.178-2.878,5.626-3.925,6.542
				c-1.047,0.916-1.701,1.57-1.701,1.57S432.215,338.027,430.776,338.551z"/>
			<path style="fill:#FFFFFF;stroke:#263238;stroke-linecap:round;stroke-linejoin:round;stroke-miterlimit:10;" d="
				M406.717,269.452l1.428-1.02c0,0,2.04-0.204,2.652-0.612c0.612-0.408,2.72-2.448,2.855-3.195c0.136-0.748,1.7-1.7,1.156-1.836
				c-0.544-0.136-1.564-0.408-2.244,0.408c-0.68,0.816-1.02,1.088-1.02,1.088s1.36-4.011,1.428-4.351
				c0.068-0.34-0.408-1.292-1.292-1.156c-0.884,0.136-1.36,0.68-1.36,0.68s-1.836-1.156-2.448-0.748
				c-0.612,0.408-0.612,0.408-0.612,0.408s-1.02-0.136-1.496,0.136c-0.476,0.272-0.816,0.612-0.816,0.612s-1.02-0.272-1.632,0.204
				c-0.612,0.476-0.884,0.816-1.02,1.428c-0.136,0.612-0.136,3.603-0.136,3.603l-0.612,1.156
				C401.55,266.256,403.658,266.528,406.717,269.452z"/>
			<g>
				<path style="fill:#FFFFFF;stroke:#263238;stroke-linecap:round;stroke-linejoin:round;stroke-miterlimit:10;" d="
					M360.741,439.227c0,0-1.117,10.279-1.117,10.838c0,0.559-4.134,5.587-3.687,7.263c0.447,1.676,1.676,6.592,1.676,6.592
					s-1.564,3.799-0.447,5.587c1.117,1.788,8.603,6.034,9.944,5.028c1.341-1.006,2.123-2.458,2.123-4.581
					c0-2.123-2.011-8.939-2.123-9.944c-0.112-1.006-0.447-3.687-0.224-4.469s0.224-0.782,0.335-2.458s0-3.24,0-3.799
					c0-0.559,2.123-7.598,2.123-7.598L360.741,439.227z"/>
				<path style="fill:#92E3A9;stroke:#263238;stroke-miterlimit:10;" d="M355.937,457.327c0.447,1.676,1.676,6.592,1.676,6.592
					s-1.564,3.799-0.447,5.586c1.117,1.788,8.603,6.034,9.944,5.028c1.341-1.006,2.123-2.458,2.123-4.581
					c0-2.123-2.011-8.938-2.123-9.944c-0.112-1.005-0.447-3.687-0.223-4.469c0,0-1.006-5.81-3.799-6.48
					c-2.793-0.67-3.464,1.006-3.464,1.006C359.624,450.623,355.49,455.651,355.937,457.327z"/>
				<path style="fill:#263238;stroke:#263238;stroke-miterlimit:10;" d="M365.211,466.601c-1.453-3.911-0.782-7.598-4.246-9.832
					c-3.464-2.235-5.028,0.559-5.028,0.559c0.447,1.676,1.676,6.592,1.676,6.592s-1.564,3.799-0.447,5.586
					c1.117,1.788,8.603,6.034,9.944,5.028C368.004,472.523,366.663,470.511,365.211,466.601z"/>
			</g>
			<path style="fill:#707070;stroke:#263238;stroke-miterlimit:10;" d="M374.421,335.5c0,0-5.042-0.586-6.215-0.235
				c-1.173,0.352-4.052-1.224-4.052-1.224s-15.765-8.508-19.868-11.323c-4.104-2.814-11.491-6.449-14.422-5.394
				s-21.458,23.334-21.458,23.334l11.139,8.677l14.657-16.299l27.672,30.486v49.834l-4.573,26.383l13.25,3.752l6.449-30.135
				l10.436-37.053l1.759-9.263L374.421,335.5z"/>
			<line style="fill:none;stroke:#263238;stroke-miterlimit:10;" x1="370.368" y1="427.083" x2="372.225" y2="432.538"/>
			<line style="fill:none;stroke:#263238;stroke-miterlimit:10;" x1="364.546" y1="409.987" x2="369.34" y2="424.063"/>
			
				<line style="fill:#FFFFFF;stroke:#263238;stroke-linecap:round;stroke-linejoin:round;stroke-miterlimit:10;" x1="363.78" y1="363.553" x2="373.28" y2="374.798"/>
			
				<line style="fill:#FFFFFF;stroke:#263238;stroke-linecap:round;stroke-linejoin:round;stroke-miterlimit:10;" x1="373.395" y1="381.174" x2="375.607" y2="384.685"/>
			
				<line style="fill:#FFFFFF;stroke:#263238;stroke-linecap:round;stroke-linejoin:round;stroke-miterlimit:10;" x1="363.392" y1="365.298" x2="371.739" y2="378.547"/>
			<path style="fill:#FFFFFF;stroke:#263238;stroke-linecap:round;stroke-linejoin:round;stroke-miterlimit:10;" d="M331.99,326.776
				c-0.311-0.999-0.518-1.795-0.484-2.063"/>
			<path style="fill:#FFFFFF;stroke:#263238;stroke-linecap:round;stroke-linejoin:round;stroke-miterlimit:10;" d="
				M334.202,333.038c0,0-0.693-1.819-1.377-3.766"/>
			<path style="fill:#FFFFFF;stroke:#263238;stroke-linecap:round;stroke-linejoin:round;stroke-miterlimit:10;" d="
				M329.043,325.768c0,0,1.759,3.987,1.993,4.339"/>
			<path style="fill:#FFFFFF;stroke:#263238;stroke-linecap:round;stroke-linejoin:round;stroke-miterlimit:10;" d="M312.9,344.17
				l-4.861,4.33h-2.033c0,0-8.837-2.74-9.191-2.916c-0.353-0.177-3.977-3.535-5.391-3.093c-1.414,0.442-2.121,1.414-1.591,2.563
				c0.53,1.149,3.27,6.274,5.037,8.572c1.768,2.298,4.949,5.656,4.949,5.656s5.126,6.363,6.716,6.363s5.656-4.242,6.54-5.744
				c0.884-1.502,0.442-1.944,0.619-2.651c0.177-0.707,5.214-8.219,5.214-8.219L312.9,344.17z"/>
			<path style="fill:#92E3A9;stroke:#263238;stroke-miterlimit:10;" d="M305.653,350.975c-0.707-1.06,0.972-2.121,0.972-2.121
				l-0.259-0.353h-0.359c0,0-8.837-2.74-9.191-2.916c-0.353-0.177-3.977-3.535-5.391-3.093c-1.414,0.442-2.121,1.414-1.591,2.563
				c0.53,1.149,3.27,6.274,5.037,8.572c1.767,2.298,4.949,5.656,4.949,5.656s5.126,6.363,6.716,6.363s5.656-4.242,6.54-5.744
				c0.884-1.502,0.442-1.944,0.619-2.651C310.779,357.78,306.36,352.035,305.653,350.975z"/>
		</g>
		<path style="fill:#92E3A9;stroke:#263238;stroke-miterlimit:10;" d="M413.898,310.813l-7.327-9.028c0,0-3.794-7.196-5.103-7.981
			c-1.308-0.785-1.475-2.332-1.475-2.332l0.299-7.324l6.41-13.764l-0.551-0.787c-1.401-2.001-3.571-3.327-5.991-3.661l0,0
			c0,0-13.476,18.579-13.738,20.672c-0.262,2.093,0.916,19.364,0.916,19.364l-24.336,16.747c0,0,16.486,24.598,16.747,25.121
			c0.262,0.523,8.897,17.663,9.159,18.448c0.262,0.785,0,3.794,0,3.794s12.037-12.168,12.691-13.084
			c0.654-0.916,12.037-17.009,12.037-17.009l6.018,18.71c0,0,2.879,2.878,4.972,2.224c2.093-0.654,4.579-3.271,5.103-4.579
			c0.523-1.308,6.411-13.215,6.411-13.215s-0.916-2.355-2.878-3.533c-1.963-1.177-3.271-1.308-3.271-1.308l-3.402,5.103
			l-0.262-12.299c0,0-1.57-7.981-2.617-9.159c-1.047-1.178-7.327-7.327-7.327-7.327s0.785-1.57,0.654-2.094
			C416.907,311.991,413.898,310.813,413.898,310.813z"/>
		<g>
			
				<line style="fill:#FFFFFF;stroke:#263238;stroke-linecap:round;stroke-linejoin:round;stroke-miterlimit:10;" x1="387.338" y1="305.972" x2="394.627" y2="299.768"/>
			
				<line style="fill:#FFFFFF;stroke:#263238;stroke-linecap:round;stroke-linejoin:round;stroke-miterlimit:10;" x1="389.137" y1="303.664" x2="390.92" y2="297.297"/>
		</g>
		
			<line style="fill:none;stroke:#263238;stroke-linecap:round;stroke-linejoin:round;stroke-miterlimit:10;" x1="426.589" y1="343.392" x2="428.692" y2="353.952"/>
		
			<line style="fill:none;stroke:#263238;stroke-linecap:round;stroke-linejoin:round;stroke-miterlimit:10;" x1="428.393" y1="345.731" x2="430.187" y2="350.962"/>
		
			<line style="fill:#FFFFFF;stroke:#263238;stroke-linecap:round;stroke-linejoin:round;stroke-miterlimit:10;" x1="403.409" y1="308.324" x2="414.477" y2="315.896"/>
		
			<line style="fill:#FFFFFF;stroke:#263238;stroke-linecap:round;stroke-linejoin:round;stroke-miterlimit:10;" x1="403.7" y1="301.334" x2="408.069" y2="308.033"/>
		<polyline style="fill:none;stroke:#263238;stroke-linecap:round;stroke-linejoin:round;stroke-miterlimit:10;" points="
			419.137,332.789 413.637,339.99 419.719,337.449 		"/>
	</g>
</g>
<g id="Character_1">
	<g>
		<g>
			<path style="fill:#BDBDBD;stroke:#263238;stroke-miterlimit:10;" d="M187.015,253.068c0,0,1.415,1.784,1.671,3.003
				c0.256,1.218-0.829,1.561,0.004,2.774s2.901,1.704,2.446,2.84c-0.455,1.136-1.418,2.61-1.418,2.61s0.084,4.26-0.662,5.111
				c-0.747,0.85-6.725-0.092-6.725-0.092l-0.73,2.581l-9.219-0.956c0,0,7.185-14.804,9.185-16.842
				C183.566,252.057,187.015,253.068,187.015,253.068z"/>
			<path style="fill:none;stroke:#263238;stroke-miterlimit:10;" d="M187.753,256.035c0,0-1.492-0.496-2.006,1.461"/>
			<path style="fill:#263238;" d="M187.874,258.817c0.145,0.69,0.024,1.299-0.269,1.361c-0.293,0.062-0.649-0.448-0.793-1.138
				c-0.145-0.69-0.024-1.299,0.269-1.361C187.374,257.618,187.729,258.127,187.874,258.817z"/>
		</g>
		<polygon style="fill:none;stroke:#263238;stroke-miterlimit:10;" points="176.542,269.834 184.306,271.441 185.099,272.685 
			172.38,270.938 		"/>
		<g>
			<g>
				<g>
					<polygon style="fill:#BDBDBD;stroke:#263238;stroke-miterlimit:10;" points="142.876,296.238 148.077,307.85 153.64,294.412 
											"/>
					<path style="fill:#92E3A9;stroke:#263238;stroke-miterlimit:10;" d="M161.561,272.912c0,0-18.336,12.148-19.92,13.846
						c-1.584,1.697,1.697,8.713,1.697,8.713l10.754-2.53l10.071-19.237C164.164,273.704,164.051,272.12,161.561,272.912z"/>
					<path style="fill:#92E3A9;stroke:#263238;stroke-miterlimit:10;" d="M153.867,290.338c0,0-11.999,2.417-12.338,2.756
						c-0.34,0.339,0.679,3.055,1.584,4.074c0.905,1.018,10.98-1.964,10.98-1.964l-0.34-5.658"/>
				</g>
				<line style="fill:none;stroke:#263238;stroke-miterlimit:10;" x1="153.343" y1="287.239" x2="146.723" y2="285.132"/>
				<line style="fill:none;stroke:#263238;stroke-miterlimit:10;" x1="152.591" y1="289.194" x2="147.475" y2="288.893"/>
			</g>
			<path style="fill:#92E3A9;stroke:#263238;stroke-miterlimit:10;" d="M175.441,269.436l16.334,4.042l15.955,0.34l7.695-2.716
				l3.169,7.469c0,0-10.258,5.697-10.938,5.81c-0.679,0.113-21.879,2.79-21.879,2.79s-1.358,6.111-1.924,7.582
				c-0.566,1.471-5.233,4.37-5.686,5.275c-0.453,0.905-1.782,13.283-2.688,14.075c-0.905,0.792-21.274-2.263-25.008-3.055
				c-3.734-0.792-4.526-0.566-4.3-1.358c0.226-0.792,7.921-24.443,7.921-24.443s5.092-10.071,7.469-12.334
				c2.376-2.263,5.236-3.23,5.236-3.23l2.916-0.477C171.619,268.893,173.567,268.972,175.441,269.436z"/>
			<line style="fill:none;stroke:#263238;stroke-miterlimit:10;" x1="185.777" y1="287.17" x2="174.348" y2="293.28"/>
			<line style="fill:none;stroke:#263238;stroke-miterlimit:10;" x1="180.12" y1="291.81" x2="166.654" y2="301.994"/>
			<line style="fill:none;stroke:#263238;stroke-miterlimit:10;" x1="172.451" y1="293.858" x2="169.441" y2="295.814"/>
			<path style="fill:none;stroke:#263238;stroke-miterlimit:10;" d="M191.407,275.353c0,0-11.284,8.275-13.992,9.478"/>
			<path style="fill:none;stroke:#263238;stroke-miterlimit:10;" d="M148.077,307.85c0,0,7.523-4.363,9.629-5.567"/>
		</g>
		<polygon style="fill:#92E3A9;stroke:#263238;stroke-miterlimit:10;" points="213.615,271.101 218.028,280.38 223.007,277.099 
			219.16,269.178 		"/>
		<path style="fill:#BDBDBD;stroke:#263238;stroke-miterlimit:10;" d="M219.612,269.97l14.371-6.45l5.771-3.734h4.866l2.263,1.811
			c0,0,0.113,0.566-0.792,0.679c-0.905,0.113-1.584-0.679-1.584-0.679l-2.263,0.113c0,0,2.037,1.132,2.603,1.811
			c0.566,0.679,1.132,1.924,0.679,2.263c-0.453,0.34-1.018,0.226-1.471-0.34c-0.453-0.566-1.019-1.018-1.019-1.018l-2.037-0.453
			l1.924,2.603l-0.113,2.037c0,0-0.792,1.018-1.132,0c-0.339-1.018-0.339-1.924-0.339-1.924l-1.924-1.471
			c0,0,0.226,2.603,0.566,3.508c0.34,0.905-0.679,1.697-1.245,1.018c-0.566-0.679-0.566-2.716-0.566-2.716s-0.905,0.566-2.263,0.905
			c-1.358,0.34-1.924,0.226-1.924,0.226h-1.358l-10.071,7.469L219.612,269.97z"/>
		<g>
			<path style="fill:#BDBDBD;stroke:#263238;stroke-miterlimit:10;" d="M121.404,392.698l-4.849,6.419c0,0-5.699,5.051-6.462,6.847
				c-0.763,1.796-1.465,2.823-0.425,3.742c1.04,0.919,6.387,2.556,6.849,2.965c0.462,0.409,7.89,3.884,10.441,4.492
				c2.551,0.607,7.825-0.702,7.309-1.981c-0.516-1.28-4.223-2.909-5.236-3.392c-1.013-0.484-3.621-7.317-3.764-7.854
				c-0.142-0.538,5.225-9.175,5.225-9.175L121.404,392.698z"/>
			<path style="fill:#92E3A9;stroke:#263238;stroke-miterlimit:10;" d="M119.217,408.252c-1.789-2.187-3.579-5.128-5.601-6.391
				c-1.522,1.489-3.141,3.203-3.523,4.103c-0.763,1.796-1.465,2.823-0.425,3.742c1.04,0.919,6.387,2.556,6.849,2.965
				c0.462,0.409,7.89,3.884,10.441,4.492c2.551,0.607,7.825-0.702,7.309-1.981c-0.516-1.279-4.223-2.908-5.237-3.392
				c0,0-2.8,0.359-3.58,0.359C124.672,412.148,121.555,411.109,119.217,408.252z"/>
		</g>
		<g>
			<path style="fill:#BDBDBD;stroke:#263238;stroke-miterlimit:10;" d="M194.592,359.767l0.617,8.021c0,0-0.926,7.559-0.309,9.41
				c0.617,1.851,0.771,3.085,2.16,3.085c1.388,0,6.479-2.314,7.096-2.314s8.484-2.314,10.798-3.548
				c2.314-1.234,5.399-5.708,4.165-6.325c-1.234-0.617-5.09,0.617-6.17,0.926c-1.08,0.309-7.559-3.085-8.021-3.394
				c-0.463-0.309-2.16-10.335-2.16-10.335L194.592,359.767z"/>
			<path style="fill:#92E3A9;stroke:#263238;stroke-miterlimit:10;" d="M194.749,372.987c-0.094,1.753-0.1,3.456,0.151,4.211
				c0.617,1.851,0.771,3.085,2.16,3.085c1.388,0,6.479-2.314,7.096-2.314s8.484-2.314,10.798-3.548
				c2.314-1.234,5.399-5.708,4.165-6.325c-1.234-0.617-5.09,0.617-6.17,0.926l-2.042,1.826L194.749,372.987z"/>
		</g>
		<path style="fill:#263238;stroke:#263238;stroke-miterlimit:10;" d="M146.172,309.689c0,0-7.42,10.744-8.191,15.063
			c-0.771,4.319,6.016,38.718,6.016,38.718s-11.106,11.723-12.803,14.037c-1.697,2.314-12.803,18.356-12.803,18.356l8.484,6.17
			c0,0,27.457-31.468,28.383-33.319c0.926-1.851,5.862-31.931,5.862-31.931l27.92-2.931l5.553,25.915l9.872-5.707
			c0,0-4.319-31.16-5.09-31.931c-0.771-0.771-22.984-5.862-22.984-5.862l-0.91-2.166L146.172,309.689z"/>
		<path style="fill:#263238;stroke:#263238;stroke-miterlimit:10;" d="M174.154,242.47c0,0-2.01-1.313-2.471-0.754
			c-0.461,0.559-0.427,1.824-0.427,1.824s-3.537-0.877-3.573,0.056c-0.036,0.933-0.036,0.933-0.036,0.933s-2.839,0.249-2.717,1.379
			c0.122,1.131,0.122,1.131,0.122,1.131s-1.981-0.625-2.127,0.331c-0.146,0.956-0.146,0.956-0.146,0.956s-1.906,0.284-1.831,1.193
			c0.075,0.909,0.075,0.909,0.075,0.909s-1.633,1.036-1.109,2.43c0.523,1.393,0.709,2.279,0.709,2.279s-2.717,1.379-2.065,2.283
			c0.652,0.904,1.275,1.12,1.275,1.12s-1.591,0.681-0.916,1.695c0.675,1.014,2.01,1.313,2.01,1.313s-1.207,1.409-0.38,2.045
			c0.827,0.636,0.827,0.636,0.827,0.636s-0.019,2.663,1.006,3.142c1.025,0.479,1.533,0.141,1.533,0.141s-0.98,1.94,0.622,2.413
			c1.602,0.473,2.262-0.243,2.262-0.243s0.389,1.306,1.41,1.207c1.02-0.098,1.347-0.745,1.347-0.745s0.523,1.393,1.876,1.225
			c1.352-0.168,1.901-0.861,1.901-0.861s0.361,0.618,1.468,0.386c1.107-0.232,1.743-1.06,1.743-1.06l0.979,0.257l0.945-1.008
			c0,0,1.2,0.211,1.195-0.366c-0.005-0.577-0.191-1.463-0.191-1.463c0.7-1.072,0.514-1.958,0.514-1.958l1.656-0.926l-0.349-1.661
			c0.566-1.159,0.089-2.331,0.089-2.331s0.42-0.204,0.77-0.74c0.35-0.536,0.486-2.646,0.486-2.646s1.206,0.788,2.174-0.109
			c0.968-0.897,0.537-1.847,0.537-1.847s1.107-0.232,0.945-1.008c-0.163-0.775-0.256-1.218-0.256-1.218s0.163,0.775,0.979,0.257
			c0.816-0.518-0.132-2.285-0.132-2.285s2.103,1.756,2.715,0.818c0.613-0.938-1.338-3.072-1.338-3.072s2.431-1.088,1.65-1.502
			c-0.781-0.414-2.54-1.086-2.54-1.086s1.581-1.835,0.182-1.888c-1.399-0.053-2.547,0.534-2.547,0.534s-0.744-3.544-1.362-3.183
			c-0.618,0.361-1.743,1.059-1.743,1.059s-0.972-1.877-1.811-1.47c-0.84,0.407-1.324,0.856-1.324,0.856s-0.792-1.568-1.52-1.184
			c-0.729,0.384-0.7,1.072-0.7,1.072S174.115,240.628,174.154,242.47z"/>
	</g>
</g>
</svg>
