<?xml version="1.0" encoding="utf-8"?>
<!-- Generator: Adobe Illustrator 27.5.0, SVG Export Plug-In . SVG Version: 6.00 Build 0)  -->
<svg version="1.1" xmlns="http://www.w3.org/2000/svg" xmlns:xlink="http://www.w3.org/1999/xlink" x="0px" y="0px"
	 viewBox="0 0 3710 3710" style="enable-background:new 0 0 3710 3710;" xml:space="preserve">
<g id="Background">
	<g>
		<g>
			<rect style="fill:#FFFFFF;" width="3710" height="3710"/>
		</g>
	</g>
</g>
<g id="Illustration">
	<g>
		<linearGradient id="SVGID_1_" gradientUnits="userSpaceOnUse" x1="3498.5012" y1="3292.8938" x2="1416.1633" y2="1470.8495">
			<stop  offset="0" style="stop-color:#DAE3FE"/>
			<stop  offset="1" style="stop-color:#E9EFFD"/>
		</linearGradient>
		<path style="fill:url(#SVGID_1_);" d="M3144.612,2346.625c-269.122,633.674-986,988.662-1607.679,892.906
			c-101.16-15.582-378.492-61.997-624.031-280.967C440.223,2537.03,339.137,1702.338,720.433,1114.111
			c277.517-428.126,774.993-670.816,1247.694-658.677c101.82,2.615,492.035,18.73,834.967,301.504
			c50.37,41.534,161.466,140.23,261.59,296.805C3299.793,1421.411,3320.002,1933.652,3144.612,2346.625z"/>
		<g>
			<path style="fill:#91B3FA;" d="M477.537,468.887c-2.454-10.447,12.241-17.391,21.24-10.093
				c91.378,74.098,310.931,295.988,256.214,683.758c-68.651,486.514,48.716,664.04,194.808,772.326
				c0,0-200.633-50.923-326.862-231.06C313.016,1241.539,521.171,654.632,477.537,468.887z"/>
			<path style="fill:#FFFFFF;" d="M547.076,620.845c11.431,54.161,21.62,108.488,29.493,163.059
				c8.204,54.525,14.49,109.241,18.792,164.047c4.058,54.816,6.925,109.689,7.088,164.585c0.449,54.894-1.834,109.742-4.348,164.804
				c-2.157,55.042-4.692,110.481-0.663,166.313c3.962,55.718,15.691,111.923,38.965,164.611
				c5.818,13.131,11.936,26.222,18.886,38.871c6.682,12.766,14.019,25.279,21.614,37.674c15.335,24.73,32.597,48.624,51.834,71.303
				c38.613,45.28,85.182,85.448,136.483,119.442c5.399,3.578,13.135,2.698,17.28-1.964c4.069-4.578,3.16-11.102-1.987-14.724
				l-0.036-0.026c-12.207-8.573-24.285-17.256-35.873-26.375c-5.88-4.48-11.517-9.176-17.254-13.778
				c-5.528-4.784-11.274-9.385-16.625-14.311c-21.784-19.389-41.965-40.075-60.274-61.947
				c-36.828-43.542-66.311-92.061-88.647-142.361c-10.842-25.267-19.51-51.179-25.839-77.578
				c-6.306-26.406-10.272-53.27-12.465-80.35c-4.393-54.191-2.409-109.082-0.71-164.134c1.616-55.066,2.802-110.412,1.349-165.714
				c-0.64-27.649-1.855-55.285-3.643-82.888c-0.802-13.805-1.913-27.595-2.995-41.384c-1.236-13.78-2.56-27.553-4.013-41.313
				c-5.932-55.034-13.805-109.885-23.674-164.445c-10.172-54.518-22.016-108.785-36.261-162.567c-0.408-1.538-2.18-2.498-3.96-2.147
				C547.863,617.892,546.765,619.354,547.076,620.845z"/>
		</g>
		<g>
			<g>
				<path style="fill:#BDD0FB;" d="M714.247,1633.402c-11.204,11.887-30.907,8.469-37.647-6.411
					c-37.19-82.104-121.347-323.748,17.642-602.136c117.37-235.086,158.672-373.713,173.061-437.943
					c3.043-13.582,21.656-15.385,27.274-2.651C956.562,724.759,1120.231,1202.656,714.247,1633.402z"/>
				<path style="fill:#FFFFFF;" d="M693.896,1624.739c-0.399,0.071-0.809,0.105-1.229,0.098c-3.521-0.054-6.333-2.953-6.279-6.474
					c0.062-3.993,7.831-403.07,156.26-737.313c1.429-3.216,5.197-4.668,8.418-3.241c3.219,1.431,4.669,5.198,3.241,8.419
					c-147.349,331.81-155.105,728.364-155.166,732.33C699.094,1621.66,696.84,1624.211,693.896,1624.739z"/>
			</g>
		</g>
		<g>
			<g>
				<polygon style="fill:#FFFFFF;" points="2293.005,1170.676 1409.874,1092.061 526.742,1180.96 526.742,3072.079 
					1409.874,3025.267 2293.005,3077.164 3175.036,2997.948 3175.036,1126.718 				"/>
				<polygon style="fill:#7D97F4;" points="1428.83,3001.005 589.737,3045.412 589.737,1251.422 1428.83,1167.089 				"/>
				<polygon style="fill:#91B3FA;" points="2267.922,3031.385 1428.83,3001.005 1428.83,1167.089 2267.922,1222.816 				"/>
				<polygon style="fill:#7D97F4;" points="3105.969,2956.238 2267.922,3031.385 2267.922,1222.816 3105.969,1181.115 				"/>
				<polygon style="opacity:0.47;fill:#FFFFFF;" points="1409.831,3001.044 1428.83,3001.044 1428.83,1168.043 1409.831,1168.998 
									"/>
			</g>
			
				<linearGradient id="SVGID_00000178206661555932683510000012007775141564253573_" gradientUnits="userSpaceOnUse" x1="4368.043" y1="-2431.0105" x2="650.3983" y2="4362.3896">
				<stop  offset="0" style="stop-color:#4F52FF"/>
				<stop  offset="1" style="stop-color:#4042E2"/>
			</linearGradient>
			<path style="fill:url(#SVGID_00000178206661555932683510000012007775141564253573_);" d="M589.737,1913.19
				c71.875,144.003,226.047,269.099,362.621,354.247c62.16,38.754,127.108,75.528,198.581,91.57s151.194,8.934,210.379-34.227
				c85.923-62.66,118.75-190.953,219.253-225.714c41.276-14.276,86.849-9.313,129.211-19.942
				c49.687-12.467,91.353-45.275,131.807-76.702c120.255-93.419,238.14-215.353,386.234-255.842
				c51.31-14.028,104.938-24.099,150.131-52.155c70.017-43.467,108.564-122.842,136.854-200.247
				c34.579-94.613,58.596-187.593,73.059-287.283c109.005-5.948,152.438-6.664,223.971-11.145
				c-111.38,154.014-193.333,325.011-228.878,511.726c-6.875,36.116-12.199,73.51-4.377,109.433
				c23.188,106.502,206.072,179.109,285.148,243.531c88.501,72.1,170.217,154.172,242.239,242.875v132.558
				c-225.296-240.151-454.702-339.856-695.019-432.181c-156.401-108.572-293.866,105.114-313.365,244.844
				c-8.791,62.996-1.612,128.3-18.908,189.509c-37.123,131.375-175.937,207.74-309.36,236.65
				c-93.478,20.255-184.775,30.704-269.301,78.373c-76.085,42.909-140.763,56.628-222.073,0.323
				c-176.054-121.912-344.015-259.038-485.089-420.842c-72.488-83.139-208.305-187.082-205.007-298.309
				C590.354,1949.663,584.251,1916.91,589.737,1913.19z"/>
			<g>
				<polygon style="fill:#FFFFFF;" points="2497.362,2257.406 2451.917,2257.406 2474.639,2207.339 				"/>
				<polygon style="fill:#FFFFFF;" points="2510.906,2319.6 2438.372,2319.6 2474.639,2239.689 				"/>
				<polygon style="fill:#FFFFFF;" points="2536.502,2427.632 2412.776,2427.632 2474.639,2291.324 				"/>
			</g>
			<g>
				<polygon style="fill:#FFFFFF;" points="2811.838,2325.855 2766.393,2325.855 2789.116,2275.788 				"/>
				<polygon style="fill:#FFFFFF;" points="2825.383,2388.05 2752.848,2388.05 2789.116,2308.139 				"/>
				<polygon style="fill:#FFFFFF;" points="2850.979,2496.082 2727.253,2496.082 2789.116,2359.774 				"/>
			</g>
			<g>
				<polygon style="fill:#FFFFFF;" points="2630.306,2441.47 2594.263,2441.47 2612.285,2401.761 				"/>
				<polygon style="fill:#FFFFFF;" points="2641.049,2490.798 2583.52,2490.798 2612.285,2427.419 				"/>
				<polygon style="fill:#FFFFFF;" points="2661.349,2576.481 2563.219,2576.481 2612.285,2468.372 				"/>
			</g>
			<g>
				<polygon style="fill:#FFFFFF;" points="1719.635,1684.274 1683.591,1684.274 1701.613,1644.565 				"/>
				<polygon style="fill:#FFFFFF;" points="1730.377,1733.603 1672.848,1733.603 1701.613,1670.223 				"/>
				<polygon style="fill:#FFFFFF;" points="1750.678,1819.286 1652.548,1819.286 1701.613,1711.176 				"/>
			</g>
			<g>
				<polygon style="fill:#FFFFFF;" points="1823.666,1757.086 1787.622,1757.086 1805.644,1717.377 				"/>
				<polygon style="fill:#FFFFFF;" points="1834.408,1806.415 1776.88,1806.415 1805.644,1743.035 				"/>
				<polygon style="fill:#FFFFFF;" points="1854.709,1892.098 1756.579,1892.098 1805.644,1783.988 				"/>
			</g>
			<g>
				<path style="fill:#FFFFFF;" d="M1695.357,1288.541c-0.344-3.649-5.09-5.484-7.942-3.525l-50.229,33.94v-26.366
					c0-3.975-3.432-6.385-6.516-4.25l-43.632,30.616v-26.159c0-4.026-3.49-6.462-6.607-4.29l-43.541,30.748v-25.634
					c0-4.519-4.844-7.394-8.495-5.238l-37.189,21.847c-6.169,3.643-10.035,10.745-9.846,18.378l2.546,104.979
					c0.073,2.959,2.453,5.31,5.345,5.296l200.51-0.937c2.858-0.014,5.175-2.416,5.184-5.358l0.442-143.484
					C1695.386,1288.913,1695.374,1288.725,1695.357,1288.541z M1506.492,1378.418c-0.206,0.11-0.489,0.308-0.785,0.308h-6.22
					c-0.587,0-1.069-0.388-1.092-0.692l-0.774-10.102c-0.012-0.155,0.098,0.385,0.304,0.274c0.206-0.112,0.491,0.491,0.788,0.491
					h6.377c0.59,0,1.074-0.478,1.093-0.173l0.617,9.792C1506.809,1378.469,1506.698,1378.308,1506.492,1378.418z M1506.492,1357.465
					c-0.206,0.11-0.489,1.202-0.785,1.202h-6.22c-0.587,0-1.069-1.283-1.092-1.588l-0.774-10.673
					c-0.012-0.154,0.098-0.551,0.304-0.663c0.206-0.111,0.491-0.448,0.788-0.448h6.377c0.59,0,1.074,0.361,1.093,0.667l0.617,10.569
					C1506.809,1356.685,1506.698,1357.354,1506.492,1357.465z M1533.574,1378.423c-0.205,0.107-0.484,0.303-0.775,0.303h-6.221
					c-0.598,0-1.085-0.397-1.093-0.707l-0.27-10.103c-0.004-0.152,0.109,0.392,0.315,0.284c0.205-0.109,0.486,0.496,0.778,0.496
					h6.378c0.601,0,1.089-0.469,1.093-0.158l0.113,9.792C1533.893,1378.482,1533.779,1378.316,1533.574,1378.423z M1533.574,1357.47
					c-0.205,0.107-0.484,1.197-0.775,1.197h-6.221c-0.598,0-1.085-1.293-1.093-1.602l-0.27-10.674
					c-0.004-0.152,0.109-0.545,0.315-0.653c0.205-0.108,0.486-0.443,0.778-0.443h6.378c0.601,0,1.089,0.37,1.093,0.682l0.113,10.569
					C1533.893,1356.697,1533.779,1357.363,1533.574,1357.47z M1557.713,1378.033c-0.01,0.309-0.496,0.693-1.093,0.693h-6.221
					c-0.292,0-0.571-0.208-0.776-0.315c-0.205-0.107-0.319-0.31-0.317-0.462l0.174-9.355c0.005-0.311,0.493,0.103,1.093,0.103h6.378
					c0.293,0,0.574-0.661,0.78-0.552c0.206,0.108,0.318,0.002,0.313,0.155L1557.713,1378.033z M1557.713,1357.08
					c-0.01,0.309-0.496,1.587-1.093,1.587h-6.221c-0.292,0-0.571-1.104-0.776-1.211c-0.205-0.107-0.319-0.882-0.317-1.034
					l0.174-10.291c0.005-0.311,0.493-0.837,1.093-0.837h6.378c0.293,0,0.574,0.179,0.78,0.287c0.206,0.109,0.318,0.781,0.313,0.933
					L1557.713,1357.08z M1581.534,1378.046c-0.024,0.304-0.505,0.68-1.092,0.68h-6.22c-0.296,0-0.579-0.209-0.785-0.32
					c-0.206-0.11-0.317-0.316-0.307-0.47l0.618-9.355c0.019-0.306,0.502,0.116,1.093,0.116h6.377c0.297,0,0.582-0.648,0.788-0.536
					s0.316-0.026,0.304,0.128L1581.534,1378.046z M1581.534,1357.093c-0.024,0.304-0.505,1.574-1.092,1.574h-6.22
					c-0.296,0-0.579-1.105-0.785-1.215c-0.206-0.111-0.317-0.889-0.307-1.042l0.618-10.292c0.019-0.306,0.502-0.823,1.093-0.823
					h6.377c0.297,0,0.582,0.131,0.788,0.242c0.206,0.112,0.316,0.81,0.304,0.964L1581.534,1357.093z M1605.987,1378.418
					c-0.206,0.11-0.489,0.308-0.785,0.308h-6.22c-0.587,0-1.069-0.388-1.092-0.692l-0.774-10.102
					c-0.012-0.155,0.098,0.385,0.304,0.274c0.206-0.112,0.491,0.491,0.788,0.491h6.377c0.59,0,1.074-0.478,1.093-0.173l0.617,9.792
					C1606.303,1378.469,1606.193,1378.308,1605.987,1378.418z M1605.987,1357.465c-0.206,0.11-0.489,1.202-0.785,1.202h-6.22
					c-0.587,0-1.069-1.283-1.092-1.588l-0.774-10.673c-0.012-0.154,0.098-0.551,0.304-0.663c0.206-0.111,0.491-0.448,0.788-0.448
					h6.377c0.59,0,1.074,0.361,1.093,0.667l0.617,10.569C1606.303,1356.685,1606.193,1357.354,1605.987,1357.465z
					 M1633.069,1378.423c-0.205,0.107-0.484,0.303-0.775,0.303h-6.222c-0.598,0-1.085-0.397-1.093-0.707l-0.27-10.103
					c-0.004-0.152,0.109,0.392,0.315,0.284c0.205-0.109,0.486,0.496,0.778,0.496h6.378c0.601,0,1.089-0.469,1.093-0.158l0.113,9.792
					C1633.389,1378.482,1633.274,1378.316,1633.069,1378.423z M1633.069,1357.47c-0.205,0.107-0.484,1.197-0.775,1.197h-6.222
					c-0.598,0-1.085-1.293-1.093-1.602l-0.27-10.674c-0.004-0.152,0.109-0.545,0.315-0.653c0.205-0.108,0.486-0.443,0.778-0.443
					h6.378c0.601,0,1.089,0.37,1.093,0.682l0.113,10.569C1633.389,1356.697,1633.274,1357.363,1633.069,1357.47z M1657.208,1378.033
					c-0.01,0.309-0.497,0.693-1.093,0.693h-6.221c-0.292,0-0.571-0.208-0.776-0.315c-0.205-0.107-0.319-0.31-0.317-0.462
					l0.174-9.355c0.005-0.311,0.493,0.103,1.093,0.103h6.378c0.293,0,0.574-0.661,0.779-0.552c0.206,0.108,0.319,0.002,0.314,0.155
					L1657.208,1378.033z M1657.208,1357.08c-0.01,0.309-0.497,1.587-1.093,1.587h-6.221c-0.292,0-0.571-1.104-0.776-1.211
					c-0.205-0.107-0.319-0.882-0.317-1.034l0.174-10.291c0.005-0.311,0.493-0.837,1.093-0.837h6.378
					c0.293,0,0.574,0.179,0.779,0.287c0.206,0.109,0.319,0.781,0.314,0.933L1657.208,1357.08z M1681.029,1378.046
					c-0.023,0.304-0.505,0.68-1.092,0.68h-6.22c-0.296,0-0.579-0.209-0.785-0.32c-0.206-0.11-0.317-0.316-0.307-0.47l0.618-9.355
					c0.019-0.306,0.502,0.116,1.093,0.116h6.377c0.297,0,0.582-0.648,0.788-0.536c0.206,0.112,0.316-0.026,0.304,0.128
					L1681.029,1378.046z M1681.029,1357.093c-0.023,0.304-0.505,1.574-1.092,1.574h-6.22c-0.296,0-0.579-1.105-0.785-1.215
					c-0.206-0.111-0.317-0.889-0.307-1.042l0.618-10.292c0.019-0.306,0.502-0.823,1.093-0.823h6.377
					c0.297,0,0.582,0.131,0.788,0.242c0.206,0.112,0.316,0.81,0.304,0.964L1681.029,1357.093z"/>
				<path style="fill:#FFFFFF;" d="M1736.168,1438.883h-23.436c-0.69,0-1.25-0.56-1.25-1.25v-197.388c0-0.69,0.56-1.25,1.25-1.25
					h23.436c0.69,0,1.25,0.56,1.25,1.25v197.388C1737.418,1438.324,1736.859,1438.883,1736.168,1438.883z"/>
				<path style="fill:#FFFFFF;" d="M1753.188,1277.089h-57.36c-0.243,0-0.441-0.197-0.441-0.441v-6.413
					c0-0.243,0.197-0.441,0.441-0.441h57.36c0.243,0,0.441,0.197,0.441,0.441v6.413
					C1753.628,1276.891,1753.431,1277.089,1753.188,1277.089z"/>
			</g>
			<path style="fill:#FFFFFF;" d="M1971.506,1472.947c0-2.184-1.77-3.954-3.954-3.954h-95.732c-2.184,0-3.954,1.77-3.954,3.954
				v185.998c0,2.184,1.77,3.954,3.954,3.954h95.732c2.184,0,3.954-1.77,3.954-3.954V1472.947z M1894.613,1648.372
				c0,0.637-0.516,1.153-1.153,1.153h-14.409c-0.637,0-1.153-0.516-1.153-1.153v-17.752c0-0.637,0.516-1.154,1.153-1.154h14.409
				c0.637,0,1.153,0.516,1.153,1.154V1648.372z M1894.613,1618.285c0,0.636-0.516,1.153-1.153,1.153h-14.409
				c-0.637,0-1.153-0.516-1.153-1.153v-17.754c0-0.637,0.516-1.153,1.153-1.153h14.409c0.637,0,1.153,0.516,1.153,1.153V1618.285z
				 M1894.613,1588.195c0,0.637-0.516,1.154-1.153,1.154h-14.409c-0.637,0-1.153-0.516-1.153-1.154v-17.752
				c0-0.637,0.516-1.154,1.153-1.154h14.409c0.637,0,1.153,0.516,1.153,1.154V1588.195z M1894.613,1558.107
				c0,0.637-0.516,1.153-1.153,1.153h-14.409c-0.637,0-1.153-0.516-1.153-1.153v-17.754c0-0.637,0.516-1.153,1.153-1.153h14.409
				c0.637,0,1.153,0.516,1.153,1.153V1558.107z M1894.613,1528.017c0,0.637-0.516,1.154-1.153,1.154h-14.409
				c-0.637,0-1.153-0.516-1.153-1.154v-17.752c0-0.637,0.516-1.153,1.153-1.153h14.409c0.637,0,1.153,0.516,1.153,1.153V1528.017z
				 M1894.613,1497.929c0,0.637-0.516,1.153-1.153,1.153h-14.409c-0.637,0-1.153-0.516-1.153-1.153v-17.754
				c0-0.636,0.516-1.153,1.153-1.153h14.409c0.637,0,1.153,0.516,1.153,1.153V1497.929z M1918.015,1648.372
				c0,0.637-0.516,1.153-1.153,1.153h-14.41c-0.637,0-1.153-0.516-1.153-1.153v-17.752c0-0.637,0.516-1.154,1.153-1.154h14.41
				c0.637,0,1.153,0.516,1.153,1.154V1648.372z M1918.015,1618.285c0,0.636-0.516,1.153-1.153,1.153h-14.41
				c-0.637,0-1.153-0.516-1.153-1.153v-17.754c0-0.637,0.516-1.153,1.153-1.153h14.41c0.637,0,1.153,0.516,1.153,1.153V1618.285z
				 M1918.015,1588.195c0,0.637-0.516,1.154-1.153,1.154h-14.41c-0.637,0-1.153-0.516-1.153-1.154v-17.752
				c0-0.637,0.516-1.154,1.153-1.154h14.41c0.637,0,1.153,0.516,1.153,1.154V1588.195z M1918.015,1558.107
				c0,0.637-0.516,1.153-1.153,1.153h-14.41c-0.637,0-1.153-0.516-1.153-1.153v-17.754c0-0.637,0.516-1.153,1.153-1.153h14.41
				c0.637,0,1.153,0.516,1.153,1.153V1558.107z M1918.015,1528.017c0,0.637-0.516,1.154-1.153,1.154h-14.41
				c-0.637,0-1.153-0.516-1.153-1.154v-17.752c0-0.637,0.516-1.153,1.153-1.153h14.41c0.637,0,1.153,0.516,1.153,1.153V1528.017z
				 M1918.015,1497.929c0,0.637-0.516,1.153-1.153,1.153h-14.41c-0.637,0-1.153-0.516-1.153-1.153v-17.754
				c0-0.636,0.516-1.153,1.153-1.153h14.41c0.637,0,1.153,0.516,1.153,1.153V1497.929z M1938.074,1648.372
				c0,0.637-0.516,1.153-1.153,1.153h-14.409c-0.637,0-1.153-0.516-1.153-1.153v-17.752c0-0.637,0.516-1.154,1.153-1.154h14.409
				c0.637,0,1.153,0.516,1.153,1.154V1648.372z M1938.074,1618.285c0,0.636-0.516,1.153-1.153,1.153h-14.409
				c-0.637,0-1.153-0.516-1.153-1.153v-17.754c0-0.637,0.516-1.153,1.153-1.153h14.409c0.637,0,1.153,0.516,1.153,1.153V1618.285z
				 M1938.074,1588.195c0,0.637-0.516,1.154-1.153,1.154h-14.409c-0.637,0-1.153-0.516-1.153-1.154v-17.752
				c0-0.637,0.516-1.154,1.153-1.154h14.409c0.637,0,1.153,0.516,1.153,1.154V1588.195z M1938.074,1558.107
				c0,0.637-0.516,1.153-1.153,1.153h-14.409c-0.637,0-1.153-0.516-1.153-1.153v-17.754c0-0.637,0.516-1.153,1.153-1.153h14.409
				c0.637,0,1.153,0.516,1.153,1.153V1558.107z M1938.074,1528.017c0,0.637-0.516,1.154-1.153,1.154h-14.409
				c-0.637,0-1.153-0.516-1.153-1.154v-17.752c0-0.637,0.516-1.153,1.153-1.153h14.409c0.637,0,1.153,0.516,1.153,1.153V1528.017z
				 M1938.074,1497.929c0,0.637-0.516,1.153-1.153,1.153h-14.409c-0.637,0-1.153-0.516-1.153-1.153v-17.754
				c0-0.636,0.516-1.153,1.153-1.153h14.409c0.637,0,1.153,0.516,1.153,1.153V1497.929z M1964.82,1648.372
				c0,0.637-0.516,1.153-1.153,1.153h-14.41c-0.637,0-1.153-0.516-1.153-1.153v-17.752c0-0.637,0.516-1.154,1.153-1.154h14.41
				c0.637,0,1.153,0.516,1.153,1.154V1648.372z M1964.82,1618.285c0,0.636-0.516,1.153-1.153,1.153h-14.41
				c-0.637,0-1.153-0.516-1.153-1.153v-17.754c0-0.637,0.516-1.153,1.153-1.153h14.41c0.637,0,1.153,0.516,1.153,1.153V1618.285z
				 M1964.82,1588.195c0,0.637-0.516,1.154-1.153,1.154h-14.41c-0.637,0-1.153-0.516-1.153-1.154v-17.752
				c0-0.637,0.516-1.154,1.153-1.154h14.41c0.637,0,1.153,0.516,1.153,1.154V1588.195z M1964.82,1558.107
				c0,0.637-0.516,1.153-1.153,1.153h-14.41c-0.637,0-1.153-0.516-1.153-1.153v-17.754c0-0.637,0.516-1.153,1.153-1.153h14.41
				c0.637,0,1.153,0.516,1.153,1.153V1558.107z M1964.82,1528.017c0,0.637-0.516,1.154-1.153,1.154h-14.41
				c-0.637,0-1.153-0.516-1.153-1.154v-17.752c0-0.637,0.516-1.153,1.153-1.153h14.41c0.637,0,1.153,0.516,1.153,1.153V1528.017z
				 M1964.82,1497.929c0,0.637-0.516,1.153-1.153,1.153h-14.409c-0.637,0-1.153-0.516-1.153-1.153v-17.754
				c0-0.636,0.516-1.153,1.153-1.153h14.409c0.637,0,1.153,0.516,1.153,1.153V1497.929z"/>
			<path style="fill:#FFFFFF;" d="M2238.963,1486.319c0-2.184-1.77-3.954-3.954-3.954h-95.732c-2.184,0-3.954,1.77-3.954,3.954
				v185.998c0,2.184,1.77,3.954,3.954,3.954h95.732c2.184,0,3.954-1.77,3.954-3.954V1486.319z M2162.069,1661.745
				c0,0.637-0.516,1.154-1.153,1.154h-14.41c-0.637,0-1.153-0.516-1.153-1.154v-17.752c0-0.637,0.516-1.154,1.153-1.154h14.41
				c0.637,0,1.153,0.516,1.153,1.154V1661.745z M2162.069,1631.657c0,0.637-0.516,1.153-1.153,1.153h-14.41
				c-0.637,0-1.153-0.516-1.153-1.153v-17.754c0-0.636,0.516-1.152,1.153-1.152h14.41c0.637,0,1.153,0.516,1.153,1.152V1631.657z
				 M2162.069,1601.568c0,0.637-0.516,1.153-1.153,1.153h-14.41c-0.637,0-1.153-0.516-1.153-1.153v-17.752
				c0-0.637,0.516-1.154,1.153-1.154h14.41c0.637,0,1.153,0.516,1.153,1.154V1601.568z M2162.069,1571.48
				c0,0.636-0.516,1.153-1.153,1.153h-14.41c-0.637,0-1.153-0.516-1.153-1.153v-17.754c0-0.637,0.516-1.153,1.153-1.153h14.41
				c0.637,0,1.153,0.516,1.153,1.153V1571.48z M2162.069,1541.39c0,0.637-0.516,1.154-1.153,1.154h-14.41
				c-0.637,0-1.153-0.516-1.153-1.154v-17.752c0-0.637,0.516-1.154,1.153-1.154h14.41c0.637,0,1.153,0.516,1.153,1.154V1541.39z
				 M2162.069,1511.302c0,0.637-0.516,1.153-1.153,1.153h-14.41c-0.637,0-1.153-0.516-1.153-1.153v-17.754
				c0-0.636,0.516-1.153,1.153-1.153h14.41c0.637,0,1.153,0.516,1.153,1.153V1511.302z M2185.472,1661.745
				c0,0.637-0.516,1.154-1.153,1.154h-14.409c-0.637,0-1.153-0.516-1.153-1.154v-17.752c0-0.637,0.516-1.154,1.153-1.154h14.409
				c0.637,0,1.153,0.516,1.153,1.154V1661.745z M2185.472,1631.657c0,0.637-0.516,1.153-1.153,1.153h-14.409
				c-0.637,0-1.153-0.516-1.153-1.153v-17.754c0-0.636,0.516-1.152,1.153-1.152h14.409c0.637,0,1.153,0.516,1.153,1.152V1631.657z
				 M2185.472,1601.568c0,0.637-0.516,1.153-1.153,1.153h-14.409c-0.637,0-1.153-0.516-1.153-1.153v-17.752
				c0-0.637,0.516-1.154,1.153-1.154h14.409c0.637,0,1.153,0.516,1.153,1.154V1601.568z M2185.472,1571.48
				c0,0.636-0.516,1.153-1.153,1.153h-14.409c-0.637,0-1.153-0.516-1.153-1.153v-17.754c0-0.637,0.516-1.153,1.153-1.153h14.409
				c0.637,0,1.153,0.516,1.153,1.153V1571.48z M2185.472,1541.39c0,0.637-0.516,1.154-1.153,1.154h-14.409
				c-0.637,0-1.153-0.516-1.153-1.154v-17.752c0-0.637,0.516-1.154,1.153-1.154h14.409c0.637,0,1.153,0.516,1.153,1.154V1541.39z
				 M2185.472,1511.302c0,0.637-0.516,1.153-1.153,1.153h-14.409c-0.637,0-1.153-0.516-1.153-1.153v-17.754
				c0-0.636,0.516-1.153,1.153-1.153h14.409c0.637,0,1.153,0.516,1.153,1.153V1511.302z M2205.531,1661.745
				c0,0.637-0.517,1.154-1.153,1.154h-14.41c-0.637,0-1.153-0.516-1.153-1.154v-17.752c0-0.637,0.517-1.154,1.153-1.154h14.41
				c0.637,0,1.153,0.516,1.153,1.154V1661.745z M2205.531,1631.657c0,0.637-0.517,1.153-1.153,1.153h-14.41
				c-0.637,0-1.153-0.516-1.153-1.153v-17.754c0-0.636,0.517-1.152,1.153-1.152h14.41c0.637,0,1.153,0.516,1.153,1.152V1631.657z
				 M2205.531,1601.568c0,0.637-0.517,1.153-1.153,1.153h-14.41c-0.637,0-1.153-0.516-1.153-1.153v-17.752
				c0-0.637,0.517-1.154,1.153-1.154h14.41c0.637,0,1.153,0.516,1.153,1.154V1601.568z M2205.531,1571.48
				c0,0.636-0.517,1.153-1.153,1.153h-14.41c-0.637,0-1.153-0.516-1.153-1.153v-17.754c0-0.637,0.517-1.153,1.153-1.153h14.41
				c0.637,0,1.153,0.516,1.153,1.153V1571.48z M2205.531,1541.39c0,0.637-0.517,1.154-1.153,1.154h-14.41
				c-0.637,0-1.153-0.516-1.153-1.154v-17.752c0-0.637,0.517-1.154,1.153-1.154h14.41c0.637,0,1.153,0.516,1.153,1.154V1541.39z
				 M2205.531,1511.302c0,0.637-0.517,1.153-1.153,1.153h-14.41c-0.637,0-1.153-0.516-1.153-1.153v-17.754
				c0-0.636,0.517-1.153,1.153-1.153h14.41c0.637,0,1.153,0.516,1.153,1.153V1511.302z M2232.277,1661.745
				c0,0.637-0.516,1.154-1.153,1.154h-14.41c-0.637,0-1.153-0.516-1.153-1.154v-17.752c0-0.637,0.516-1.154,1.153-1.154h14.41
				c0.637,0,1.153,0.516,1.153,1.154V1661.745z M2232.277,1631.657c0,0.637-0.516,1.153-1.153,1.153h-14.41
				c-0.637,0-1.153-0.516-1.153-1.153v-17.754c0-0.636,0.516-1.152,1.153-1.152h14.41c0.637,0,1.153,0.516,1.153,1.152V1631.657z
				 M2232.277,1601.568c0,0.637-0.516,1.153-1.153,1.153h-14.41c-0.637,0-1.153-0.516-1.153-1.153v-17.752
				c0-0.637,0.516-1.154,1.153-1.154h14.41c0.637,0,1.153,0.516,1.153,1.154V1601.568z M2232.277,1571.48
				c0,0.636-0.516,1.153-1.153,1.153h-14.41c-0.637,0-1.153-0.516-1.153-1.153v-17.754c0-0.637,0.516-1.153,1.153-1.153h14.41
				c0.637,0,1.153,0.516,1.153,1.153V1571.48z M2232.277,1541.39c0,0.637-0.516,1.154-1.153,1.154h-14.41
				c-0.637,0-1.153-0.516-1.153-1.154v-17.752c0-0.637,0.516-1.154,1.153-1.154h14.41c0.637,0,1.153,0.516,1.153,1.154V1541.39z
				 M2232.277,1511.302c0,0.637-0.516,1.153-1.153,1.153h-14.409c-0.637,0-1.153-0.516-1.153-1.153v-17.754
				c0-0.636,0.516-1.153,1.153-1.153h14.409c0.637,0,1.153,0.516,1.153,1.153V1511.302z"/>
			<path style="fill:#FFFFFF;" d="M2108.578,1536.824c0-2.381-1.93-4.31-4.311-4.31h-105.048c-2.381,0-4.31,1.93-4.31,4.31v202.001
				c0,2.381,1.93,4.31,4.31,4.31h105.048c2.381,0,4.311-1.93,4.311-4.31V1536.824z M2021.654,1728.505
				c0,0.695-0.563,1.258-1.257,1.258h-14.201c-0.694,0-1.257-0.563-1.257-1.258v-20.887c0-0.695,0.563-1.258,1.257-1.258h14.201
				c0.694,0,1.257,0.563,1.257,1.258V1728.505z M2021.654,1695.074c0,0.694-0.563,1.257-1.257,1.257h-14.201
				c-0.694,0-1.257-0.563-1.257-1.257v-20.889c0-0.694,0.563-1.257,1.257-1.257h14.201c0.694,0,1.257,0.563,1.257,1.257V1695.074z
				 M2021.654,1664.984c0,0.695-0.563,1.258-1.257,1.258h-14.201c-0.694,0-1.257-0.563-1.257-1.258v-20.887
				c0-0.694,0.563-1.258,1.257-1.258h14.201c0.694,0,1.257,0.563,1.257,1.258V1664.984z M2021.654,1631.553
				c0,0.694-0.563,1.257-1.257,1.257h-14.201c-0.694,0-1.257-0.563-1.257-1.257v-20.889c0-0.694,0.563-1.257,1.257-1.257h14.201
				c0.694,0,1.257,0.563,1.257,1.257V1631.553z M2021.654,1598.12c0,0.695-0.563,1.258-1.257,1.258h-14.201
				c-0.694,0-1.257-0.563-1.257-1.258v-20.887c0-0.694,0.563-1.258,1.257-1.258h14.201c0.694,0,1.257,0.563,1.257,1.258V1598.12z
				 M2021.654,1564.689c0,0.694-0.563,1.256-1.257,1.256h-14.201c-0.694,0-1.257-0.563-1.257-1.256V1543.8
				c0-0.694,0.563-1.256,1.257-1.256h14.201c0.694,0,1.257,0.563,1.257,1.256V1564.689z M2048.4,1728.505
				c0,0.695-0.563,1.258-1.257,1.258h-14.202c-0.694,0-1.257-0.563-1.257-1.258v-20.887c0-0.695,0.563-1.258,1.257-1.258h14.202
				c0.694,0,1.257,0.563,1.257,1.258V1728.505z M2048.4,1695.074c0,0.694-0.563,1.257-1.257,1.257h-14.202
				c-0.694,0-1.257-0.563-1.257-1.257v-20.889c0-0.694,0.563-1.257,1.257-1.257h14.202c0.694,0,1.257,0.563,1.257,1.257V1695.074z
				 M2048.4,1664.984c0,0.695-0.563,1.258-1.257,1.258h-14.202c-0.694,0-1.257-0.563-1.257-1.258v-20.887
				c0-0.694,0.563-1.258,1.257-1.258h14.202c0.694,0,1.257,0.563,1.257,1.258V1664.984z M2048.4,1631.553
				c0,0.694-0.563,1.257-1.257,1.257h-14.202c-0.694,0-1.257-0.563-1.257-1.257v-20.889c0-0.694,0.563-1.257,1.257-1.257h14.202
				c0.694,0,1.257,0.563,1.257,1.257V1631.553z M2048.4,1598.12c0,0.695-0.563,1.258-1.257,1.258h-14.202
				c-0.694,0-1.257-0.563-1.257-1.258v-20.887c0-0.694,0.563-1.258,1.257-1.258h14.202c0.694,0,1.257,0.563,1.257,1.258V1598.12z
				 M2048.4,1564.689c0,0.694-0.563,1.256-1.257,1.256h-14.202c-0.694,0-1.257-0.563-1.257-1.256V1543.8
				c0-0.694,0.563-1.256,1.257-1.256h14.202c0.694,0,1.257,0.563,1.257,1.256V1564.689z M2071.802,1728.505
				c0,0.695-0.563,1.258-1.257,1.258h-14.201c-0.694,0-1.257-0.563-1.257-1.258v-20.887c0-0.695,0.563-1.258,1.257-1.258h14.201
				c0.694,0,1.257,0.563,1.257,1.258V1728.505z M2071.802,1695.074c0,0.694-0.563,1.257-1.257,1.257h-14.201
				c-0.694,0-1.257-0.563-1.257-1.257v-20.889c0-0.694,0.563-1.257,1.257-1.257h14.201c0.694,0,1.257,0.563,1.257,1.257V1695.074z
				 M2071.802,1664.984c0,0.695-0.563,1.258-1.257,1.258h-14.201c-0.694,0-1.257-0.563-1.257-1.258v-20.887
				c0-0.694,0.563-1.258,1.257-1.258h14.201c0.694,0,1.257,0.563,1.257,1.258V1664.984z M2071.802,1631.553
				c0,0.694-0.563,1.257-1.257,1.257h-14.201c-0.694,0-1.257-0.563-1.257-1.257v-20.889c0-0.694,0.563-1.257,1.257-1.257h14.201
				c0.694,0,1.257,0.563,1.257,1.257V1631.553z M2071.802,1598.12c0,0.695-0.563,1.258-1.257,1.258h-14.201
				c-0.694,0-1.257-0.563-1.257-1.258v-20.887c0-0.694,0.563-1.258,1.257-1.258h14.201c0.694,0,1.257,0.563,1.257,1.258V1598.12z
				 M2071.802,1564.689c0,0.694-0.563,1.256-1.257,1.256h-14.201c-0.694,0-1.257-0.563-1.257-1.256V1543.8
				c0-0.694,0.563-1.256,1.257-1.256h14.201c0.694,0,1.257,0.563,1.257,1.256V1564.689z M2098.548,1728.505
				c0,0.695-0.563,1.258-1.257,1.258h-14.202c-0.694,0-1.257-0.563-1.257-1.258v-20.887c0-0.695,0.563-1.258,1.257-1.258h14.202
				c0.694,0,1.257,0.563,1.257,1.258V1728.505z M2098.548,1695.074c0,0.694-0.563,1.257-1.257,1.257h-14.202
				c-0.694,0-1.257-0.563-1.257-1.257v-20.889c0-0.694,0.563-1.257,1.257-1.257h14.202c0.694,0,1.257,0.563,1.257,1.257V1695.074z
				 M2098.548,1664.984c0,0.695-0.563,1.258-1.257,1.258h-14.202c-0.694,0-1.257-0.563-1.257-1.258v-20.887
				c0-0.694,0.563-1.258,1.257-1.258h14.202c0.694,0,1.257,0.563,1.257,1.258V1664.984z M2098.548,1631.553
				c0,0.694-0.563,1.257-1.257,1.257h-14.202c-0.694,0-1.257-0.563-1.257-1.257v-20.889c0-0.694,0.563-1.257,1.257-1.257h14.202
				c0.694,0,1.257,0.563,1.257,1.257V1631.553z M2098.548,1598.12c0,0.695-0.563,1.258-1.257,1.258h-14.202
				c-0.694,0-1.257-0.563-1.257-1.258v-20.887c0-0.694,0.563-1.258,1.257-1.258h14.202c0.694,0,1.257,0.563,1.257,1.258V1598.12z
				 M2098.548,1564.689c0,0.694-0.563,1.256-1.257,1.256h-14.201c-0.695,0-1.257-0.563-1.257-1.256V1543.8
				c0-0.694,0.563-1.256,1.257-1.256h14.201c0.694,0,1.257,0.563,1.257,1.256V1564.689z"/>
		</g>
		<g>
			
				<linearGradient id="SVGID_00000071531054944886284930000011356014532899537310_" gradientUnits="userSpaceOnUse" x1="2185.2344" y1="3013.7073" x2="1605.7235" y2="3644.0532" gradientTransform="matrix(1 0 0 1 -922.5833 0)">
				<stop  offset="0" style="stop-color:#4F52FF"/>
				<stop  offset="1" style="stop-color:#4042E2"/>
			</linearGradient>
			<path style="fill:url(#SVGID_00000071531054944886284930000011356014532899537310_);" d="M1079.467,3060.664
				c0,0-6.001,33.976-8.944,67.608c-1.15,13.145,8.983,24.557,22.167,25.106c44.788,1.865,140.593,5.493,174.971,3.959
				c5.168-0.23,8.547-5.521,6.634-10.328c-1.603-4.028-4.694-7.284-8.633-9.094l-158.251-72.732L1079.467,3060.664z"/>
			
				<linearGradient id="SVGID_00000127740250797821627170000000423851982776093601_" gradientUnits="userSpaceOnUse" x1="1997.1338" y1="3060.5239" x2="2048.6086" y2="3060.5239" gradientTransform="matrix(1 0 0 1 -922.5833 0)">
				<stop  offset="0" style="stop-color:#FEBBBA"/>
				<stop  offset="1" style="stop-color:#FF928E"/>
			</linearGradient>
			<path style="fill:url(#SVGID_00000127740250797821627170000000423851982776093601_);" d="M1074.551,3040.701l4.822,40.64
				c0,0,27.721,12.905,46.653-1.627l-11.48-45.289L1074.551,3040.701z"/>
			
				<linearGradient id="SVGID_00000158011912680296935310000005249324592834412733_" gradientUnits="userSpaceOnUse" x1="1875.0745" y1="2666.9292" x2="2045.2765" y2="2666.9292" gradientTransform="matrix(1 0 0 1 -922.5833 0)">
				<stop  offset="0" style="stop-color:#09005D"/>
				<stop  offset="1" style="stop-color:#1A0F91"/>
			</linearGradient>
			<path style="fill:url(#SVGID_00000158011912680296935310000005249324592834412733_);" d="M1078.174,2276.663
				c-2.083,10.613-11.18,529.604,44.297,762.181c0.905,3.795-1.019,7.707-4.631,9.182c-8.509,3.477-25.19,8.51-45.181,9.182
				c-6.191,0.208-11.741-3.816-13.488-9.759c-15.858-53.961-91.845-324.324-101.758-582.594c-11.076-288.591,0-9.826,0-9.826
				l6.496-178.389L1078.174,2276.663z"/>
			
				<linearGradient id="SVGID_00000143619459459816243560000014351882484850525058_" gradientUnits="userSpaceOnUse" x1="2055.231" y1="2894.1873" x2="1475.7188" y2="3524.5347" gradientTransform="matrix(1 0 0 1 -922.5833 0)">
				<stop  offset="0" style="stop-color:#4F52FF"/>
				<stop  offset="1" style="stop-color:#4042E2"/>
			</linearGradient>
			<path style="fill:url(#SVGID_00000143619459459816243560000014351882484850525058_);" d="M897.426,3078.389
				c0,0-9.553,17.152-18.802,62.729c-1.67,8.231,4.081,16.109,12.439,16.931c14.789,1.454,37.557,3.324,55.794,3.198
				c8.407-0.058,14.969-7.378,13.955-15.724c-2.02-16.636-8.313-43.93-27.755-65.204L897.426,3078.389z"/>
			
				<linearGradient id="SVGID_00000088831925427966438070000018211156283517149588_" gradientUnits="userSpaceOnUse" x1="1811.6183" y1="3057.8843" x2="1856.0623" y2="3057.8843" gradientTransform="matrix(1 0 0 1 -922.5833 0)">
				<stop  offset="0" style="stop-color:#FEBBBA"/>
				<stop  offset="1" style="stop-color:#FF928E"/>
			</linearGradient>
			<path style="fill:url(#SVGID_00000088831925427966438070000018211156283517149588_);" d="M889.035,3026.117l11.267,61.458
				c0,0,11.14,8.286,33.177,2.279l-5.378-66.125L889.035,3026.117z"/>
			
				<linearGradient id="SVGID_00000039098610685270838860000001324169961429181319_" gradientUnits="userSpaceOnUse" x1="1763.7146" y1="2661.3601" x2="2005.3467" y2="2661.3601" gradientTransform="matrix(1 0 0 1 -922.5833 0)">
				<stop  offset="0" style="stop-color:#09005D"/>
				<stop  offset="1" style="stop-color:#1A0F91"/>
			</linearGradient>
			<path style="fill:url(#SVGID_00000039098610685270838860000001324169961429181319_);" d="M858.598,2292.589
				c-45.372,273.824,9.842,676.779,28.464,755.647c1.14,4.828,5.037,8.528,9.931,9.339c8.312,1.378,21.997,2.502,35.488-1.416
				c4.648-1.35,7.914-5.543,8.104-10.38c2.498-63.763-1.998-455.202,40.278-609.9c2.143-7.84,6.93-14.677,13.554-19.386
				l82.056-58.334l6.291-94.293L858.598,2292.589z"/>
			<g>
				
					<linearGradient id="SVGID_00000004521691289600836710000014260737809430823098_" gradientUnits="userSpaceOnUse" x1="1552.1456" y1="1104.1132" x2="1160.8109" y2="1745.7208">
					<stop  offset="0" style="stop-color:#FF928E"/>
					<stop  offset="1" style="stop-color:#FE7062"/>
				</linearGradient>
				<path style="fill:url(#SVGID_00000004521691289600836710000014260737809430823098_);" d="M1147.71,1773.745
					c-135.972-2.246-286.001,35.702-286.001,35.702c-40.53,236.493-7.087,509.271-7.087,509.271
					c105.266,27.606,224.012-16.878,224.012-16.878c17.496-98.848,99.127-377.041,99.127-377.041
					c66.436-8.246,121.163-27.413,166.233-52.754c-34.378-39.849-50.584-90.555-57.624-120.529
					C1238.296,1766.459,1189.649,1774.439,1147.71,1773.745z"/>
				
					<linearGradient id="SVGID_00000006679272828366660150000006555873404961301680_" gradientUnits="userSpaceOnUse" x1="2208.9531" y1="1717.6042" x2="2471.9299" y2="1717.6042" gradientTransform="matrix(1 0 0 1 -922.5833 0)">
					<stop  offset="0" style="stop-color:#FEBBBA"/>
					<stop  offset="1" style="stop-color:#FF928E"/>
				</linearGradient>
				<path style="fill:url(#SVGID_00000006679272828366660150000006555873404961301680_);" d="M1549.347,1573.467
					c-13.357-16.133-30.262-8.501-30.262-8.501c-20.009,84.522-124.926,153.054-232.714,186.552
					c7.039,29.974,23.246,80.68,57.624,120.529C1522.877,1771.468,1549.347,1573.467,1549.347,1573.467z"/>
			</g>
			<g>
				
					<linearGradient id="SVGID_00000175297254094521199060000008159689733511841950_" gradientUnits="userSpaceOnUse" x1="8034.4307" y1="1673.5233" x2="8210.8945" y2="2075.0181" gradientTransform="matrix(-1 0 0 1 9525.1943 0)">
					<stop  offset="0" style="stop-color:#FEBBBA"/>
					<stop  offset="1" style="stop-color:#FF928E"/>
				</linearGradient>
				<path style="fill:url(#SVGID_00000175297254094521199060000008159689733511841950_);" d="M1546.104,1577.569
					c1.398,4.443-14.787,11.208-24.317-6.964c-0.333-8.709-5.63-46.021-0.426-53.115c27.717-37.788,81.455-85.157,81.455-85.157
					c9.082,8.961,1.6,17.765,1.6,17.765l-26.068,27.157c5.452,9.853,12.103,18.171,15.22,30.089
					c2.361,9.026,0.917,18.671-3.642,26.886c-4.576,8.244-10.819,18.96-16.721,27.347
					C1562.034,1577.45,1546.104,1577.569,1546.104,1577.569z"/>
				
					<linearGradient id="SVGID_00000175316118721373820130000003695248204560849571_" gradientUnits="userSpaceOnUse" x1="2470.6677" y1="1539.811" x2="2544.2986" y2="1426.6033" gradientTransform="matrix(1 0 0 1 -922.5833 0)">
					<stop  offset="0" style="stop-color:#FEBBBA"/>
					<stop  offset="1" style="stop-color:#FF928E"/>
				</linearGradient>
				<path style="fill:url(#SVGID_00000175316118721373820130000003695248204560849571_);" d="M1566.946,1494.875l-23.756,20.138
					l-7.458,20.051l21.181,23.497c0,0,7.121-39.783,12.414-48.394C1574.62,1501.557,1571.875,1497.394,1566.946,1494.875z"/>
			</g>
			
				<linearGradient id="SVGID_00000094615874388914059470000017849825734127647126_" gradientUnits="userSpaceOnUse" x1="1394.9086" y1="1008.2089" x2="1003.5743" y2="1649.8158">
				<stop  offset="0" style="stop-color:#FF928E"/>
				<stop  offset="1" style="stop-color:#FE7062"/>
			</linearGradient>
			<path style="fill:url(#SVGID_00000094615874388914059470000017849825734127647126_);" d="M913.862,1941.108l-52.153-131.661
				c0,0-127.005,86.294-147.891,195.707c23.997,1.767,67.665,8.009,110.408,29.591
				C833.618,1983.083,913.862,1941.108,913.862,1941.108z"/>
			
				<linearGradient id="SVGID_00000171712595601299318440000017046499207919645343_" gradientUnits="userSpaceOnUse" x1="1633.5057" y1="2090.1038" x2="1966.3051" y2="2090.1038" gradientTransform="matrix(1 0 0 1 -922.5833 0)">
				<stop  offset="0" style="stop-color:#FEBBBA"/>
				<stop  offset="1" style="stop-color:#FF928E"/>
			</linearGradient>
			<path style="fill:url(#SVGID_00000171712595601299318440000017046499207919645343_);" d="M1024.851,2064.997
				c0,0-142.594,80.588-190.708,11.775c-9.99-14.288-12.378-28.488-9.917-42.026c-42.743-21.582-86.41-27.824-110.408-29.591
				c-6.298,32.984-2.969,68.065,16.414,103.52c84.279,154.169,313.49-8.52,313.49-8.52L1024.851,2064.997z"/>
			<g>
				
					<linearGradient id="SVGID_00000093138667596593637670000016465855153245427602_" gradientUnits="userSpaceOnUse" x1="2066.989" y1="1853.494" x2="2249.9832" y2="2615.9717" gradientTransform="matrix(1 0 0 1 -922.5833 0)">
					<stop  offset="0" style="stop-color:#09005D"/>
					<stop  offset="1" style="stop-color:#1A0F91"/>
				</linearGradient>
				<path style="fill:url(#SVGID_00000093138667596593637670000016465855153245427602_);" d="M1007.718,2166.948l77.823-271.775
					c0.883-3.085,3.516-5.335,6.703-5.707c14.1-1.645,54.957-6.263,102.13-10.254c56.822-4.806,122.808-8.701,162.24-5.388
					c5.606,0.471,8.993,6.4,6.501,11.443c-22.423,45.365-114.659,229.899-160.847,290.35c-1.53,2.003-3.896,3.173-6.417,3.15
					l-180.562-1.68C1010.035,2177.04,1006.272,2172,1007.718,2166.948z"/>
				<path style="fill:#91B3FA;" d="M1202.446,1855.651l56.423-9.401c3.005-0.501,5.466,2.371,4.511,5.264l-5.585,16.925
					c-0.486,1.473-1.771,2.539-3.309,2.745l-54.296,7.253c-2.809,0.375-5.125-2.177-4.479-4.937l3.458-14.776
					C1199.541,1857.131,1200.834,1855.92,1202.446,1855.651z"/>
				<path style="fill:#7D97F4;" d="M1160.198,1903.418l4.648-24.211c0.466-2.428,2.471-4.263,4.931-4.513l113.961-11.564
					c3.836-0.389,6.907,3.126,6.007,6.875l-7.246,30.17c-0.58,2.414-2.681,4.158-5.16,4.282l-111.363,5.606
					C1162.351,1910.245,1159.514,1906.982,1160.198,1903.418z"/>
				
					<linearGradient id="SVGID_00000052817934450620172130000002852271617294454179_" gradientUnits="userSpaceOnUse" x1="1941.5962" y1="2055.21" x2="2045.2765" y2="2055.21" gradientTransform="matrix(1 0 0 1 -922.5833 0)">
					<stop  offset="0" style="stop-color:#FEBBBA"/>
					<stop  offset="1" style="stop-color:#FF928E"/>
				</linearGradient>
				<path style="fill:url(#SVGID_00000052817934450620172130000002852271617294454179_);" d="M1026.52,2101.288
					c0,0-10.841-44.577-6.468-60.392c4.373-15.815,12.845-36.149,41.087-31.63c28.241,4.519,61.554,16.415,61.554,16.415
					s-1.683,20.6-23.146,13.954l13.309,10.298c0,0-1.902,16.494-20.032,7.682l12.379,13.658c0,0-7.786,13.547-21.124,4.858
					S1064.347,2106.656,1026.52,2101.288z"/>
			</g>
			
				<linearGradient id="SVGID_00000175318532799754632870000001823733448538370451_" gradientUnits="userSpaceOnUse" x1="955.8674" y1="1951.2596" x2="1078.7285" y2="1637.281">
				<stop  offset="0" style="stop-color:#FEBBBA"/>
				<stop  offset="1" style="stop-color:#FF928E"/>
			</linearGradient>
			<path style="fill:url(#SVGID_00000175318532799754632870000001823733448538370451_);" d="M1009.982,1663.358l-43.264,125.117
				c-0.717,2.073,0.135,4.368,2.055,5.429c11.794,6.521,54.283,25.368,105.486-7.096c5.334-3.382,8.965-8.898,9.775-15.161
				l14.01-108.289H1009.982z"/>
			<g>
				
					<linearGradient id="SVGID_00000029034845707108354650000012857496763884868259_" gradientUnits="userSpaceOnUse" x1="-3927.729" y1="-216.7411" x2="-3976.8982" y2="-378.9128" gradientTransform="matrix(0.746 -0.6659 0.6659 0.746 4203.752 -803.1727)">
					<stop  offset="0" style="stop-color:#FEBBBA"/>
					<stop  offset="1" style="stop-color:#FF928E"/>
				</linearGradient>
				<path style="fill:url(#SVGID_00000029034845707108354650000012857496763884868259_);" d="M1104.119,1547.496
					c0,0,47.509,89.43,41.419,125.555c-6.09,36.125-64.969,33.531-116.384,4.192l-35.928-96.564L1104.119,1547.496z"/>
				
					<linearGradient id="SVGID_00000150084213800513206280000007377544098890996409_" gradientUnits="userSpaceOnUse" x1="-3972.0894" y1="-499.3011" x2="-3930.9597" y2="-264.7095" gradientTransform="matrix(0.746 -0.6659 0.6659 0.746 4203.752 -803.1727)">
					<stop  offset="0" style="stop-color:#09005D"/>
					<stop  offset="1" style="stop-color:#1A0F91"/>
				</linearGradient>
				<path style="fill:url(#SVGID_00000150084213800513206280000007377544098890996409_);" d="M1031.426,1629.82
					c2.09-0.926,2.86-3.482,1.609-5.394c-3.806-5.815-10.941-17.677-13.217-28.063c0,0-8.541-5.47,21.738-12.717
					c30.278-7.247,75.431-18.496,84.921-44.269c9.253-25.127-15.059-88.318-53.847-37.969c-1.476,1.916-4.367,1.958-5.84,0.041
					c-6.359-8.276-23.076-25.454-46.285-15.04c-21.719,9.745-24.166,25.661-23.868,33.683c0.088,2.36-2.022,4.194-4.341,3.752
					c-10.982-2.094-37.333-3.893-49.633,23.14c-10.131,22.266-3.546,34.871,2.451,41.035c1.943,1.997,1.091,5.286-1.573,6.101
					c-7.217,2.209-16.536,8.329-15.604,25.237c1.29,23.375,27.425,21.316,34.865,20.25c1.219-0.175,2.447,0.244,3.273,1.157
					c6.38,7.06,35.126,37.039,66.237,40.653c2.694,0.313,4.782-2.347,3.9-4.912l-13.464-39.138c-0.625-1.818,0.244-3.812,2.002-4.59
					L1031.426,1629.82z"/>
				
					<linearGradient id="SVGID_00000048492355343943848760000008406709068190743986_" gradientUnits="userSpaceOnUse" x1="-3977.9917" y1="-217.496" x2="-4022.23" y2="-363.405" gradientTransform="matrix(0.746 -0.6659 0.6659 0.746 4203.752 -803.1727)">
					<stop  offset="0" style="stop-color:#FEBBBA"/>
					<stop  offset="1" style="stop-color:#FF928E"/>
				</linearGradient>
				<path style="fill:url(#SVGID_00000048492355343943848760000008406709068190743986_);" d="M1036.838,1635.375
					c0,0-33.826-23.208-36.298-3.664c-2.471,19.544,30.461,28.309,46.773,21.023L1036.838,1635.375z"/>
			</g>
		</g>
	</g>
</g>
</svg>
